<svg width="450" height="103" viewBox="0 0 450 103" fill="none" xmlns="http://www.w3.org/2000/svg">
<path fill-rule="evenodd" clip-rule="evenodd" d="M53.83 55.128C63.035 56.549 64.279 61.995 65.023 67.065L65.147 67.929L65.232 68.517L65.68 71.5C66.557 77.196 68.386 89.019 68.386 95.189C68.386 96.731 68.25 97.914 68.003 98.565C67.59 99.567 66.387 100.529 64.725 101.331C60.704 102.321 56.502 102.856 52.173 102.856C51.715 102.856 51.264 102.834 50.811 102.82C49.062 102.323 47.747 101.493 47.05 100.36C44.948 96.938 44.821 89.314 44.779 80.405L44.774 79.372L44.757 76.702C44.689 67.271 44.63 59.139 48.056 56.221C49.384 55.096 51.269 54.724 53.83 55.128ZM33.761 75.661C35.756 75.549 37.039 85.36 37.296 92.8C37.477 97.98 36.933 100.11 36.064 100.875C35.081 100.547 34.115 100.192 33.163 99.806C32.528 98.652 32.042 96.836 31.734 94.459C30.793 86.987 31.61 75.793 33.761 75.661ZM83.769 90.323C83.645 91.004 83.469 91.531 83.253 91.975C81.548 93.344 79.755 94.6 77.879 95.73C77.281 95.831 76.751 95.761 76.491 95.322C74.005 90.954 73.072 77.25 75.478 76.057C78.615 74.543 84.234 87.954 83.769 90.323ZM51.43 0C79.438 0 102.214 22.18 102.842 49.779L102.855 50.733V51.174C102.804 63.641 98.216 75.047 90.657 83.875C90.383 83.737 89.883 83.287 88.977 81.932C88.039 80.569 79.954 68.126 79.954 53.864C79.954 51.065 83.988 46.693 87.558 42.855C90.227 39.967 92.755 37.243 93.686 35.102C94.872 32.339 94.042 30.41 92.73 29.757C91.542 29.176 89.759 29.6 88.508 31.822C86.455 35.419 85.797 36.091 82.802 38.497C79.855 40.902 75.17 43.323 75.17 40.189C75.17 38.497 77.78 34.664 79.069 31.978C80.386 29.262 78.966 27.295 76.248 27.295C70.91 27.295 67.366 34.095 67.366 36.451C67.366 38.805 68.508 39.14 68.508 41.882C68.508 44.644 62.651 48.226 57.133 48.226C51.821 48.226 48.74 47.151 47.464 44.122L47.301 43.697L46.932 42.605C45.623 38.78 44.684 36.006 43.05 33.106C42.182 31.573 40.843 30.51 39.685 29.575C38.171 28.399 37.386 27.317 37.222 26.51C37.071 25.709 36.99 24.2 39.577 20.72C42.159 17.26 42.521 14.647 41.229 13.298C40.761 12.818 39.962 12.511 38.937 12.511C37.124 12.511 34.604 13.472 32.007 16.111C27.97 20.248 30.262 24.175 30.262 25.899C30.262 27.622 29.522 28.597 27.1 30.941C24.66 33.295 23.817 35.314 23.538 43.427C23.431 47.607 22.695 50.013 22.034 52.147C21.463 54.017 20.938 55.775 20.909 58.315C20.864 61.13 21.332 62.944 21.879 65.037C22.416 66.972 22.986 69.188 23.351 72.897C23.932 78.637 23.73 83.486 22.674 88.442L22.392 89.684L22.326 90.041C22.11 90.912 21.852 91.97 21.505 92.366C8.488 83.12 0 68.022 0 50.955C0 22.816 23.025 0 51.43 0Z" fill="#F14635"/>
<path d="M299.269 35.2622C304.357 35.2622 308.313 37.0642 311.138 40.6682C313.962 44.2722 315.373 49.2252 315.373 55.5292V56.1161C315.373 62.2731 313.93 67.1902 311.042 70.8672C308.154 74.5442 304.255 76.3831 299.345 76.3831C295.555 76.3831 292.438 75.0512 289.995 72.3882V92.3961H277.135V35.9962H289.156L289.538 39.6611C292.006 36.7281 295.249 35.2622 299.269 35.2622ZM209.592 35.2622C214.858 35.2622 219.018 36.4962 222.071 38.9632C225.124 41.4311 226.689 44.8152 226.765 49.1152V66.6702C226.816 70.3102 227.401 73.0962 228.521 75.0262V75.6491H215.66C215.202 74.8431 214.795 73.6581 214.439 72.0941C212.073 74.9521 208.766 76.3821 204.517 76.3821C200.624 76.3821 197.317 75.2522 194.595 72.9922C191.873 70.7322 190.512 67.8922 190.512 64.4712C190.512 60.1712 192.166 56.9212 195.473 54.7232C198.78 52.5242 203.589 51.4252 209.898 51.4252H213.867V49.3362C213.867 45.6962 212.226 43.8752 208.944 43.8752C205.891 43.8752 204.365 45.3172 204.365 48.1992H191.504C191.504 44.3632 193.202 41.2482 196.599 38.8542C199.995 36.4592 204.326 35.2622 209.592 35.2622ZM251.454 35.2622C256.898 35.2622 261.274 36.4472 264.581 38.8172C267.889 41.1872 269.542 44.3022 269.542 48.1622H256.644C256.644 44.9862 254.901 43.3981 251.416 43.3981C250.067 43.3981 248.935 43.7582 248.02 44.4792C247.104 45.2002 246.646 46.0982 246.646 47.1732C246.646 48.2732 247.206 49.1642 248.325 49.8482C249.445 50.5322 251.232 51.0941 253.687 51.5341C256.142 51.9741 258.298 52.4992 260.156 53.1102C266.364 55.1622 269.467 58.8391 269.467 64.1411C269.467 67.7571 267.795 70.7011 264.449 72.9731C261.103 75.2451 256.772 76.3812 251.455 76.3812C247.918 76.3812 244.764 75.7702 241.991 74.5492C239.218 73.3272 237.055 71.6662 235.503 69.5652C233.951 67.4642 233.175 65.2532 233.175 62.9322H245.196C245.247 64.7642 245.883 66.1022 247.104 66.9452C248.325 67.7882 249.889 68.2092 251.798 68.2092C253.553 68.2092 254.87 67.8672 255.748 67.1832C256.626 66.4992 257.064 65.6071 257.064 64.5071C257.064 63.4571 256.492 62.6141 255.347 61.9781C254.202 61.3431 252.027 60.6831 248.822 59.9991C245.616 59.3151 242.971 58.4172 240.884 57.3052C238.798 56.1942 237.208 54.8442 236.114 53.2552C235.02 51.6672 234.473 49.8472 234.473 47.7942C234.473 44.1542 236.038 41.1551 239.167 38.7971C242.295 36.4411 246.391 35.2622 251.454 35.2622ZM154.832 19.2872V45.8172L173.034 19.2872H189.596L169.257 45.8912L188.033 75.6501H172.158L160.328 55.7872L154.833 61.5771V75.6501H141.438V19.2872H154.832ZM336.169 35.9951V75.6491H323.27V35.9951H336.169ZM449.579 35.9951V42.6652L431.187 66.1201H450V75.6491H414.93V68.7592L433.248 45.5242H411.668L420.263 35.9962H449.579V35.9951ZM353.413 62.8582C356.933 62.8582 359.78 65.6062 359.78 68.9962C359.78 72.3862 356.932 75.1342 353.413 75.1342C349.897 75.1342 347.046 72.3862 347.046 68.9962C347.046 65.6052 349.897 62.8582 353.413 62.8582ZM383.28 19.2852V48.9002L384.579 47.2672L394.299 35.7982H409.756L395.257 51.9492L410.714 75.0681H395.945L386.916 60.4422L383.281 63.8902V75.0681H370.386V19.2852H383.28ZM213.866 58.0211H210.126C205.648 58.0211 203.41 59.9512 203.41 63.8112C203.41 64.9352 203.804 65.8452 204.593 66.5412C205.382 67.2372 206.387 67.5851 207.608 67.5851C209.211 67.5851 210.54 67.2552 211.596 66.5962C212.652 65.9362 213.408 65.1912 213.867 64.3602V58.0211H213.866ZM296.102 44.7912C293.049 44.7912 291.013 45.8412 289.996 47.9432V63.5551C291.116 65.7541 293.176 66.8531 296.179 66.8531C300.275 66.8531 302.387 63.4572 302.514 56.6652V55.3462C302.513 48.3092 300.376 44.7912 296.102 44.7912ZM329.895 19.2852C333.411 19.2852 336.262 22.1641 336.262 25.7151C336.262 29.2661 333.411 32.1452 329.895 32.1452C326.379 32.1452 323.528 29.2661 323.528 25.7151C323.528 22.1641 326.379 19.2852 329.895 19.2852Z" fill="black"/>
</svg>
