<svg width="465" height="185" viewBox="0 0 465 185" fill="none" xmlns="http://www.w3.org/2000/svg">
<g clip-path="url(#clip0_65_1562)">
<path d="M361.775 0.00683594V92.2892L360.596 93.2617L359.418 94.2341L358.289 95.2551L357.209 96.2761L356.178 97.2972L355.148 98.3669L354.166 99.4365L353.184 100.506V0.00683594H249.949V84.0237H241.407V0.00683594H138.172V84.1695H129.63V0.00683594H26.3946V95.9358L0.0334473 182.918H23.2038L34.838 144.411H38.1761L57.4192 182.918H85.4002L66.7462 144.411H109.061L97.329 182.918H122.61L134.195 144.508H139.792V144.411H147.744H148.382H196.146L184.954 182.821H210.481L221.329 144.411H232.816L233.111 182.821H254.514L279.108 144.411H295.209L286.864 182.821H311.998L320.196 144.411H334.726L334.628 146.598L334.68 148.835L334.778 150.974L334.974 153.114L335.121 154.135L335.268 155.156L335.465 156.177L335.661 157.198L335.906 158.219L336.151 159.191L336.446 160.164L336.74 161.136L337.084 162.109L337.428 163.032L337.82 163.956L338.213 164.831L338.655 165.755L339.097 166.63L339.588 167.457L340.079 168.332L340.62 169.159L341.209 169.937L341.798 170.763L342.436 171.492L343.074 172.27L343.712 173L344.449 173.729L345.185 174.41L346.118 175.188L347.05 175.966L348.032 176.695L349.063 177.376L350.094 178.056L351.125 178.688L352.205 179.223L353.334 179.806L354.414 180.292L355.543 180.779L356.672 181.216L357.85 181.654L359.028 182.043L360.206 182.383L361.385 182.724L362.563 183.016L364.919 183.55L367.324 183.939L369.681 184.28L372.037 184.571L374.344 184.766L376.602 184.863L378.811 184.961H380.922L383.769 184.915L386.617 184.868L389.513 184.723L392.409 184.577L395.305 184.333L398.202 184.09L401.098 183.798L403.994 183.458L406.94 183.069L409.885 182.631L412.83 182.145L415.776 181.659L418.721 181.124L421.667 180.541L424.612 179.957L427.606 179.276L436.344 144.415H465.013V0.0113341L361.775 0.00683594ZM35.967 140.813L36.1142 140.278L36.4581 140.813H35.967ZM125.899 89.0802L124.426 93.991L110.681 139.208L110.141 140.813H64.9789L61.4935 133.422L110.141 84.1695H78.8712L40.8268 124.768L53.1482 84.1695H30.0762V3.65343H125.899L125.899 89.0802ZM152.555 127.296L151.818 127.342L151.131 127.388L150.395 127.435H149.609H148.579H147.695L146.86 127.481H146.075L139.939 127.435L142.786 117.03L144.111 111.876L147.351 99.7694H148.382H149.462L150.493 99.7233H151.475H156.237L159.133 99.7694L161.784 99.8669L162.962 99.913L164.091 100.01L165.171 100.156L166.153 100.302L167.036 100.448L167.871 100.692L168.656 100.935L169.343 101.227L169.932 101.518L170.473 101.908L170.964 102.297L171.356 102.783L171.601 103.172L171.798 103.562L171.994 103.999L172.141 104.486L172.239 105.02L172.291 105.555V106.138V106.77L172.239 107.451L172.193 108.132L172.046 108.909L171.899 109.687L171.457 111.341L170.916 113.188L170.376 114.744L169.787 116.251L169.149 117.661L168.462 118.974L168.118 119.557L167.774 120.141L167.381 120.724L166.939 121.259L166.497 121.794L166.055 122.28L165.564 122.766L165.073 123.203L164.533 123.593L163.992 124.03L163.403 124.371L162.765 124.76L162.127 125.1L161.44 125.392L160.752 125.684L160.016 125.927L159.231 126.219L158.396 126.413L157.513 126.608L156.629 126.802L155.647 126.948L154.665 127.094L153.635 127.191L152.555 127.289L152.555 127.296ZM222.36 140.813L232.424 105.32L232.817 140.813H222.36ZM237.676 84.0237H213.72L197.226 140.813H171.798L172.976 140.327L174.154 139.841L175.283 139.354L176.412 138.82L177.492 138.285L178.523 137.653L179.554 137.07L180.536 136.438L181.518 135.757L182.45 135.076L183.334 134.396L184.218 133.618L185.052 132.888L185.838 132.062L186.623 131.284L187.359 130.409L188.096 129.582L188.783 128.658L189.421 127.783L190.059 126.811L190.648 125.838L191.188 124.866L191.729 123.845L192.22 122.775L192.711 121.706L193.153 120.636L193.545 119.518L193.938 118.351L194.232 117.184L194.576 116.017L194.822 114.753L195.067 113.537L195.411 111.592L195.705 109.745L195.901 107.994L196.048 106.341L196.1 104.688L196.048 103.181L196.002 101.674L195.806 100.264L195.61 98.951L195.266 97.6382L194.922 96.4227L194.431 95.2558L193.891 94.1375L193.302 93.0192L192.615 91.9982L191.829 91.0258L191.191 90.3451L190.553 89.6644L189.866 89.0809L189.129 88.5463L188.344 88.0118L187.558 87.5256L186.724 87.0879L185.889 86.6986L185.006 86.3094L184.122 86.0176L183.189 85.7258L182.257 85.434L181.275 85.1906L180.293 84.9963L179.311 84.8019L178.28 84.656L176.169 84.3642L174.059 84.2183L171.899 84.0724L169.69 84.0263H165.272H160.903H159.528H157.074H154.03H150.643H147.354H144.556H142.592H141.856V3.65603H237.679L237.676 84.0237ZM295.896 140.813H281.513L303.309 106.778L295.896 140.813ZM349.453 85.6282L349.401 105.32L348.174 107.021L347.045 108.772L345.916 110.522L344.885 112.272L343.903 114.023L342.921 115.822L342.087 117.572L341.252 119.322L340.467 121.024L339.78 122.775L339.092 124.476L338.503 126.129L337.963 127.782L337.472 129.387L337.03 130.943L336.637 132.499L336.392 133.52L336.147 134.589L335.901 135.61L335.705 136.68L335.509 137.701L335.362 138.722L335.215 139.743L335.117 140.813H321.028L333.055 84.1695L292.507 84.1234L256.23 140.815H253.579V3.65591H349.451L349.453 85.6282ZM404.728 164.005L402.715 164.345L400.654 164.637L398.592 164.929L396.579 165.172L394.566 165.367L392.554 165.512L390.59 165.61H388.627H387.35L386.074 165.564L384.847 165.466L383.619 165.32L382.441 165.126L381.312 164.932L380.183 164.688L379.103 164.397L378.072 164.056L377.041 163.716L376.06 163.278L375.127 162.841L374.194 162.306L373.311 161.771L372.476 161.188L371.691 160.605L370.905 159.924L370.218 159.195L369.531 158.465L368.893 157.639L368.304 156.812L367.763 155.888L367.272 154.965L366.781 153.992L366.388 152.971L366.044 151.853L365.75 150.735L365.456 149.568L365.26 148.352L365.112 147.088L365.014 145.775L364.962 144.414H409.634L404.728 164.005ZM461.377 140.813H437.225L441.202 124.962H392.799L388.823 140.813H365.407V137.555L365.702 136.194L365.947 134.833L366.241 133.374L366.535 131.915L366.977 130.311L367.419 128.706L367.911 127.102L368.451 125.546L369.04 123.99L369.678 122.434L370.365 120.927L371.052 119.42L371.838 117.912L372.623 116.502L373.458 115.044L374.391 113.682L375.323 112.321L376.256 111.008L377.287 109.744L378.367 108.529L379.496 107.362L380.625 106.292L381.852 105.222L383.079 104.201L384.356 103.278L385.73 102.402L387.105 101.624L388.528 100.895L390.001 100.214L391.523 99.631L393.094 99.1449L394.714 98.7556L396.383 98.4154L398.101 98.172L399.868 98.0261L401.684 97.98L403.108 98.0261L404.532 98.1235L405.955 98.3179L407.33 98.6097L408.017 98.804L408.655 98.9984L409.293 99.1927L409.882 99.4845L410.471 99.7279L411.06 100.068L411.601 100.408L412.141 100.749L412.632 101.186L413.123 101.624L413.565 102.062L414.007 102.596L414.4 103.082L414.744 103.666L415.038 104.298L415.332 104.93L415.578 105.611L415.774 106.34L415.921 107.069L416.068 107.896L416.12 108.722V109.598V110.521L416.022 111.494H444.887L445.329 109.5L445.722 107.215L445.918 106L446.016 104.687L446.114 103.374V102.013L446.068 100.603L445.921 99.1442L445.774 98.4634L445.676 97.7341L445.479 97.0048L445.283 96.2755L445.038 95.4976L444.793 94.7683L444.498 94.039L444.154 93.3096L443.811 92.5803L443.368 91.851L442.926 91.1217L442.435 90.3924L441.846 89.6145L441.208 88.8851L440.57 88.1558L439.883 87.4752L439.146 86.7944L438.361 86.1624L437.575 85.5789L436.741 84.9955L435.857 84.412L434.974 83.9259L434.041 83.4398L433.059 82.9536L432.077 82.5159L431.047 82.0782L429.967 81.6889L428.887 81.2997L427.807 80.9594L426.629 80.6676L425.499 80.3758L424.272 80.084L423.045 79.8407L421.818 79.5973L420.541 79.403L419.216 79.2571L416.516 78.9653L413.767 78.7219L410.871 78.6244L407.925 78.5783L405.716 78.6244L403.409 78.6706L401.004 78.8165L398.5 79.0108L395.898 79.3026L393.248 79.6429L390.548 80.0806L387.799 80.664L386.424 80.9558L385.001 81.296L383.626 81.6853L382.202 82.0746L380.779 82.5123L379.355 82.9984L377.932 83.4846L376.557 84.0191L375.134 84.6026L373.71 85.2347L372.335 85.8667L370.912 86.5474L369.537 87.2767L368.163 88.0547L366.788 88.8326L365.414 89.7078V3.64888H461.384V140.808L461.377 140.813Z" fill="#003087"/>
</g>
<defs>
<clipPath id="clip0_65_1562">
<rect width="465" height="185" fill="white"/>
</clipPath>
</defs>
</svg>
