<?xml version="1.0" encoding="UTF-8"?> <svg xmlns="http://www.w3.org/2000/svg" width="128" height="48" viewBox="0 0 128 48" fill="none"><path d="M12.5465 25.277C15.3853 22.4381 19.2633 23.376 20.8475 24.1997C17.9326 24.8334 13.1802 26.0373 12.9267 31.9938C12.781 35.4177 15.4613 39.471 17.9326 40.8017C20.4039 42.1324 23.3821 42.2591 26.1703 40.8017C28.8399 39.4062 30.6693 37.7601 31.3029 33.8948C31.7628 31.0893 30.5425 28.572 28.895 27.6849C26.5505 26.4224 21.9501 25.9613 20.2772 29.9661C18.6043 33.9708 20.9742 35.3099 22.3683 35.4789C23.4033 35.6057 24.6495 34.972 24.5227 33.5779C24.3437 31.609 22.4739 32.5641 21.9247 33.1977C21.7346 32.1205 21.9247 29.7126 25.4732 30.3463C27.9927 30.7962 28.5782 33.071 27.9445 35.1621C27.3109 37.2532 24.2819 40.1807 20.0237 37.6967C15.7655 35.2128 16.6442 30.5786 17.6158 28.572C18.693 26.6921 22.1655 23.0084 27.4376 23.3126C32.7097 23.6168 34.4501 28.1284 34.6613 30.3463C35.0838 34.5496 33.5714 43.311 24.1425 44.7304C14.7136 46.1498 10.2019 38.267 9.69501 33.8948C9.30021 31.9304 9.70768 28.1158 12.5465 25.277Z" fill="#ED1C24"></path><path d="M21.4177 22.4888V11.273C18.0212 7.97793 12.3141 6.09806 9.88501 5.57001V23.7561L11.5325 24.2631C15.081 20.7146 19.6012 21.6017 21.4177 22.4888Z" fill="#004282"></path><path d="M8.17426 8.80168L5.06931 8.42148L4.94257 26.5443L8.93465 27.4314C8.93465 27.0258 9.56832 25.9528 9.88515 25.467L8.17426 24.77V8.80168Z" fill="#004282"></path><path d="M3.23168 11.5898H0V30.3462H8.17426V29.0155L3.23168 27.8749V11.5898Z" fill="#004282"></path><path d="M36.3089 8.80168L39.4138 8.42148L39.5406 26.5443L35.5485 27.4314C35.5485 27.0258 34.9148 25.9528 34.598 25.467L36.3089 24.77V8.80168Z" fill="#004282"></path><path d="M41.2515 11.5898H44.4832V30.3462H36.3089V29.0155L41.2515 27.8749V11.5898Z" fill="#004282"></path><path fill-rule="evenodd" clip-rule="evenodd" d="M23.0654 16.5915C23.8713 15.4594 26.5906 13.6081 31.6198 14.5942C31.5353 16.3473 30.8087 20.2211 28.5782 21.6912C28.5056 21.7391 28.4321 21.7857 28.3579 21.8311C29.8836 22.1016 31.4984 22.8109 32.9506 24.2631L34.5981 23.7561V5.57001C32.1691 6.09806 26.4619 7.97793 23.0654 11.273V16.5915Z" fill="#004282"></path><path d="M58.5489 23L65.2556 5.76165L67.4741 5.21339L72.8037 19.7614L74.2573 23H70.4704L68.9914 18.9582H63.2155L61.6728 23H58.5489ZM64.0571 16.2679H68.2264L66.4286 11.1933L66.1991 10.1732L65.9313 11.2188L64.0571 16.2679ZM76.4248 5.55765H80.1861V20.3607H86.8418L86.1915 23H76.7946V8.24795L76.4248 5.55765ZM88.7671 5.55765H91.4446L98.7378 15.9236L105.393 5.55765H107.663V20.756L107.956 23H104.271V12.2133L103.519 13.8836L98.4445 21.3807L92.9874 13.8836L92.1331 12.1878V20.756L92.4136 23H89.1241V8.24795L88.7671 5.55765ZM109.907 23L116.614 5.76165L118.832 5.21339L124.162 19.7614L125.615 23H121.828L120.349 18.9582H114.574L113.031 23H109.907ZM115.415 16.2679H119.584L117.787 11.1933L117.557 10.1732L117.289 11.2188L115.415 16.2679Z" fill="#ED1C24"></path><path d="M59.6175 41.4594L59.8073 39.3894C59.8495 39.4316 59.9068 39.4888 59.9791 39.5612C60.0574 39.6274 60.2171 39.748 60.4582 39.9227C60.7053 40.0975 60.9553 40.2542 61.2085 40.3928C61.4676 40.5254 61.784 40.6489 62.1576 40.7634C62.5373 40.8719 62.9079 40.9261 63.2694 40.9261C63.7696 40.9261 64.1824 40.7755 64.5079 40.4741C64.8393 40.1728 65.005 39.8112 65.005 39.3894C65.005 39.1062 64.9086 38.844 64.7158 38.603C64.5229 38.3559 64.2698 38.1359 63.9564 37.9431C63.6491 37.7442 63.3086 37.5454 62.935 37.3465C62.5614 37.1476 62.1877 36.9307 61.8141 36.6956C61.4405 36.4606 61.097 36.2045 60.7836 35.9273C60.4763 35.6441 60.2262 35.2975 60.0333 34.8878C59.8405 34.478 59.7441 34.029 59.7441 33.5409C59.7441 32.5104 60.0876 31.6456 60.7746 30.9466C61.4676 30.2415 62.3776 29.8889 63.5045 29.8889C64.8062 29.8889 65.9542 30.1993 66.9485 30.82L66.4875 32.6731C66.4513 32.643 66.4031 32.6068 66.3429 32.5646C66.2826 32.5164 66.15 32.435 65.9451 32.3205C65.7402 32.2 65.5263 32.0946 65.3033 32.0042C65.0804 31.9138 64.8001 31.8324 64.4627 31.7601C64.1252 31.6878 63.7877 31.6516 63.4502 31.6516C63.0826 31.6516 62.7391 31.7872 62.4197 32.0584C62.1064 32.3236 61.9497 32.658 61.9497 33.0618C61.9497 33.351 62.0461 33.6192 62.2389 33.8663C62.4378 34.1073 62.6939 34.3243 63.0073 34.5171C63.3207 34.71 63.6642 34.9028 64.0378 35.0957C64.4175 35.2885 64.7941 35.5054 65.1677 35.7465C65.5474 35.9815 65.8939 36.2407 66.2073 36.5239C66.5206 36.8011 66.7737 37.1536 66.9666 37.5815C67.1655 38.0034 67.2649 38.4704 67.2649 38.9826C67.2649 40.0553 66.9093 40.9472 66.1982 41.6583C65.4932 42.3694 64.5591 42.725 63.396 42.725C62.9501 42.725 62.5131 42.6798 62.0853 42.5894C61.6634 42.505 61.3079 42.4026 61.0186 42.282C60.7354 42.1555 60.4823 42.0319 60.2593 41.9114C60.0424 41.7849 59.8827 41.6794 59.7802 41.595L59.6175 41.4594ZM68.5123 36.5601C68.5123 35.6019 68.669 34.707 68.9824 33.8753C69.3018 33.0437 69.7357 32.3386 70.2841 31.7601C70.8325 31.1755 71.4833 30.7176 72.2366 30.3861C72.9959 30.0547 73.8034 29.8889 74.6592 29.8889C76.3405 29.8889 77.7537 30.4012 78.8987 31.4256L77.9134 33.2064C76.9431 32.2181 75.8644 31.7239 74.6772 31.7239C73.9963 31.7239 73.3725 31.9379 72.8061 32.3657C72.2396 32.7936 71.7967 33.3631 71.4773 34.0742C71.1639 34.7853 71.0072 35.5506 71.0072 36.3702C71.0072 37.0693 71.1127 37.7051 71.3236 38.2775C71.5405 38.85 71.8268 39.3201 72.1824 39.6877C72.5439 40.0553 72.9537 40.3385 73.4117 40.5374C73.8697 40.7363 74.3518 40.8357 74.858 40.8357C75.5028 40.8357 76.1567 40.6851 76.8196 40.3837C77.4825 40.0824 78.0761 39.6515 78.6004 39.0911L79.0433 40.9984C78.4648 41.5287 77.7627 41.9506 76.9371 42.2639C76.1115 42.5713 75.301 42.725 74.5055 42.725C73.8848 42.725 73.2852 42.6436 72.7066 42.4809C72.1281 42.3182 71.5827 42.0681 71.0705 41.7306C70.5643 41.3931 70.1214 40.9864 69.7417 40.5103C69.362 40.0282 69.0607 39.4497 68.8378 38.7747C68.6208 38.0937 68.5123 37.3555 68.5123 36.5601ZM80.8783 30.1149H83.5449V35.2403H89.3212V32.0222L89.059 30.1149H91.7257V40.89L91.9336 42.4809H89.3212V37.2561H83.5449V40.89L83.7438 42.4809H81.1405V32.0222L80.8783 30.1149ZM94.0669 36.4245C94.0669 35.5145 94.2175 34.6588 94.5188 33.8573C94.8262 33.0497 95.242 32.3597 95.7663 31.7872C96.2906 31.2147 96.9173 30.7627 97.6465 30.4313C98.3817 30.0938 99.1651 29.9251 99.9968 29.9251C101.238 29.9251 102.293 30.1963 103.161 30.7386C104.034 31.281 104.679 32.0192 105.095 32.9533C105.511 33.8814 105.719 34.9661 105.719 36.2075C105.719 37.1175 105.565 37.9762 105.258 38.7838C104.95 39.5913 104.532 40.2843 104.001 40.8628C103.477 41.4353 102.844 41.8903 102.103 42.2278C101.368 42.5592 100.584 42.725 99.7527 42.725C98.5776 42.725 97.5531 42.4447 96.6793 41.8843C95.8115 41.3178 95.1576 40.5645 94.7177 39.6244C94.2838 38.6783 94.0669 37.6116 94.0669 36.4245ZM97.538 33.0075C96.9294 33.8753 96.625 34.9781 96.625 36.316C96.625 37.6538 96.9294 38.7566 97.538 39.6244C98.1467 40.4922 98.9361 40.9261 99.9064 40.9261C100.877 40.9261 101.66 40.4922 102.257 39.6244C102.859 38.7566 103.161 37.6538 103.161 36.316C103.161 34.9781 102.859 33.8753 102.257 33.0075C101.66 32.1398 100.877 31.7059 99.9064 31.7059C98.9361 31.7059 98.1467 32.1398 97.538 33.0075ZM106.849 36.4245C106.849 35.5145 106.999 34.6588 107.301 33.8573C107.608 33.0497 108.024 32.3597 108.548 31.7872C109.072 31.2147 109.699 30.7627 110.428 30.4313C111.164 30.0938 111.947 29.9251 112.779 29.9251C114.02 29.9251 115.075 30.1963 115.942 30.7386C116.816 31.281 117.461 32.0192 117.877 32.9533C118.293 33.8814 118.501 34.9661 118.501 36.2075C118.501 37.1175 118.347 37.9762 118.04 38.7838C117.732 39.5913 117.313 40.2843 116.783 40.8628C116.259 41.4353 115.626 41.8903 114.885 42.2278C114.15 42.5592 113.366 42.725 112.534 42.725C111.359 42.725 110.335 42.4447 109.461 41.8843C108.593 41.3178 107.939 40.5645 107.5 39.6244C107.066 38.6783 106.849 37.6116 106.849 36.4245ZM110.32 33.0075C109.711 33.8753 109.407 34.9781 109.407 36.316C109.407 37.6538 109.711 38.7566 110.32 39.6244C110.928 40.4922 111.718 40.9261 112.688 40.9261C113.658 40.9261 114.442 40.4922 115.038 39.6244C115.641 38.7566 115.942 37.6538 115.942 36.316C115.942 34.9781 115.641 33.8753 115.038 33.0075C114.442 32.1398 113.658 31.7059 112.688 31.7059C111.718 31.7059 110.928 32.1398 110.32 33.0075ZM120.598 30.1149H123.264V40.6097H127.983L127.522 42.4809H120.86V32.0222L120.598 30.1149Z" fill="#004282"></path><path d="M29.8457 16.0254C23.9146 15.6706 23.0233 19.9753 23.319 22.172C24.4384 21.9185 26.614 21.2722 27.6279 20.4611C28.6417 19.65 29.8457 17.3561 29.8457 16.0254Z" fill="#0A7942"></path></svg> 