<svg width="168" height="48" viewBox="0 0 168 48" fill="none" xmlns="http://www.w3.org/2000/svg">
<path d="M45.8496 24C45.8496 11.9328 36.0672 2.15038 24 2.15037C11.9328 2.15037 2.15037 11.9328 2.15037 24C2.15038 36.0672 11.9328 45.8496 24 45.8496C36.0672 45.8496 45.8496 36.0672 45.8496 24ZM48 24C48 37.2548 37.2548 48 24 48C10.7452 48 9.25228e-06 37.2548 0 24C0 10.7452 10.7452 0 24 0C37.2548 9.25452e-06 48 10.7452 48 24Z" fill="#A51D31"/>
<path d="M42.9887 34.9482L43.7366 33.6392C42.9232 33.0876 38.903 32.3771 38.903 32.3771C38.903 32.3771 38.9217 28.8897 38.903 26.141C38.8843 23.3923 36.3506 21.5504 36.3506 21.5504C36.3506 21.5504 31.8161 18.007 27.6837 15.8473C23.5606 13.6876 20.4565 15.8473 20.4565 15.8473C20.4565 15.8473 13.3136 20.0826 11.0884 21.9992C8.85391 23.9158 9.03155 25.9447 9.03155 25.9447V32.4425C5.22633 32.8352 3.96416 33.6299 3.96416 33.6299V34.7238L7.09622 39.8473C7.09622 39.8473 8.72302 40.9318 11.5746 41.8667C14.4262 42.8017 16.7074 44.5407 16.7074 44.5407L17.6985 45.298L21.7935 45.7748C21.7935 45.7748 19.8488 44.3069 14.9404 41.7919C10.0319 39.2769 8.70432 39.5574 8.70432 39.5574L6.80638 37.8745C6.80638 37.8745 12.2851 38.0709 18.2127 41.259C24.5329 44.6529 26.6646 45.5785 26.6646 45.5785L30.2267 45.1203C27.1975 44.8586 23.1959 42.1285 17.1562 39.2396C11.1258 36.3599 6.03038 36.4441 6.03038 36.4441L5.07674 35.1352C11.8457 34.677 20.7277 38.1924 24.7853 40.6513C28.8523 43.1102 32.508 44.1013 32.508 44.1013L34.5835 43.1289C32.2181 43.1102 24.187 38.6692 20.3163 36.7713C16.4456 34.8827 9.40552 33.7234 9.40552 33.7234C9.40552 33.7234 12.8555 33.1998 16.2587 33.6486C19.6618 34.0974 24.1215 35.6587 27.9267 38.0615C31.4795 40.3147 36.5002 41.82 36.5002 41.82L38.3233 40.5672C35.7242 40.4924 32.9661 39.0526 32.9661 39.0526C36.4628 37.968 39.7444 39.0526 39.7444 39.0526L40.9037 37.8932C36.5376 36.0514 31.0775 38.2018 31.0775 38.2018L29.1889 36.977C35.4437 34.7331 41.5863 36.79 41.5863 36.79L42.409 35.6587C33.9571 32.8913 27.291 36.1075 27.291 36.1075L25.4491 35.1071C34.4713 31.5824 42.9887 34.9295 42.9887 34.9295V34.9482ZM37.6127 25.3463V27.1881H30.6942V25.3463H37.6127ZM26.9824 17.2216C25.7296 17.5489 23.841 18.596 23.841 18.596C23.1305 18.0537 20.8118 17.2216 20.8118 17.2216C24.215 15.2115 26.9731 17.2216 26.9731 17.2216H26.9824ZM23.9065 20.1761C29.432 23.2427 29.2544 24 29.2544 24H18.6989C19.8114 22.3638 23.9065 20.1761 23.9065 20.1761ZM17.231 32.321C17.231 32.321 13.3042 31.6852 10.4807 32.1527V28.6373H17.231V32.321ZM17.231 27.1881H10.4807V25.3463H17.231V27.1881ZM16.9038 24H11.1445C11.1445 24 12.5656 22.3451 14.9497 20.9521C17.3338 19.559 19.157 18.2594 19.157 18.2594C19.157 18.2594 21.6346 18.9232 22.3919 19.4375C22.3919 19.4375 17.4834 22.1207 16.9131 23.9906L16.9038 24ZM29.2544 32.6015C28.0763 32.6482 26.9824 33.097 26.9824 33.097V29.3666C26.9824 29.3666 26.9077 26.5991 23.9719 26.5524C21.0269 26.5056 20.9147 29.3385 20.9147 29.3385V33.097L18.6989 32.4612V25.3557H29.2544V32.6108V32.6015ZM28.3288 21.1297C28.3288 21.1297 26.4121 19.746 25.3743 19.3907C25.3743 19.3907 27.1694 18.3997 28.7027 18.2594L33.2092 21.1297C33.2092 21.1297 36.1168 23.0744 36.6778 24H31.0214C31.0214 24 31.6011 23.813 28.3194 21.1297H28.3288ZM30.6942 32.321V28.5438H37.6127V32.162C37.6127 32.162 32.9848 31.7133 30.6942 32.3303V32.321Z" fill="#A51D31"/>
<path d="M8.30229 16.3335C8.30229 16.3335 10.0974 16.2587 10.1441 14.342C10.1441 14.342 10.2657 16.0997 11.9112 16.3335C11.9112 16.3335 10.1628 16.5204 10.1067 18.409C10.1067 18.409 10.2376 16.5298 8.30229 16.3335Z" fill="#A51D31"/>
<path d="M13.3323 10.7986L15.2209 10.1815L15.8099 8.18075L16.4082 10.1348L18.1753 10.7986L16.3521 11.4344L15.8566 13.4445L15.2209 11.3409L13.3323 10.7986Z" fill="#A51D31"/>
<path d="M20.8212 7.56369L23.1118 7.02142L23.9065 4.63732L24.8321 6.99337L27.104 7.56369L25.1874 8.95675L25.9447 11.4157L23.9626 9.94779L22.0927 11.4157L22.8313 8.9287L20.8212 7.56369Z" fill="#A51D31"/>
<path d="M31.1336 11.0136H29.3946V12.7526H31.1336V11.0136Z" fill="#A51D31"/>
<path d="M34.5461 6.5259H32.9474V8.12465H34.5461V6.5259Z" fill="#A51D31"/>
<path d="M38.1831 9.60186H36.1636V11.6213H38.1831V9.60186Z" fill="#A51D31"/>
<path d="M41.5956 12.1356H39.9688V13.7624H41.5956V12.1356Z" fill="#A51D31"/>
<path d="M36.0514 14.2392H33.3027V16.9879H36.0514V14.2392Z" fill="#A51D31"/>
<path d="M42.4744 15.9221H39.1834V19.2131H42.4744V15.9221Z" fill="#A51D31"/>
<path d="M38.0054 18.783H36.7526V20.0358H38.0054V18.783Z" fill="#A51D31"/>
<path d="M43.7273 21.2045H41.8761V23.0557H43.7273V21.2045Z" fill="#A51D31"/>
<path d="M108.21 37V27.06H110.142V35.306H115.21V37H108.21Z" fill="#A51D31"/>
<path d="M101.87 37.07C101.142 37.07 100.479 36.93 99.8817 36.65C99.2937 36.37 98.785 35.992 98.3557 35.516C97.9357 35.0307 97.609 34.4893 97.3757 33.892C97.1424 33.2853 97.0257 32.6647 97.0257 32.03C97.0257 31.3673 97.147 30.7373 97.3897 30.14C97.6417 29.5333 97.9824 28.9967 98.4117 28.53C98.8504 28.054 99.3637 27.6807 99.9517 27.41C100.549 27.13 101.202 26.99 101.912 26.99C102.63 26.99 103.284 27.1347 103.872 27.424C104.469 27.7133 104.978 28.1007 105.398 28.586C105.818 29.0713 106.144 29.6127 106.378 30.21C106.611 30.8073 106.728 31.4233 106.728 32.058C106.728 32.7113 106.606 33.3413 106.364 33.948C106.121 34.5453 105.78 35.082 105.342 35.558C104.912 36.0247 104.399 36.3933 103.802 36.664C103.214 36.9347 102.57 37.07 101.87 37.07ZM98.9857 32.03C98.9857 32.4593 99.051 32.8747 99.1817 33.276C99.3124 33.6773 99.499 34.0367 99.7417 34.354C99.9937 34.662 100.297 34.9093 100.652 35.096C101.016 35.2733 101.426 35.362 101.884 35.362C102.35 35.362 102.766 35.2687 103.13 35.082C103.494 34.886 103.797 34.6293 104.04 34.312C104.282 33.9853 104.464 33.626 104.586 33.234C104.716 32.8327 104.782 32.4313 104.782 32.03C104.782 31.6007 104.712 31.19 104.572 30.798C104.441 30.3967 104.25 30.042 103.998 29.734C103.755 29.4167 103.452 29.1693 103.088 28.992C102.733 28.8053 102.332 28.712 101.884 28.712C101.408 28.712 100.988 28.81 100.624 29.006C100.269 29.1927 99.9704 29.4447 99.7277 29.762C99.485 30.0793 99.2984 30.434 99.1677 30.826C99.0464 31.218 98.9857 31.6193 98.9857 32.03Z" fill="#A51D31"/>
<path d="M91.2877 37.07C90.5597 37.07 89.897 36.93 89.2997 36.65C88.7117 36.37 88.203 35.992 87.7737 35.516C87.3537 35.0307 87.027 34.4893 86.7937 33.892C86.5603 33.2853 86.4437 32.6647 86.4437 32.03C86.4437 31.3673 86.565 30.7373 86.8077 30.14C87.0597 29.5333 87.4003 28.9967 87.8297 28.53C88.2683 28.054 88.7817 27.6807 89.3697 27.41C89.967 27.13 90.6203 26.99 91.3297 26.99C92.0483 26.99 92.7017 27.1347 93.2897 27.424C93.887 27.7133 94.3957 28.1007 94.8157 28.586C95.2357 29.0713 95.5623 29.6127 95.7957 30.21C96.029 30.8073 96.1457 31.4233 96.1457 32.058C96.1457 32.7113 96.0243 33.3413 95.7817 33.948C95.539 34.5453 95.1983 35.082 94.7597 35.558C94.3303 36.0247 93.817 36.3933 93.2197 36.664C92.6317 36.9347 91.9877 37.07 91.2877 37.07ZM88.4037 32.03C88.4037 32.4593 88.469 32.8747 88.5997 33.276C88.7303 33.6773 88.917 34.0367 89.1597 34.354C89.4117 34.662 89.715 34.9093 90.0697 35.096C90.4337 35.2733 90.8443 35.362 91.3017 35.362C91.7683 35.362 92.1837 35.2687 92.5477 35.082C92.9117 34.886 93.215 34.6293 93.4577 34.312C93.7003 33.9853 93.8823 33.626 94.0037 33.234C94.1343 32.8327 94.1997 32.4313 94.1997 32.03C94.1997 31.6007 94.1297 31.19 93.9897 30.798C93.859 30.3967 93.6677 30.042 93.4157 29.734C93.173 29.4167 92.8697 29.1693 92.5057 28.992C92.151 28.8053 91.7497 28.712 91.3017 28.712C90.8257 28.712 90.4057 28.81 90.0417 29.006C89.687 29.1927 89.3883 29.4447 89.1457 29.762C88.903 30.0793 88.7163 30.434 88.5857 30.826C88.4643 31.218 88.4037 31.6193 88.4037 32.03Z" fill="#A51D31"/>
<path d="M84.972 27.06V37H83.054V32.758H78.546V37H76.614V27.06H78.546V31.078H83.054V27.06H84.972Z" fill="#A51D31"/>
<path d="M66.4144 31.96C66.4144 31.3533 66.5217 30.7607 66.7364 30.182C66.9604 29.594 67.2824 29.062 67.7024 28.586C68.1224 28.1007 68.6357 27.718 69.2424 27.438C69.849 27.1487 70.5397 27.004 71.3144 27.004C72.229 27.004 73.0177 27.2047 73.6804 27.606C74.3524 28.0073 74.8517 28.53 75.1784 29.174L73.6944 30.196C73.5264 29.8227 73.307 29.5287 73.0364 29.314C72.7657 29.09 72.4764 28.936 72.1684 28.852C71.8604 28.7587 71.557 28.712 71.2584 28.712C70.773 28.712 70.3484 28.81 69.9844 29.006C69.6297 29.202 69.331 29.4587 69.0884 29.776C68.8457 30.0933 68.6637 30.448 68.5424 30.84C68.4304 31.232 68.3744 31.624 68.3744 32.016C68.3744 32.4547 68.4444 32.8793 68.5844 33.29C68.7244 33.6913 68.9204 34.0507 69.1724 34.368C69.4337 34.676 69.7417 34.9233 70.0964 35.11C70.4604 35.2873 70.857 35.376 71.2864 35.376C71.5944 35.376 71.907 35.3247 72.2244 35.222C72.5417 35.1193 72.8357 34.956 73.1064 34.732C73.377 34.508 73.587 34.2187 73.7364 33.864L75.3184 34.774C75.1224 35.2687 74.8004 35.6887 74.3524 36.034C73.9137 36.3793 73.419 36.6407 72.8684 36.818C72.3177 36.9953 71.7717 37.084 71.2304 37.084C70.521 37.084 69.8724 36.9393 69.2844 36.65C68.6964 36.3513 68.1877 35.9593 67.7584 35.474C67.3384 34.9793 67.007 34.4287 66.7644 33.822C66.531 33.206 66.4144 32.5853 66.4144 31.96Z" fill="#A51D31"/>
<path d="M64.3525 29.664C64.2871 29.5987 64.1658 29.51 63.9885 29.398C63.8205 29.286 63.6105 29.1787 63.3585 29.076C63.1158 28.9733 62.8498 28.8847 62.5605 28.81C62.2711 28.726 61.9771 28.684 61.6785 28.684C61.1558 28.684 60.7591 28.782 60.4885 28.978C60.2271 29.174 60.0965 29.4493 60.0965 29.804C60.0965 30.0747 60.1805 30.2893 60.3485 30.448C60.5165 30.6067 60.7685 30.742 61.1045 30.854C61.4405 30.966 61.8605 31.0873 62.3645 31.218C63.0178 31.3767 63.5825 31.5727 64.0585 31.806C64.5438 32.03 64.9125 32.3287 65.1645 32.702C65.4258 33.066 65.5565 33.5513 65.5565 34.158C65.5565 34.69 65.4585 35.1473 65.2625 35.53C65.0665 35.9033 64.7958 36.2067 64.4505 36.44C64.1051 36.6733 63.7131 36.846 63.2745 36.958C62.8358 37.0607 62.3691 37.112 61.8745 37.112C61.3798 37.112 60.8851 37.0607 60.3905 36.958C59.8958 36.8553 59.4198 36.7107 58.9625 36.524C58.5051 36.328 58.0851 36.0947 57.7025 35.824L58.5565 34.158C58.6405 34.242 58.7898 34.354 59.0045 34.494C59.2191 34.6247 59.4805 34.76 59.7885 34.9C60.0965 35.0307 60.4325 35.1427 60.7965 35.236C61.1605 35.3293 61.5291 35.376 61.9025 35.376C62.4251 35.376 62.8218 35.2873 63.0925 35.11C63.3631 34.9327 63.4985 34.6807 63.4985 34.354C63.4985 34.0553 63.3911 33.822 63.1765 33.654C62.9618 33.486 62.6631 33.3413 62.2805 33.22C61.8978 33.0893 61.4451 32.9493 60.9225 32.8C60.2971 32.6227 59.7745 32.4267 59.3545 32.212C58.9345 31.988 58.6218 31.708 58.4165 31.372C58.2111 31.036 58.1085 30.616 58.1085 30.112C58.1085 29.4307 58.2671 28.8613 58.5845 28.404C58.9111 27.9373 59.3498 27.5873 59.9005 27.354C60.4511 27.1113 61.0625 26.99 61.7345 26.99C62.2011 26.99 62.6398 27.0413 63.0505 27.144C63.4705 27.2467 63.8625 27.382 64.2265 27.55C64.5905 27.718 64.9171 27.9 65.2065 28.096L64.3525 29.664Z" fill="#A51D31"/>
<path d="M167.311 19.306V21H160.409V11.06H167.185V12.754H162.341V15.148H166.527V16.716H162.341V19.306H167.311Z" fill="#A51D31"/>
<path d="M151.686 21V11.06H155.9C156.358 11.06 156.778 11.1533 157.16 11.34C157.543 11.5267 157.874 11.7787 158.154 12.096C158.444 12.4133 158.668 12.768 158.826 13.16C158.985 13.552 159.064 13.9533 159.064 14.364C159.064 14.924 158.934 15.456 158.672 15.96C158.411 16.464 158.052 16.8747 157.594 17.192C157.137 17.5093 156.596 17.668 155.97 17.668H153.618V21H151.686ZM153.618 15.974H155.858C156.092 15.974 156.302 15.9087 156.488 15.778C156.675 15.6473 156.824 15.4607 156.936 15.218C157.048 14.966 157.104 14.6813 157.104 14.364C157.104 14.0187 157.039 13.7247 156.908 13.482C156.787 13.2393 156.624 13.0573 156.418 12.936C156.222 12.8147 156.008 12.754 155.774 12.754H153.618V15.974Z" fill="#A51D31"/>
<path d="M142.964 21V11.06H147.178C147.635 11.06 148.055 11.1533 148.438 11.34C148.82 11.5267 149.152 11.7787 149.432 12.096C149.721 12.4133 149.945 12.768 150.104 13.16C150.262 13.552 150.342 13.9533 150.342 14.364C150.342 14.924 150.211 15.456 149.95 15.96C149.688 16.464 149.329 16.8747 148.872 17.192C148.414 17.5093 147.873 17.668 147.248 17.668H144.896V21H142.964ZM144.896 15.974H147.136C147.369 15.974 147.579 15.9087 147.766 15.778C147.952 15.6473 148.102 15.4607 148.214 15.218C148.326 14.966 148.382 14.6813 148.382 14.364C148.382 14.0187 148.316 13.7247 148.186 13.482C148.064 13.2393 147.901 13.0573 147.696 12.936C147.5 12.8147 147.285 12.754 147.052 12.754H144.896V15.974Z" fill="#A51D31"/>
<path d="M141.457 19.306V21H134.555V11.06H141.331V12.754H136.487V15.148H140.673V16.716H136.487V19.306H141.457Z" fill="#A51D31"/>
<path d="M133.321 12.754H130.143V21H128.225V12.754H125.047V11.06H133.321V12.754Z" fill="#A51D31"/>
<path d="M123.224 13.664C123.158 13.5987 123.037 13.51 122.86 13.398C122.692 13.286 122.482 13.1787 122.23 13.076C121.987 12.9733 121.721 12.8847 121.432 12.81C121.142 12.726 120.848 12.684 120.55 12.684C120.027 12.684 119.63 12.782 119.36 12.978C119.098 13.174 118.968 13.4493 118.968 13.804C118.968 14.0747 119.052 14.2893 119.22 14.448C119.388 14.6067 119.64 14.742 119.976 14.854C120.312 14.966 120.732 15.0873 121.236 15.218C121.889 15.3767 122.454 15.5727 122.93 15.806C123.415 16.03 123.784 16.3287 124.036 16.702C124.297 17.066 124.428 17.5513 124.428 18.158C124.428 18.69 124.33 19.1473 124.134 19.53C123.938 19.9033 123.667 20.2067 123.322 20.44C122.976 20.6733 122.584 20.846 122.146 20.958C121.707 21.0607 121.24 21.112 120.746 21.112C120.251 21.112 119.756 21.0607 119.262 20.958C118.767 20.8553 118.291 20.7107 117.834 20.524C117.376 20.328 116.956 20.0947 116.574 19.824L117.428 18.158C117.512 18.242 117.661 18.354 117.876 18.494C118.09 18.6247 118.352 18.76 118.66 18.9C118.968 19.0307 119.304 19.1427 119.668 19.236C120.032 19.3293 120.4 19.376 120.774 19.376C121.296 19.376 121.693 19.2873 121.964 19.11C122.234 18.9327 122.37 18.6807 122.37 18.354C122.37 18.0553 122.262 17.822 122.048 17.654C121.833 17.486 121.534 17.3413 121.152 17.22C120.769 17.0893 120.316 16.9493 119.794 16.8C119.168 16.6227 118.646 16.4267 118.226 16.212C117.806 15.988 117.493 15.708 117.288 15.372C117.082 15.036 116.98 14.616 116.98 14.112C116.98 13.4307 117.138 12.8613 117.456 12.404C117.782 11.9373 118.221 11.5873 118.772 11.354C119.322 11.1113 119.934 10.99 120.606 10.99C121.072 10.99 121.511 11.0413 121.922 11.144C122.342 11.2467 122.734 11.382 123.098 11.55C123.462 11.718 123.788 11.9 124.078 12.096L123.224 13.664Z" fill="#A51D31"/>
<path d="M105.193 14.616V21H103.261V11.06H104.801L109.939 17.612V11.074H111.871V21H110.261L105.193 14.616Z" fill="#A51D31"/>
<path d="M96.9205 21.07C96.1925 21.07 95.5298 20.93 94.9325 20.65C94.3445 20.37 93.8358 19.992 93.4065 19.516C92.9865 19.0307 92.6598 18.4893 92.4265 17.892C92.1931 17.2853 92.0765 16.6647 92.0765 16.03C92.0765 15.3673 92.1978 14.7373 92.4405 14.14C92.6925 13.5333 93.0331 12.9967 93.4625 12.53C93.9011 12.054 94.4145 11.6807 95.0025 11.41C95.5998 11.13 96.2531 10.99 96.9625 10.99C97.6811 10.99 98.3345 11.1347 98.9225 11.424C99.5198 11.7133 100.028 12.1007 100.448 12.586C100.868 13.0713 101.195 13.6127 101.428 14.21C101.662 14.8073 101.778 15.4233 101.778 16.058C101.778 16.7113 101.657 17.3413 101.414 17.948C101.172 18.5453 100.831 19.082 100.392 19.558C99.9631 20.0247 99.4498 20.3933 98.8525 20.664C98.2645 20.9347 97.6205 21.07 96.9205 21.07ZM94.0365 16.03C94.0365 16.4593 94.1018 16.8747 94.2325 17.276C94.3631 17.6773 94.5498 18.0367 94.7925 18.354C95.0445 18.662 95.3478 18.9093 95.7025 19.096C96.0665 19.2733 96.4771 19.362 96.9345 19.362C97.4011 19.362 97.8165 19.2687 98.1805 19.082C98.5445 18.886 98.8478 18.6293 99.0905 18.312C99.3331 17.9853 99.5151 17.626 99.6365 17.234C99.7671 16.8327 99.8325 16.4313 99.8325 16.03C99.8325 15.6007 99.7625 15.19 99.6225 14.798C99.4918 14.3967 99.3005 14.042 99.0485 13.734C98.8058 13.4167 98.5025 13.1693 98.1385 12.992C97.7838 12.8053 97.3825 12.712 96.9345 12.712C96.4585 12.712 96.0385 12.81 95.6745 13.006C95.3198 13.1927 95.0211 13.4447 94.7785 13.762C94.5358 14.0793 94.3491 14.434 94.2185 14.826C94.0971 15.218 94.0365 15.6193 94.0365 16.03Z" fill="#A51D31"/>
<path d="M82.6019 15.96C82.6019 15.3533 82.7092 14.7607 82.9239 14.182C83.1479 13.594 83.4699 13.062 83.8899 12.586C84.3099 12.1007 84.8232 11.718 85.4299 11.438C86.0365 11.1487 86.7272 11.004 87.5019 11.004C88.4165 11.004 89.2052 11.2047 89.8679 11.606C90.5399 12.0073 91.0392 12.53 91.3659 13.174L89.8819 14.196C89.7139 13.8227 89.4945 13.5287 89.2239 13.314C88.9532 13.09 88.6639 12.936 88.3559 12.852C88.0479 12.7587 87.7445 12.712 87.4459 12.712C86.9605 12.712 86.5359 12.81 86.1719 13.006C85.8172 13.202 85.5185 13.4587 85.2759 13.776C85.0332 14.0933 84.8512 14.448 84.7299 14.84C84.6179 15.232 84.5619 15.624 84.5619 16.016C84.5619 16.4547 84.6319 16.8793 84.7719 17.29C84.9119 17.6913 85.1079 18.0507 85.3599 18.368C85.6212 18.676 85.9292 18.9233 86.2839 19.11C86.6479 19.2873 87.0445 19.376 87.4739 19.376C87.7819 19.376 88.0945 19.3247 88.4119 19.222C88.7292 19.1193 89.0232 18.956 89.2939 18.732C89.5645 18.508 89.7745 18.2187 89.9239 17.864L91.5059 18.774C91.3099 19.2687 90.9879 19.6887 90.5399 20.034C90.1012 20.3793 89.6065 20.6407 89.0559 20.818C88.5052 20.9953 87.9592 21.084 87.4179 21.084C86.7085 21.084 86.0599 20.9393 85.4719 20.65C84.8839 20.3513 84.3752 19.9593 83.9459 19.474C83.5259 18.9793 83.1945 18.4287 82.9519 17.822C82.7185 17.206 82.6019 16.5853 82.6019 15.96Z" fill="#A51D31"/>
<path d="M79.198 21V11.06H81.13V21H79.198Z" fill="#A51D31"/>
<path d="M71.0222 21V11.06H72.9542V19.306H78.0222V21H71.0222Z" fill="#A51D31"/>
<path d="M67.0164 21V11.06H68.9484V21H67.0164Z" fill="#A51D31"/>
<path d="M64.3525 13.664C64.2871 13.5987 64.1658 13.51 63.9885 13.398C63.8205 13.286 63.6105 13.1787 63.3585 13.076C63.1158 12.9733 62.8498 12.8847 62.5605 12.81C62.2711 12.726 61.9771 12.684 61.6785 12.684C61.1558 12.684 60.7591 12.782 60.4885 12.978C60.2271 13.174 60.0965 13.4493 60.0965 13.804C60.0965 14.0747 60.1805 14.2893 60.3485 14.448C60.5165 14.6067 60.7685 14.742 61.1045 14.854C61.4405 14.966 61.8605 15.0873 62.3645 15.218C63.0178 15.3767 63.5825 15.5727 64.0585 15.806C64.5438 16.03 64.9125 16.3287 65.1645 16.702C65.4258 17.066 65.5565 17.5513 65.5565 18.158C65.5565 18.69 65.4585 19.1473 65.2625 19.53C65.0665 19.9033 64.7958 20.2067 64.4505 20.44C64.1051 20.6733 63.7131 20.846 63.2745 20.958C62.8358 21.0607 62.3691 21.112 61.8745 21.112C61.3798 21.112 60.8851 21.0607 60.3905 20.958C59.8958 20.8553 59.4198 20.7107 58.9625 20.524C58.5051 20.328 58.0851 20.0947 57.7025 19.824L58.5565 18.158C58.6405 18.242 58.7898 18.354 59.0045 18.494C59.2191 18.6247 59.4805 18.76 59.7885 18.9C60.0965 19.0307 60.4325 19.1427 60.7965 19.236C61.1605 19.3293 61.5291 19.376 61.9025 19.376C62.4251 19.376 62.8218 19.2873 63.0925 19.11C63.3631 18.9327 63.4985 18.6807 63.4985 18.354C63.4985 18.0553 63.3911 17.822 63.1765 17.654C62.9618 17.486 62.6631 17.3413 62.2805 17.22C61.8978 17.0893 61.4451 16.9493 60.9225 16.8C60.2971 16.6227 59.7745 16.4267 59.3545 16.212C58.9345 15.988 58.6218 15.708 58.4165 15.372C58.2111 15.036 58.1085 14.616 58.1085 14.112C58.1085 13.4307 58.2671 12.8613 58.5845 12.404C58.9111 11.9373 59.3498 11.5873 59.9005 11.354C60.4511 11.1113 61.0625 10.99 61.7345 10.99C62.2011 10.99 62.6398 11.0413 63.0505 11.144C63.4705 11.2467 63.8625 11.382 64.2265 11.55C64.5905 11.718 64.9171 11.9 65.2065 12.096L64.3525 13.664Z" fill="#A51D31"/>
</svg>
