<svg width="314" height="314" viewBox="0 0 314 314" fill="none" xmlns="http://www.w3.org/2000/svg">
<path d="M279.014 233.461C279.383 233.461 279.752 233.461 280.121 233.46C281.114 233.46 282.107 233.461 283.1 233.463C284.141 233.464 285.182 233.464 286.223 233.464C287.967 233.464 289.712 233.465 291.457 233.468C293.476 233.47 295.495 233.471 297.514 233.471C299.458 233.471 301.402 233.472 303.347 233.473C304.174 233.474 305.001 233.474 305.829 233.474C306.8 233.475 307.771 233.476 308.742 233.477C309.1 233.478 309.457 233.478 309.814 233.478C310.3 233.478 310.785 233.479 311.271 233.48C311.414 233.48 311.557 233.48 311.705 233.479C312.674 233.483 312.674 233.483 312.864 233.674C312.881 233.913 312.886 234.154 312.886 234.394C312.887 234.627 312.887 234.627 312.888 234.864C312.887 235.036 312.887 235.208 312.886 235.385C312.887 235.564 312.887 235.744 312.887 235.929C312.888 236.527 312.888 237.124 312.887 237.721C312.887 238.135 312.887 238.548 312.888 238.961C312.888 239.828 312.887 240.695 312.887 241.562C312.886 242.676 312.886 243.79 312.887 244.905C312.888 245.758 312.888 246.612 312.887 247.465C312.887 247.876 312.887 248.287 312.888 248.698C312.888 249.271 312.887 249.844 312.886 250.418C312.887 250.675 312.887 250.675 312.888 250.938C312.887 251.093 312.887 251.248 312.886 251.408C312.886 251.544 312.886 251.68 312.886 251.82C312.864 252.128 312.864 252.128 312.693 252.299C312.256 252.318 311.823 252.326 311.385 252.326C311.246 252.327 311.107 252.328 310.964 252.328C310.496 252.331 310.027 252.332 309.559 252.334C309.224 252.335 308.89 252.337 308.555 252.339C307.833 252.343 307.11 252.346 306.388 252.349C305.246 252.354 304.103 252.362 302.961 252.37C302.768 252.371 302.576 252.372 302.377 252.374C301.983 252.376 301.589 252.379 301.195 252.382C298.535 252.4 295.874 252.417 293.213 252.427C291.42 252.434 289.627 252.445 287.834 252.46C286.885 252.467 285.936 252.473 284.987 252.475C284.093 252.476 283.2 252.482 282.306 252.492C281.978 252.495 281.651 252.496 281.323 252.495C279.186 252.422 279.186 252.422 277.368 253.397C276.904 253.973 276.679 254.456 276.553 255.183C276.659 255.842 276.928 256.246 277.306 256.788C277.493 257.084 277.493 257.084 277.493 257.426C277.606 257.426 277.719 257.426 277.835 257.426C277.835 257.538 277.835 257.651 277.835 257.767C277.972 257.764 278.11 257.76 278.251 257.757C278.689 257.767 278.689 257.767 278.86 257.938C279.24 258.021 279.622 258.095 280.005 258.165C280.126 258.187 280.247 258.209 280.372 258.232C281.689 258.471 283.007 258.7 284.326 258.93C287.589 259.5 290.841 260.091 294.068 260.843C294.252 260.886 294.435 260.929 294.625 260.973C299.906 262.214 299.906 262.214 302.099 263.577C302.099 263.69 302.099 263.803 302.099 263.919C302.246 263.959 302.393 263.998 302.544 264.039C303.194 264.287 303.679 264.639 304.214 265.072C304.409 265.227 304.604 265.382 304.8 265.537C304.893 265.612 304.987 265.686 305.083 265.763C305.42 266.028 305.767 266.276 306.115 266.525C306.703 266.963 307.114 267.444 307.567 268.02C307.699 268.15 307.831 268.279 307.966 268.413C309.285 269.749 310.332 271.293 311.156 272.975C311.243 273.145 311.331 273.315 311.421 273.49C313.457 277.608 313.595 282.522 312.138 286.848C311.118 289.496 309.703 291.93 307.738 293.993C307.625 293.993 307.512 293.993 307.396 293.993C307.396 294.106 307.396 294.219 307.396 294.335C307.284 294.335 307.171 294.335 307.055 294.335C307.021 294.429 306.987 294.523 306.952 294.62C306.613 295.184 306.129 295.533 305.613 295.926C305.505 296.009 305.398 296.092 305.288 296.177C304.373 296.875 303.431 297.509 302.441 298.094C302.304 298.179 302.168 298.265 302.027 298.353C299.984 299.561 297.562 300.274 295.264 300.828C295.146 300.859 295.028 300.89 294.906 300.921C293.544 301.239 292.181 301.219 290.791 301.216C290.511 301.216 290.232 301.217 289.952 301.218C289.187 301.22 288.422 301.22 287.657 301.22C286.831 301.22 286.005 301.221 285.178 301.223C283.56 301.226 281.942 301.227 280.324 301.227C279.008 301.227 277.692 301.228 276.376 301.229C272.64 301.232 268.904 301.234 265.168 301.233C264.966 301.233 264.765 301.233 264.558 301.233C264.255 301.233 264.255 301.233 263.947 301.233C260.684 301.233 257.421 301.236 254.159 301.241C250.804 301.246 247.45 301.248 244.095 301.248C242.214 301.248 240.332 301.249 238.451 301.253C236.848 301.256 235.245 301.257 233.643 301.254C232.826 301.253 232.01 301.253 231.193 301.256C224.977 301.277 224.976 301.277 222.129 300.486C221.765 300.397 221.401 300.307 221.036 300.218C220.727 300.132 220.418 300.043 220.111 299.952C219.942 299.903 219.773 299.853 219.599 299.802C216.854 298.961 214.268 297.801 211.876 296.215C211.671 296.098 211.465 295.984 211.257 295.873C209.167 294.634 207.252 292.993 205.554 291.259C205.415 291.124 205.276 290.988 205.134 290.849C204.643 290.346 204.189 289.822 203.738 289.283C203.657 289.187 203.575 289.091 203.492 288.991C202.307 287.585 202.307 287.585 202.307 287.158C202.195 287.158 202.082 287.158 201.966 287.158C201.966 287.34 201.966 287.521 201.967 287.708C201.97 289.416 201.973 291.123 201.974 292.831C201.975 293.708 201.977 294.586 201.979 295.464C201.98 296.311 201.981 297.157 201.982 298.004C201.982 298.327 201.983 298.651 201.984 298.975C201.985 299.426 201.985 299.878 201.985 300.33C201.986 300.465 201.986 300.6 201.987 300.74C201.985 301.663 201.985 301.663 201.795 301.853C201.471 301.87 201.147 301.875 200.823 301.875C200.612 301.876 200.401 301.876 200.183 301.877C199.947 301.876 199.711 301.876 199.475 301.876C199.228 301.876 198.981 301.876 198.734 301.876C198.062 301.877 197.389 301.877 196.716 301.876C196.014 301.876 195.311 301.876 194.609 301.877C193.429 301.877 192.249 301.877 191.069 301.876C189.703 301.875 188.337 301.875 186.971 301.876C185.801 301.877 184.63 301.877 183.459 301.876C182.759 301.876 182.059 301.876 181.359 301.877C180.701 301.877 180.042 301.877 179.384 301.876C179.142 301.876 178.9 301.876 178.658 301.876C178.328 301.877 177.999 301.876 177.669 301.875C177.485 301.875 177.3 301.875 177.11 301.875C176.676 301.853 176.676 301.853 176.334 301.683C176.278 294.296 176.221 286.909 176.163 279.298C175.186 280.618 175.186 280.618 174.967 281.348C174.854 281.348 174.742 281.348 174.625 281.348C174.558 281.53 174.558 281.53 174.489 281.715C174.272 282.231 174.014 282.693 173.728 283.175C173.621 283.356 173.514 283.537 173.404 283.723C173.3 283.898 173.195 284.073 173.088 284.253C173.004 284.393 172.921 284.533 172.835 284.676C172.578 285.105 172.32 285.534 172.062 285.962C171.816 286.371 171.571 286.781 171.325 287.19C170.932 287.846 170.538 288.502 170.144 289.157C170.018 289.367 169.892 289.576 169.766 289.785C169.704 289.889 169.641 289.993 169.576 290.101C169.229 290.679 168.886 291.259 168.546 291.841C167.276 294.017 167.276 294.017 166.744 294.794C166.277 295.476 165.871 296.187 165.466 296.907C164.925 297.864 164.362 298.807 163.796 299.75C163.707 299.899 163.617 300.048 163.525 300.202C163.189 300.759 162.854 301.312 162.493 301.853C162.102 301.917 162.102 301.917 161.602 301.915C161.413 301.916 161.225 301.917 161.03 301.917C160.822 301.915 160.614 301.914 160.4 301.912C160.181 301.912 159.963 301.912 159.738 301.912C159.138 301.912 158.538 301.909 157.938 301.905C157.312 301.902 156.685 301.902 156.059 301.901C154.872 301.9 153.686 301.896 152.499 301.89C151.148 301.885 149.797 301.882 148.446 301.879C145.667 301.874 142.888 301.865 140.108 301.853C140.028 301.704 139.948 301.554 139.865 301.4C139.759 301.202 139.653 301.004 139.543 300.8C139.386 300.507 139.386 300.507 139.225 300.207C138.72 299.279 138.182 298.37 137.642 297.461C137.523 297.258 137.523 297.258 137.402 297.051C137.331 296.931 137.259 296.811 137.186 296.687C137.033 296.385 137.033 296.385 137.033 296.044C136.863 295.987 136.694 295.931 136.52 295.873C136.43 295.574 136.43 295.574 136.349 295.189C136.209 294.898 136.061 294.611 135.907 294.328C135.816 294.16 135.725 293.992 135.631 293.818C135.484 293.551 135.484 293.551 135.335 293.278C135.185 293.002 135.185 293.002 135.032 292.722C134.308 291.399 133.555 290.095 132.783 288.8C132.391 288.141 132.023 287.47 131.66 286.794C131.322 286.171 130.973 285.554 130.625 284.937C129.829 283.526 129.041 282.115 128.318 280.665C128.317 280.773 128.317 280.881 128.316 280.993C128.298 283.621 128.28 286.249 128.26 288.877C128.251 290.148 128.241 291.419 128.233 292.69C128.226 293.797 128.218 294.905 128.209 296.012C128.205 296.599 128.2 297.185 128.197 297.772C128.193 298.426 128.188 299.08 128.182 299.734C128.181 299.93 128.18 300.126 128.179 300.328C128.178 300.505 128.176 300.682 128.174 300.864C128.172 301.096 128.172 301.096 128.171 301.333C128.147 301.683 128.147 301.683 127.976 301.853C127.659 301.871 127.341 301.876 127.024 301.876C126.817 301.877 126.61 301.878 126.397 301.879C126.166 301.878 125.935 301.878 125.703 301.878C125.462 301.879 125.22 301.879 124.978 301.88C124.319 301.882 123.66 301.882 123.001 301.882C122.452 301.882 121.903 301.883 121.354 301.883C120.059 301.885 118.764 301.885 117.469 301.885C116.131 301.885 114.794 301.887 113.456 301.89C112.309 301.892 111.162 301.893 110.015 301.893C109.329 301.893 108.644 301.893 107.958 301.895C107.313 301.896 106.668 301.896 106.024 301.895C105.787 301.895 105.549 301.895 105.312 301.897C104.99 301.898 104.667 301.897 104.344 301.896C104.073 301.896 104.073 301.896 103.796 301.896C103.37 301.853 103.37 301.853 103.028 301.512C102.987 301.088 102.987 301.088 102.989 300.547C102.989 300.346 102.99 300.144 102.99 299.936C102.991 299.717 102.993 299.498 102.995 299.273C102.996 298.938 102.996 298.938 102.996 298.596C102.998 298.002 103.001 297.409 103.005 296.815C103.008 296.209 103.01 295.603 103.012 294.997C103.015 293.808 103.021 292.619 103.028 291.43C102.146 291.307 101.298 291.238 100.406 291.237C100.288 291.237 100.171 291.236 100.049 291.236C99.6638 291.235 99.2782 291.236 98.8925 291.236C98.6186 291.236 98.3447 291.236 98.0708 291.236C97.4957 291.236 96.9206 291.236 96.3455 291.237C95.6237 291.238 94.9019 291.237 94.1801 291.236C91.4734 291.233 88.7666 291.241 86.0608 291.314C85.8609 291.318 85.6611 291.321 85.4552 291.325C85.2747 291.331 85.0942 291.337 84.9082 291.343C84.6734 291.35 84.6734 291.35 84.4339 291.356C84.3109 291.381 84.1878 291.405 84.061 291.43C83.9482 291.599 83.8354 291.768 83.7192 291.943C83.6065 291.943 83.4937 291.943 83.3775 291.943C83.3636 292.064 83.3497 292.184 83.3354 292.309C83.1756 292.914 82.8944 293.275 82.5124 293.769C82.0138 294.334 82.0138 294.334 81.8396 295.018C81.7268 295.018 81.614 295.018 81.4978 295.018C81.4538 295.14 81.4097 295.262 81.3643 295.388C81.1425 295.904 80.875 296.327 80.558 296.791C80.4367 296.97 80.3153 297.149 80.1902 297.334C80.1253 297.429 80.0603 297.525 79.9934 297.623C79.6339 298.152 79.2791 298.684 78.924 299.216C78.8579 299.314 78.7919 299.412 78.7238 299.514C78.0947 300.455 77.4897 301.41 76.8842 302.366C76.4821 303 76.0797 303.633 75.6774 304.267C75.5272 304.504 75.5272 304.504 75.374 304.746C74.8294 305.603 74.2768 306.453 73.7113 307.297C73.3139 307.892 72.9258 308.493 72.5375 309.094C72.4563 309.22 72.3751 309.345 72.2915 309.474C71.8281 310.19 71.3739 310.911 70.9249 311.636C70.5182 312.28 70.1081 312.8 69.5365 313.302C68.9053 312.953 68.291 312.593 67.6922 312.191C67.5579 312.101 67.4236 312.011 67.2852 311.918C67.1259 311.811 66.9666 311.704 66.8025 311.593C66.0435 311.084 65.2842 310.574 64.5244 310.065C64.2897 309.908 64.0551 309.75 63.8206 309.593C63.4786 309.363 63.1361 309.133 62.7936 308.904C62.6889 308.833 62.5842 308.763 62.4764 308.69C62.0401 308.399 61.6639 308.172 61.1636 308.005C61.1636 307.892 61.1636 307.779 61.1636 307.663C61.0504 307.624 60.9371 307.584 60.8205 307.544C60.159 307.256 59.5715 306.885 58.9635 306.499C58.847 306.426 58.7305 306.354 58.6104 306.279C58.0342 305.916 57.4722 305.543 56.9224 305.141C56.4104 304.742 56.4104 304.742 55.8664 304.587C55.8664 304.475 55.8664 304.362 55.8664 304.246C55.7113 304.2 55.5563 304.154 55.3965 304.107C54.884 303.92 54.5783 303.725 54.1576 303.391C53.9885 303.335 53.8193 303.279 53.645 303.22C53.4741 303.05 53.3033 302.879 53.1324 302.708C52.1412 301.795 51.0549 301.926 49.7633 301.931C49.5241 301.93 49.2849 301.928 49.0457 301.926C48.3983 301.921 47.7509 301.92 47.1035 301.921C46.4261 301.92 45.7488 301.916 45.0715 301.912C43.7898 301.905 42.5081 301.901 41.2263 301.899C39.7668 301.896 38.3072 301.89 36.8476 301.883C33.846 301.869 30.8443 301.86 27.8427 301.853C27.6348 301.438 27.6506 301.174 27.6508 300.709C27.6504 300.539 27.6501 300.368 27.6498 300.193C27.6503 300.004 27.6508 299.816 27.6513 299.622C27.651 299.323 27.6511 299.323 27.6508 299.018C27.6506 298.464 27.6511 297.909 27.652 297.355C27.6527 296.758 27.6525 296.16 27.6523 295.563C27.6522 294.527 27.6528 293.492 27.6537 292.457C27.6551 290.96 27.6556 289.462 27.6558 287.965C27.6562 285.537 27.6573 283.108 27.6589 280.679C27.6605 278.319 27.6617 275.96 27.6624 273.6C27.6625 273.455 27.6625 273.309 27.6626 273.159C27.6628 272.43 27.663 271.701 27.6632 270.972C27.665 264.918 27.668 258.865 27.6718 252.812C27.466 252.814 27.466 252.814 27.256 252.815C23.922 252.84 20.5879 252.865 17.2539 252.888C15.6416 252.899 14.0293 252.91 12.417 252.923C11.0122 252.933 9.60748 252.944 8.20272 252.953C7.45844 252.958 6.71417 252.963 5.9699 252.969C5.27019 252.975 4.57048 252.98 3.87076 252.984C3.61319 252.986 3.35562 252.988 3.09806 252.99C2.74793 252.993 2.39778 252.995 2.04765 252.997C1.75302 252.999 1.75302 252.999 1.45244 253.001C1.01511 252.983 1.01511 252.983 0.844234 252.812C0.827546 252.57 0.822655 252.328 0.822541 252.085C0.822059 251.929 0.821577 251.772 0.821081 251.611C0.821427 251.437 0.821768 251.264 0.822124 251.086C0.821825 250.904 0.821536 250.723 0.821227 250.536C0.820472 249.933 0.820964 249.33 0.82154 248.727C0.821425 248.31 0.821254 247.893 0.821039 247.476C0.820787 246.601 0.82116 245.726 0.821957 244.851C0.822931 243.726 0.822376 242.602 0.821352 241.477C0.820736 240.616 0.82093 239.754 0.821373 238.893C0.821487 238.478 0.821331 238.063 0.820935 237.649C0.820504 237.07 0.821169 236.491 0.822124 235.913C0.821778 235.74 0.821437 235.566 0.821081 235.388C0.821563 235.231 0.822045 235.074 0.822541 234.913C0.822606 234.776 0.822662 234.639 0.822729 234.498C0.844232 234.186 0.844234 234.186 1.01511 234.016C1.4389 233.998 1.85799 233.991 2.28191 233.991C2.41679 233.991 2.55166 233.99 2.69062 233.99C3.14841 233.988 3.6062 233.988 4.064 233.987C4.39318 233.986 4.72236 233.986 5.05154 233.984C5.96066 233.982 6.86979 233.98 7.77891 233.979C8.75759 233.977 9.73625 233.974 10.7149 233.972C12.6339 233.967 14.553 233.963 16.472 233.959C18.0309 233.956 19.5897 233.953 21.1486 233.95C21.37 233.949 21.5914 233.949 21.8195 233.948C22.2692 233.947 22.7189 233.946 23.1686 233.945C27.2703 233.936 31.372 233.927 35.4738 233.92C39.2215 233.912 42.9692 233.904 46.7169 233.895C50.9235 233.886 55.13 233.876 59.3366 233.868C59.7847 233.867 60.2328 233.866 60.6809 233.865C60.9013 233.864 61.1218 233.864 61.349 233.864C62.907 233.86 64.465 233.857 66.023 233.853C67.9202 233.849 69.8175 233.845 71.7147 233.841C72.6837 233.84 73.6527 233.838 74.6218 233.835C75.5073 233.833 76.3929 233.831 77.2784 233.83C77.6003 233.83 77.9221 233.829 78.244 233.828C78.6785 233.826 79.113 233.826 79.5475 233.826C79.6751 233.825 79.8026 233.825 79.934 233.824C80.7948 233.825 80.7948 233.825 80.9852 234.016C81.0036 234.249 81.0103 234.483 81.0123 234.717C81.0148 234.944 81.0148 234.944 81.0173 235.175C81.0183 235.343 81.0193 235.51 81.0203 235.682C81.022 235.857 81.0237 236.032 81.0254 236.212C81.0309 236.794 81.0351 237.376 81.0393 237.957C81.0428 238.359 81.0464 238.761 81.05 239.163C81.0595 240.224 81.0679 241.284 81.0762 242.345C81.0847 243.426 81.0943 244.507 81.1037 245.588C81.1221 247.711 81.1394 249.834 81.1561 251.958C81.2381 251.828 81.3201 251.699 81.4046 251.566C81.5122 251.396 81.6198 251.227 81.7307 251.052C81.8374 250.884 81.944 250.716 82.0539 250.543C82.3763 250.041 82.712 249.55 83.0571 249.063C83.7538 248.065 84.423 247.051 85.0863 246.03C85.1847 245.879 85.2832 245.727 85.3847 245.571C85.8613 244.85 85.8613 244.85 86.2824 244.097C86.3952 244.097 86.5079 244.097 86.6241 244.097C86.6679 243.976 86.7117 243.854 86.7569 243.729C86.9818 243.206 87.255 242.776 87.576 242.306C87.7591 242.036 87.7591 242.036 87.9459 241.761C88.0416 241.62 88.0416 241.62 88.1393 241.477C88.4559 241.011 88.7672 240.542 89.0791 240.073C89.4712 239.484 89.8636 238.896 90.257 238.309C90.832 237.449 91.4057 236.59 91.958 235.716C92.0735 235.535 92.0735 235.535 92.1914 235.35C92.3268 235.138 92.4602 234.923 92.591 234.708C93.0143 234.047 93.0143 234.047 93.4787 233.906C94.1115 233.827 94.739 233.814 95.3758 233.809C95.5165 233.807 95.6572 233.806 95.8022 233.804C96.2733 233.799 96.7445 233.794 97.2157 233.79C97.5536 233.786 97.8916 233.783 98.2296 233.779C101.31 233.747 104.392 233.73 107.473 233.716C109.75 233.705 112.027 233.687 114.304 233.66C115.905 233.642 117.507 233.632 119.109 233.629C120.065 233.626 121.022 233.62 121.978 233.605C122.878 233.59 123.777 233.586 124.677 233.59C125.007 233.59 125.337 233.586 125.667 233.578C128.092 233.52 128.092 233.52 128.752 234.06C129.265 234.66 129.557 235.338 129.856 236.066C130.023 236.374 130.193 236.681 130.368 236.985C130.646 237.501 130.92 238.019 131.194 238.536C132.259 240.544 133.372 242.521 134.502 244.492C135.175 245.669 135.827 246.856 136.465 248.053C136.955 248.97 137.453 249.878 137.983 250.772C138.469 251.595 138.902 252.432 139.313 253.294C139.631 253.905 139.984 254.488 140.34 255.076C140.828 255.892 141.29 256.723 141.753 257.554C141.857 257.739 141.96 257.925 142.067 258.116C142.832 259.486 143.586 260.861 144.335 262.239C145.449 264.287 146.585 266.323 147.73 268.355C148.288 269.345 148.84 270.339 149.39 271.334C149.732 271.951 150.077 272.566 150.431 273.177C150.495 273.288 150.559 273.398 150.625 273.512C150.798 273.811 150.973 274.109 151.147 274.406C151.386 274.855 151.386 274.855 151.386 275.197C151.499 275.197 151.612 275.197 151.728 275.197C151.774 275.074 151.82 274.951 151.868 274.825C152.07 274.341 152.305 273.908 152.572 273.456C152.676 273.279 152.78 273.103 152.887 272.921C153.174 272.442 153.465 271.967 153.756 271.492C153.841 271.354 153.926 271.217 154.013 271.075C154.182 270.8 154.352 270.525 154.523 270.251C154.601 270.124 154.679 269.997 154.76 269.867C154.83 269.754 154.9 269.641 154.973 269.524C155.171 269.193 155.171 269.193 155.316 268.703C155.429 268.703 155.542 268.703 155.658 268.703C155.705 268.579 155.752 268.455 155.8 268.328C155.991 267.87 156.209 267.457 156.458 267.029C156.546 266.876 156.634 266.723 156.725 266.565C156.817 266.407 156.909 266.25 157.004 266.087C157.614 265.036 158.203 263.987 158.734 262.894C158.847 262.894 158.959 262.894 159.076 262.894C159.115 262.78 159.155 262.665 159.196 262.548C159.478 261.899 159.847 261.33 160.229 260.736C160.724 259.958 161.207 259.182 161.639 258.365C162.101 257.496 162.619 256.669 163.146 255.837C163.902 254.637 164.619 253.415 165.333 252.19C165.423 252.037 165.513 251.883 165.606 251.725C165.685 251.589 165.765 251.452 165.847 251.312C166.082 250.932 166.082 250.932 166.36 250.565C166.609 250.229 166.692 249.973 166.765 249.565C166.878 249.565 166.991 249.565 167.107 249.565C167.174 249.381 167.174 249.381 167.243 249.193C167.454 248.697 167.707 248.284 168.004 247.835C168.407 247.213 168.786 246.589 169.136 245.934C170.138 244.065 171.278 242.27 172.386 240.462C172.978 239.495 173.563 238.524 174.144 237.55C174.41 237.105 174.68 236.668 174.967 236.237C174.854 236.237 174.742 236.237 174.625 236.237C174.682 236.124 174.738 236.011 174.796 235.895C174.965 235.895 175.135 235.895 175.309 235.895C175.351 235.775 175.394 235.656 175.437 235.532C175.695 234.938 175.904 234.507 176.334 234.016C176.865 233.866 177.382 233.893 177.929 233.909C178.181 233.911 178.181 233.911 178.438 233.912C179.012 233.917 179.584 233.929 180.158 233.941C180.567 233.946 180.976 233.95 181.385 233.954C182.328 233.963 183.271 233.976 184.214 233.991C186.18 234.022 188.146 234.039 190.112 234.058C194.064 234.095 198.015 234.14 201.966 234.186C202.022 238.698 202.078 243.209 202.137 247.857C202.531 247.293 202.926 246.729 203.333 246.148C203.445 246.148 203.558 246.148 203.674 246.148C203.754 245.989 203.754 245.989 203.835 245.827C203.952 245.592 204.07 245.357 204.187 245.123C204.3 245.123 204.413 245.123 204.529 245.123C204.568 245.027 204.606 244.932 204.646 244.834C204.934 244.327 205.303 243.987 205.725 243.585C205.876 243.426 206.028 243.267 206.184 243.104C206.579 242.73 206.579 242.73 206.921 242.73C206.977 242.561 207.034 242.392 207.092 242.218C208.026 241.363 208.026 241.363 208.459 241.363C208.459 241.25 208.459 241.138 208.459 241.022C208.735 240.806 208.735 240.806 209.121 240.562C209.869 240.081 210.596 239.576 211.319 239.059C211.669 238.825 212.012 238.643 212.389 238.458C212.678 238.281 212.966 238.103 213.254 237.924C214.668 237.098 216.162 236.489 217.686 235.895C217.805 235.848 217.925 235.8 218.048 235.752C224.137 233.373 231.505 232.982 237.85 234.528C238.129 234.591 238.409 234.653 238.689 234.716C240.618 235.169 242.449 235.86 244.288 236.593C244.873 236.824 245.462 237.043 246.052 237.262C246.052 237.375 246.052 237.488 246.052 237.604C246.192 237.644 246.332 237.684 246.477 237.725C247.197 237.99 247.82 238.343 248.476 238.736C248.605 238.813 248.734 238.89 248.867 238.969C250.921 240.207 252.753 241.716 254.596 243.243C254.812 243.421 254.812 243.421 255.032 243.603C255.981 244.408 256.79 245.311 257.532 246.308C257.877 246.7 258.031 246.734 258.526 246.831C258.557 246.627 258.589 246.422 258.622 246.212C258.889 245.016 259.48 243.967 260.064 242.901C260.151 242.74 260.239 242.58 260.33 242.414C262.702 238.404 266.947 235.475 271.352 234.122C273.894 233.487 276.412 233.454 279.014 233.461ZM54.3285 252.983C54.3118 253.501 54.3063 254.016 54.308 254.534C54.3078 254.782 54.3078 254.782 54.3075 255.034C54.3072 255.591 54.3082 256.147 54.3091 256.704C54.3092 257.101 54.3091 257.499 54.309 257.896C54.309 258.979 54.31 260.061 54.3112 261.143C54.3121 262.159 54.3123 263.174 54.3125 264.19C54.3129 266.202 54.314 268.213 54.3156 270.225C54.3172 272.18 54.3184 274.135 54.3191 276.09C54.3192 276.21 54.3192 276.33 54.3193 276.454C54.3195 277.058 54.3197 277.663 54.3199 278.267C54.3217 283.281 54.3247 288.295 54.3285 293.31C54.6819 292.842 55.0161 292.37 55.3351 291.878C55.4276 291.735 55.5201 291.593 55.6153 291.446C55.7123 291.296 55.8092 291.147 55.9091 290.992C56.0089 290.838 56.1087 290.684 56.2116 290.526C56.7205 289.741 57.2258 288.954 57.7247 288.162C58.0901 287.584 58.4713 287.022 58.8674 286.464C59.2477 285.927 59.6022 285.386 59.9354 284.819C60.3794 284.064 60.8569 283.336 61.3451 282.609C62.4638 281.204 62.4638 281.204 63.0432 279.64C63.156 279.64 63.2688 279.64 63.385 279.64C63.6168 279.319 63.6168 279.319 63.8442 278.903C64.3274 278.065 64.8455 277.258 65.3807 276.452C65.6482 276.053 65.6482 276.053 65.6064 275.539C65.7191 275.539 65.8319 275.539 65.9481 275.539C66.219 275.179 66.219 275.179 66.4928 274.716C66.5976 274.547 66.7025 274.377 66.8105 274.202C66.9206 274.023 67.0308 273.844 67.1442 273.659C67.3679 273.306 67.5921 272.954 67.8171 272.602C67.9173 272.444 68.0175 272.287 68.1208 272.124C68.1932 272.01 68.2657 271.897 68.3404 271.779C68.2276 271.779 68.1148 271.779 67.9986 271.779C67.9986 271.666 67.9986 271.554 67.9986 271.437C68.2242 271.437 68.4497 271.437 68.6821 271.437C68.945 271.13 68.945 271.13 69.152 270.711C69.6538 269.812 70.213 268.967 70.7947 268.117C71.0954 267.685 71.0954 267.685 71.2453 267.166C71.4129 266.992 71.5841 266.821 71.7579 266.653C71.8993 266.456 72.0348 266.256 72.1651 266.052C72.278 265.876 72.278 265.876 72.3932 265.697C72.4725 265.572 72.5519 265.447 72.6336 265.318C72.7165 265.189 72.7994 265.059 72.8848 264.926C73.0547 264.661 73.2243 264.395 73.3937 264.13C73.6806 263.681 73.9693 263.232 74.2582 262.784C74.4461 262.493 74.6333 262.201 74.8203 261.908C75.0554 261.543 75.2922 261.178 75.5305 260.814C75.6931 260.564 75.6931 260.564 75.8589 260.309C75.9541 260.164 76.0492 260.019 76.1473 259.87C76.3562 259.503 76.4664 259.205 76.5424 258.793C76.6552 258.793 76.768 258.793 76.8842 258.793C77.102 258.523 77.102 258.523 77.312 258.167C77.3957 258.032 77.4793 257.898 77.5655 257.759C77.6544 257.614 77.7432 257.469 77.8347 257.319C78.0191 257.022 78.2035 256.725 78.388 256.428C78.5257 256.205 78.5257 256.205 78.6661 255.978C79.0482 255.363 79.4391 254.755 79.8318 254.147C79.8971 254.046 79.9624 253.944 80.0298 253.84C80.1772 253.611 80.3249 253.382 80.4726 253.154C80.1587 252.767 80.1587 252.767 79.689 252.769C79.4062 252.77 79.4062 252.77 79.1178 252.77C78.9019 252.769 78.686 252.768 78.4636 252.768C78.223 252.768 77.9824 252.769 77.7419 252.77C77.4896 252.77 77.2373 252.77 76.985 252.769C76.2987 252.769 75.6124 252.77 74.9261 252.772C74.2092 252.773 73.4922 252.773 72.7753 252.773C71.5714 252.773 70.3674 252.774 69.1635 252.777C67.7697 252.779 66.3758 252.78 64.982 252.78C63.6434 252.78 62.3047 252.781 60.9661 252.782C60.3954 252.783 59.8246 252.783 59.2538 252.783C58.5825 252.784 57.9111 252.785 57.2397 252.786C56.9926 252.787 56.7455 252.787 56.4984 252.787C56.1625 252.787 55.8266 252.788 55.4907 252.789C55.2081 252.79 55.2081 252.79 54.9198 252.79C54.5088 252.764 54.5088 252.764 54.3285 252.983ZM223.154 258.793C223.154 258.905 223.154 259.018 223.154 259.134C223.042 259.134 222.929 259.134 222.813 259.134C220.936 261.281 219.533 264.31 219.682 267.226C220.104 270.707 221.274 273.535 224.009 275.88C224.504 276.255 225.013 276.588 225.547 276.906C225.647 276.969 225.748 277.032 225.852 277.096C228.384 278.533 231.571 278.637 234.327 277.903C237.198 277.054 239.865 274.815 241.299 272.185C241.409 271.939 241.511 271.689 241.609 271.437C241.685 271.247 241.761 271.056 241.839 270.859C242.936 267.889 242.683 264.942 241.385 262.082C240.945 261.155 240.475 260.199 239.729 259.476C239.617 259.476 239.504 259.476 239.388 259.476C239.326 259.327 239.326 259.327 239.264 259.176C238.3 257.483 235.726 256.345 233.926 255.836C230.044 255.046 226.014 255.998 223.154 258.793ZM103.028 262.039C102.604 262.59 102.223 263.174 101.832 263.748C101.758 263.856 101.685 263.964 101.609 264.075C101.372 264.421 101.137 264.768 100.903 265.115C100.826 265.228 100.749 265.34 100.67 265.456C100.262 266.006 100.262 266.006 100.123 266.653C100.236 266.653 100.349 266.653 100.465 266.653C100.465 266.879 100.465 267.104 100.465 267.336C100.183 267.28 99.9012 267.224 99.6107 267.166C99.5442 267.272 99.4777 267.377 99.4092 267.487C98.8192 268.421 98.2179 269.345 97.6029 270.263C96.7392 271.552 95.8946 272.854 95.0545 274.159C94.8295 274.508 94.6037 274.857 94.3776 275.205C94.2388 275.419 94.1 275.634 93.9611 275.848C93.8393 276.036 93.7175 276.224 93.592 276.418C93.2638 276.928 93.2638 276.928 92.9466 277.589C96.2735 277.589 99.6005 277.589 103.028 277.589C103.21 276.863 103.222 276.204 103.219 275.463C103.219 275.318 103.219 275.173 103.219 275.024C103.218 274.545 103.217 274.066 103.216 273.587C103.216 273.254 103.215 272.922 103.215 272.59C103.214 271.716 103.213 270.841 103.211 269.967C103.209 269.075 103.208 268.183 103.207 267.29C103.206 265.54 103.203 263.79 103.199 262.039C103.143 262.039 103.086 262.039 103.028 262.039ZM265.19 269.558C265.173 269.675 265.156 269.791 265.139 269.912C263.723 279.459 263.723 279.459 261.371 282.933C261.334 283.03 261.298 283.128 261.26 283.228C261.417 283.586 261.417 283.586 261.601 283.911C264.778 283.916 267.954 283.904 271.13 283.88C271.352 283.878 271.575 283.877 271.804 283.875C272.857 283.867 273.91 283.859 274.963 283.851C276.163 283.841 277.363 283.832 278.563 283.824C279.503 283.817 280.444 283.81 281.384 283.803C281.94 283.798 282.497 283.794 283.053 283.79C285.856 283.776 285.856 283.776 288.657 283.684C288.856 283.674 289.056 283.665 289.262 283.655C289.86 283.559 290.296 283.354 290.821 283.057C290.821 282.944 290.821 282.832 290.821 282.715C290.923 282.675 291.024 282.635 291.128 282.593C291.854 282.17 292.194 281.413 292.53 280.665C292.765 279.753 292.557 279.07 292.124 278.251C291.165 276.845 289.906 276.145 288.255 275.822C288.08 275.792 287.905 275.762 287.724 275.731C287.548 275.697 287.371 275.663 287.19 275.628C286.448 275.488 285.709 275.364 284.959 275.281C284.322 275.196 283.747 275.038 283.132 274.855C282.738 274.775 282.342 274.701 281.946 274.631C280.557 274.38 279.177 274.091 277.797 273.796C276.775 273.58 275.753 273.392 274.722 273.225C273.969 273.1 273.222 272.951 272.474 272.799C271.802 272.668 271.172 272.61 270.487 272.634C270.543 272.521 270.6 272.408 270.658 272.292C270.568 272.253 270.479 272.214 270.386 272.175C269.978 271.997 269.57 271.819 269.163 271.64C269.022 271.579 268.881 271.519 268.736 271.456C268.531 271.366 268.531 271.366 268.322 271.274C268.196 271.219 268.071 271.165 267.942 271.109C267.582 270.925 267.582 270.925 267.226 270.647C266.896 270.362 266.896 270.362 266.386 270.412C266.386 270.299 266.386 270.187 266.386 270.07C265.991 269.901 265.597 269.732 265.19 269.558Z" fill="#E92227"/>
<path d="M226.725 54.5053C227.319 54.5146 227.913 54.5109 228.507 54.5089C229.537 54.5072 230.568 54.5136 231.598 54.5255C233.1 54.543 234.602 54.548 236.103 54.5503C238.555 54.5543 241.007 54.5684 243.459 54.5887C245.814 54.6081 248.169 54.6228 250.524 54.6307C250.739 54.6314 250.739 54.6314 250.959 54.6322C251.538 54.6341 252.116 54.636 252.695 54.6379C256.425 54.6499 260.156 54.6656 263.887 54.6893C264.078 54.6905 264.078 54.6905 264.272 54.6917C265.642 54.7006 267.013 54.7113 268.383 54.7259C268.502 54.7271 268.622 54.7284 268.745 54.7297C268.865 54.7309 268.984 54.7322 269.107 54.7335C269.286 54.7354 269.286 54.7354 269.468 54.7373C269.707 54.7398 269.947 54.7424 270.186 54.745C271.666 54.7609 273.147 54.7668 274.627 54.7601C275.627 54.7556 276.626 54.7559 277.626 54.7595C278.213 54.7614 278.8 54.7605 279.387 54.7529C280.028 54.7457 280.668 54.7479 281.309 54.7523C281.498 54.7478 281.686 54.7433 281.88 54.7386C283.128 54.7602 283.128 54.7602 283.646 55.2734C283.91 55.6639 284.127 56.0501 284.331 56.4744C284.428 56.6418 284.525 56.8092 284.626 56.9817C284.739 57.1958 284.739 57.1958 284.854 57.4142C284.981 57.6501 284.981 57.6501 285.109 57.8908C285.232 58.1201 285.232 58.1201 285.356 58.354C286.089 59.8089 286.089 59.8089 287.065 61.0881C287.214 61.3734 287.355 61.6624 287.492 61.9531C288.12 63.23 288.844 64.4433 289.573 65.6643C289.943 66.2841 290.309 66.906 290.675 67.528C290.747 67.65 290.819 67.7721 290.893 67.8979C291.315 68.6147 291.729 69.3351 292.138 70.0591C292.902 71.4044 293.704 72.727 294.506 74.05C295.108 75.0471 295.684 76.0528 296.237 77.0782C296.522 77.5995 296.83 78.1003 297.147 78.6029C297.645 79.4038 298.109 80.2129 298.555 81.0439C298.957 81.7782 299.376 82.5027 299.795 83.2272C299.873 83.3604 299.95 83.4936 300.029 83.6308C300.425 84.3125 300.825 84.991 301.232 85.6662C301.61 86.2938 301.981 86.9248 302.348 87.5585C302.448 87.7311 302.548 87.9037 302.651 88.0815C302.855 88.4342 303.059 88.7871 303.262 89.1401C303.72 89.9294 304.183 90.7068 304.697 91.4606C305.08 92.0233 305.394 92.59 305.688 93.2026C306.024 93.8851 306.412 94.5399 306.791 95.1992C306.88 95.355 306.969 95.5108 307.061 95.6713C307.787 96.935 308.531 98.1882 309.276 99.4408C310.312 101.19 311.298 102.966 312.283 104.745C312.452 105.043 312.627 105.337 312.807 105.628C313.262 106.415 313.183 107.206 313.038 108.079C312.776 108.591 312.776 108.591 312.434 109.113C312.308 109.308 312.182 109.504 312.057 109.7C311.961 109.849 311.961 109.849 311.862 110.001C311.56 110.475 311.277 110.96 310.993 111.445C310.822 111.736 310.822 111.736 310.648 112.032C310.53 112.235 310.412 112.437 310.294 112.639C310.168 112.854 310.042 113.069 309.917 113.283C308.956 114.925 308.004 116.571 307.057 118.22C306.525 119.147 305.985 120.069 305.433 120.985C304.985 121.729 304.542 122.476 304.099 123.223C303.955 123.466 303.955 123.466 303.808 123.715C303.155 124.821 302.516 125.934 301.898 127.059C301.599 127.6 301.279 128.093 300.906 128.584C300.786 128.951 300.786 128.951 300.735 129.268C300.623 129.268 300.51 129.268 300.394 129.268C300.326 129.494 300.326 129.494 300.257 129.725C300.057 130.278 299.823 130.693 299.496 131.179C299.082 131.812 298.698 132.445 298.343 133.112C297.998 133.758 297.63 134.377 297.232 134.992C296.751 135.737 296.32 136.497 295.901 137.279C295.55 137.92 295.18 138.549 294.808 139.179C294.187 140.229 293.571 141.283 292.96 142.34C292.36 143.379 291.755 144.415 291.145 145.448C290.513 146.517 289.9 147.595 289.295 148.68C288.921 149.348 288.532 150.001 288.118 150.645C287.876 151.04 287.658 151.446 287.439 151.855C286.944 152.776 286.399 153.661 285.847 154.548C285.586 154.974 285.339 155.401 285.1 155.839C284.736 156.504 284.351 157.156 283.957 157.804C283.842 157.994 283.727 158.185 283.608 158.381C283.306 158.829 283.306 158.829 282.964 159C282.636 159.018 282.308 159.024 281.98 159.025C281.664 159.027 281.664 159.027 281.341 159.029C281.105 159.029 280.869 159.029 280.632 159.03C280.383 159.031 280.134 159.032 279.885 159.033C279.198 159.036 278.51 159.038 277.823 159.04C277.234 159.042 276.645 159.044 276.056 159.046C273.947 159.054 271.838 159.06 269.729 159.065C269.562 159.065 269.396 159.066 269.224 159.066C265.923 159.074 262.621 159.08 259.32 159.085C258.593 159.086 257.867 159.087 257.141 159.088C256.961 159.088 256.78 159.089 256.594 159.089C253.669 159.093 250.743 159.103 247.818 159.115C244.817 159.127 241.816 159.134 238.814 159.136C237.128 159.137 235.442 159.141 233.756 159.15C232.321 159.158 230.885 159.161 229.45 159.159C228.717 159.157 227.984 159.158 227.252 159.165C226.581 159.172 225.911 159.172 225.24 159.167C224.997 159.166 224.755 159.168 224.512 159.172C222.697 159.201 222.697 159.201 222.151 158.708C221.926 158.356 221.771 158.021 221.62 157.633C221.495 157.408 221.367 157.184 221.236 156.962C221.111 156.737 220.986 156.512 220.861 156.287C220.136 154.99 219.381 153.716 218.6 152.451C218.517 152.316 218.434 152.182 218.349 152.043C218.184 151.775 218.019 151.508 217.853 151.241C216.493 149.034 216.493 149.034 216.493 148.406C216.381 148.406 216.268 148.406 216.152 148.406C216.066 148.238 215.981 148.07 215.893 147.897C215.059 146.276 214.153 144.718 213.179 143.177C212.6 142.258 212.059 141.327 211.538 140.375C211.322 139.993 211.104 139.612 210.886 139.232C210.766 139.023 210.647 138.813 210.527 138.604C210.437 138.447 210.437 138.447 210.346 138.288C210.184 138.006 210.024 137.723 209.863 137.441C208.491 135.029 207.103 132.623 205.664 130.25C204.961 129.085 204.28 127.907 203.602 126.727C203.475 126.506 203.347 126.286 203.22 126.065C203.04 125.754 202.862 125.443 202.684 125.131C202.579 124.949 202.474 124.767 202.366 124.579C202.14 124.141 202.14 124.141 202.14 123.8C202.027 123.8 201.914 123.8 201.798 123.8C201.74 123.677 201.682 123.555 201.622 123.429C201.057 122.269 200.434 121.171 199.749 120.078C199.216 119.223 198.714 118.35 198.21 117.477C198.014 117.143 197.818 116.808 197.622 116.473C197.208 115.764 196.8 115.052 196.394 114.337C195.783 113.262 195.155 112.198 194.525 111.133C194.429 110.971 194.333 110.808 194.235 110.641C193.833 109.959 193.43 109.279 193.01 108.608C192.846 108.341 192.846 108.341 192.677 108.068C192.584 107.922 192.492 107.775 192.396 107.624C192.183 107.114 192.254 106.901 192.4 106.37C192.552 106.051 192.718 105.738 192.892 105.43C192.992 105.252 193.092 105.073 193.196 104.889C193.357 104.607 193.357 104.607 193.521 104.32C193.631 104.126 193.74 103.933 193.853 103.734C194.487 102.617 195.136 101.515 195.819 100.428C196.51 99.3087 197.158 98.1643 197.812 97.0242C198.026 96.652 198.241 96.2803 198.457 95.9088C198.581 95.6936 198.705 95.4785 198.829 95.2633C198.937 95.0765 199.045 94.8897 199.156 94.6973C199.421 94.2416 199.421 94.2416 199.577 93.7254C199.689 93.7254 199.802 93.7254 199.918 93.7254C199.958 93.6148 199.998 93.5043 200.039 93.3903C200.333 92.6986 200.694 92.0528 201.061 91.3972C201.137 91.2603 201.214 91.1235 201.292 90.9824C201.801 90.0768 202.336 89.1952 202.903 88.3248C203.472 87.4349 204.007 86.5217 204.361 85.5234C204.474 85.5234 204.587 85.5234 204.703 85.5234C204.742 85.3824 204.78 85.2414 204.82 85.0962C204.996 84.6264 205.151 84.3055 205.417 83.8947C205.969 83.0275 206.483 82.1402 206.999 81.2515C207.211 80.887 207.423 80.5226 207.635 80.1581C207.743 79.972 207.851 79.786 207.963 79.5943C208.285 79.0405 208.608 78.4872 208.931 77.9341C210.169 75.8175 210.169 75.8175 211.388 73.6902C211.769 73.0186 212.159 72.3539 212.558 71.6931C212.694 71.4681 212.694 71.4681 212.833 71.2387C213.01 70.9463 213.188 70.6542 213.367 70.3626C213.949 69.4023 214.468 68.4222 214.955 67.4105C215.068 67.4105 215.181 67.4105 215.297 67.4105C215.337 67.2699 215.377 67.1294 215.418 66.9846C215.683 66.2652 216.043 65.6505 216.44 64.9968C216.593 64.7397 216.747 64.4825 216.9 64.2252C217.014 64.0364 217.014 64.0364 217.13 63.8438C217.436 63.3326 217.74 62.8195 218.042 62.3055C218.135 62.1474 218.229 61.9892 218.326 61.8263C218.563 61.4225 218.563 61.4225 218.715 60.9172C218.827 60.9172 218.94 60.9172 219.056 60.9172C219.097 60.7764 219.137 60.6357 219.178 60.4907C219.441 59.7759 219.796 59.1642 220.188 58.5142C220.257 58.3989 220.326 58.2836 220.396 58.1648C220.541 57.9216 220.691 57.6814 220.846 57.4442C221.128 56.9853 221.128 56.9853 221.293 56.4303C222.269 54.0477 224.47 54.4608 226.725 54.5053Z" fill="#175BA6"/>
<path d="M30.8814 54.7197C31.1991 54.717 31.1991 54.717 31.5233 54.7142C31.7606 54.7138 31.9978 54.7136 32.2351 54.7133C32.4855 54.7118 32.7358 54.7102 32.9862 54.7084C33.6767 54.704 34.3672 54.7017 35.0577 54.6998C35.8014 54.6974 36.5452 54.6931 37.2889 54.6891C39.0864 54.6799 40.8839 54.6741 42.6813 54.6691C43.1888 54.6676 43.6963 54.6661 44.2038 54.6645C47.3536 54.6549 50.5034 54.6466 53.6532 54.6416C54.3831 54.6404 55.113 54.6392 55.8429 54.638C56.0243 54.6377 56.2058 54.6374 56.3927 54.6371C59.3322 54.632 62.2717 54.6193 65.2112 54.6035C68.2275 54.5874 71.2438 54.5784 74.2601 54.5763C75.9544 54.5749 77.6485 54.5704 79.3427 54.5579C80.7855 54.5472 82.2281 54.543 83.671 54.547C84.4073 54.5489 85.1434 54.5478 85.8797 54.5384C86.554 54.5299 87.2276 54.5301 87.9019 54.5371C88.1457 54.5382 88.3895 54.536 88.6333 54.5304C89.3679 54.5144 90.0259 54.5299 90.7246 54.767C91.2809 55.3287 91.595 55.9326 91.9207 56.6467C92.0791 56.936 92.239 57.2246 92.4013 57.5117C92.4848 57.6673 92.5683 57.8228 92.6543 57.983C93.6835 59.9002 94.7562 61.7869 95.8827 63.6486C96.5984 64.8343 97.2955 66.0302 97.9868 67.2303C98.0947 67.4176 98.2025 67.6048 98.3136 67.7977C98.8287 68.6933 99.3416 69.5902 99.8511 70.489C99.9879 70.7299 99.9879 70.7299 100.127 70.9756C100.296 71.272 100.463 71.5686 100.63 71.8656C101.093 72.6828 101.589 73.4664 102.116 74.2442C102.392 74.6602 102.634 75.0875 102.867 75.5285C102.996 75.7681 102.996 75.7681 103.127 76.0124C103.207 76.1629 103.287 76.3133 103.369 76.4683C103.898 77.4612 104.477 78.4128 105.078 79.3626C106.787 82.0674 106.787 82.0674 106.787 82.7908C106.9 82.7908 107.013 82.7908 107.129 82.7908C107.222 82.9645 107.222 82.9645 107.317 83.1419C107.741 83.9278 108.17 84.7081 108.635 85.4714C109.155 86.3284 109.646 87.2011 110.132 88.0777C110.563 88.8506 111.013 89.6104 111.47 90.3681C111.949 91.1666 112.417 91.9717 112.885 92.7763C113.041 93.0443 113.041 93.0443 113.201 93.3177C113.919 94.551 114.635 95.786 115.349 97.0218C115.77 97.7505 116.194 98.4776 116.622 99.2026C116.905 99.6806 117.186 100.159 117.466 100.638C117.657 100.962 117.848 101.286 118.039 101.609C118.329 102.1 118.618 102.592 118.906 103.085C119.075 103.374 119.246 103.662 119.417 103.95C120.799 106.322 120.799 106.322 120.799 107.397C120.63 107.482 120.63 107.482 120.457 107.568C120.273 107.915 120.101 108.269 119.934 108.625C119.501 109.525 119.022 110.367 118.471 111.199C117.942 111.997 117.479 112.799 117.066 113.663C116.791 114.217 116.472 114.738 116.15 115.266C115.764 115.9 115.387 116.54 115.01 117.18C114.937 117.305 114.863 117.43 114.787 117.559C114.328 118.34 113.876 119.125 113.43 119.914C112.867 120.905 112.276 121.873 111.668 122.837C111.382 123.283 111.382 123.283 111.23 123.801C111.117 123.801 111.004 123.801 110.888 123.801C110.848 123.941 110.808 124.082 110.767 124.226C110.501 124.948 110.142 125.568 109.745 126.225C109.669 126.354 109.592 126.483 109.513 126.615C109.092 127.321 108.658 128.015 108.207 128.703C107.525 129.755 106.987 130.875 106.445 132.003C106.332 132.003 106.22 132.003 106.103 132.003C106.058 132.155 106.012 132.306 105.965 132.462C105.771 133.002 105.548 133.396 105.249 133.883C105.115 134.113 104.981 134.343 104.848 134.574C104.774 134.703 104.699 134.832 104.623 134.964C104.544 135.101 104.465 135.237 104.384 135.378C103.776 136.43 103.165 137.481 102.547 138.528C101.832 139.741 101.121 140.955 100.411 142.17C100.311 142.342 100.211 142.513 100.107 142.69C99.669 143.44 99.2344 144.192 98.8152 144.954C98.3518 145.794 97.8433 146.601 97.3327 147.413C97.0306 147.883 97.0306 147.883 96.8761 148.407C96.7634 148.407 96.6506 148.407 96.5344 148.407C96.4952 148.546 96.456 148.685 96.4156 148.828C96.1408 149.573 95.7647 150.216 95.3596 150.896C95.1902 151.184 95.0209 151.472 94.8516 151.761C94.7635 151.91 94.6754 152.06 94.5846 152.215C94.0434 153.14 93.5158 154.074 92.9864 155.006C92.5731 155.732 92.156 156.455 91.7318 157.175C91.6534 157.308 91.5749 157.441 91.4941 157.579C90.7081 158.795 90.7081 158.795 90.0917 158.937C89.9133 158.937 89.7348 158.937 89.551 158.936C89.2416 158.939 89.2416 158.939 88.926 158.942C88.6968 158.939 88.4676 158.937 88.2385 158.935C87.9952 158.935 87.752 158.936 87.5087 158.937C86.8394 158.939 86.1703 158.936 85.501 158.932C84.7795 158.929 84.058 158.931 83.3365 158.932C81.9224 158.933 80.5084 158.929 79.0943 158.925C77.4474 158.919 75.8006 158.918 74.1537 158.918C71.2144 158.917 68.2751 158.912 65.3359 158.905C62.4846 158.897 59.6333 158.893 56.782 158.891C56.6066 158.89 56.4311 158.89 56.2504 158.89C55.5451 158.89 54.8398 158.889 54.1345 158.889C51.089 158.886 48.0435 158.882 44.998 158.878C44.5053 158.877 44.0126 158.877 43.52 158.876C41.7937 158.874 40.0674 158.871 38.3411 158.867C37.6273 158.865 36.9135 158.863 36.1997 158.863C35.5455 158.862 34.8914 158.86 34.2372 158.858C33.8899 158.857 33.5426 158.857 33.1953 158.857C29.9272 158.843 29.9272 158.843 29.3109 158.293C29.2207 158.135 29.1305 157.977 29.0376 157.813C28.9359 157.641 28.8343 157.468 28.7295 157.289C28.581 157.016 28.581 157.016 28.4295 156.737C28.3245 156.558 28.2196 156.378 28.1114 156.193C27.6691 155.422 27.2921 154.763 27.1586 153.875C27.0458 153.875 26.9331 153.875 26.8169 153.875C26.7547 153.759 26.6926 153.644 26.6286 153.524C26.2041 152.738 25.7752 151.958 25.311 151.195C24.8559 150.446 24.425 149.685 23.9974 148.92C23.0745 147.104 23.0745 147.104 21.8614 145.502C21.6955 145.178 21.5366 144.849 21.3809 144.52C20.5148 142.734 19.4657 141.05 18.4439 139.351C18.2608 139.045 18.0777 138.74 17.8946 138.434C17.6524 138.03 17.4095 137.627 17.1646 137.225C16.7369 136.519 16.3231 135.811 15.9328 135.084C15.2633 133.851 14.5538 132.642 13.8438 131.432C13.6717 131.138 13.5007 130.844 13.3296 130.55C13.2288 130.378 13.1279 130.205 13.024 130.028C12.805 129.611 12.805 129.611 12.805 129.269C12.6922 129.269 12.5794 129.269 12.4633 129.269C12.3703 129.078 12.2773 128.886 12.1816 128.689C11.6896 127.705 11.1248 126.765 10.5649 125.818C10.179 125.159 9.80925 124.526 9.55836 123.801C9.44558 123.801 9.3328 123.801 9.21661 123.801C9.13378 123.629 9.05096 123.458 8.96563 123.281C8.33496 121.988 7.67471 120.74 6.90644 119.522C6.30944 118.576 5.7353 117.615 5.15829 116.656C4.99158 116.381 4.99158 116.381 4.8215 116.1C3.23593 113.464 3.23593 113.464 3.23593 112.865C3.12316 112.865 3.01038 112.865 2.89418 112.865C2.84 112.765 2.78581 112.665 2.72998 112.562C2.65024 112.415 2.57051 112.269 2.48835 112.117C2.3965 111.947 2.30465 111.777 2.21001 111.602C1.95724 111.139 1.69361 110.684 1.42638 110.23C1.3497 110.097 1.27302 109.965 1.19401 109.828C1.04178 109.565 0.887503 109.304 0.730945 109.043C0.158223 108.046 -0.14441 107.098 0.0680489 105.944C0.685238 104.554 1.44767 103.243 2.21068 101.929C2.32346 101.929 2.43623 101.929 2.55243 101.929C2.58745 101.796 2.62248 101.664 2.65856 101.527C2.98403 100.666 3.45369 99.9162 3.93012 99.1308C4.13103 98.7954 4.33172 98.4599 4.53219 98.1242C4.63104 97.9589 4.72988 97.7936 4.83173 97.6233C5.23128 96.9491 5.61894 96.2687 6.00199 95.5851C6.06379 95.4751 6.12559 95.3651 6.18927 95.2518C6.47008 94.7491 6.74388 94.245 6.99521 93.7268C7.10799 93.7268 7.22077 93.7268 7.33697 93.7268C7.37816 93.5839 7.41935 93.4409 7.46178 93.2936C7.70795 92.6218 8.04471 92.0383 8.41562 91.4307C9.24008 90.0562 10.0319 88.6651 10.8154 87.267C11.4041 86.2194 12.0117 85.1856 12.6341 84.1578C12.7991 83.8831 12.964 83.6083 13.1287 83.3334C13.2102 83.1977 13.2916 83.0621 13.3755 82.9223C13.5483 82.6341 13.721 82.3458 13.8935 82.0575C14.3097 81.3624 14.7275 80.6686 15.1532 79.9793C15.2242 79.8636 15.2952 79.7479 15.3683 79.6287C15.4994 79.4151 15.6315 79.2022 15.7648 78.99C16.1024 78.4379 16.3127 77.967 16.3934 77.3227C16.5626 77.3227 16.7317 77.3227 16.906 77.3227C16.947 77.1802 16.988 77.0377 17.0302 76.8909C17.2816 76.2052 17.6168 75.6268 17.9954 75.0052C18.1491 74.7486 18.3026 74.4918 18.4559 74.2349C18.5371 74.0992 18.6182 73.9634 18.7017 73.8236C19.2378 72.9169 19.7548 71.9992 20.2744 71.083C20.7661 70.2183 21.2692 69.3617 21.7829 68.5099C22.1663 67.8726 22.5425 67.2311 22.9187 66.5896C23.6935 65.2692 23.6935 65.2692 24.0047 64.754C24.3326 64.2037 24.6456 63.6454 24.9586 63.0866C25.0254 62.9677 25.0922 62.8488 25.1611 62.7264C25.5062 62.1121 25.8501 61.4972 26.1921 60.8812C26.8447 59.7085 27.5136 58.5595 28.2466 57.4343C28.6421 56.8023 28.9895 56.1475 29.3353 55.4873C29.7635 54.7356 30.0493 54.7238 30.8814 54.7197Z" fill="#3FA247"/>
<path d="M127.614 0.0645865C127.826 0.0638247 128.037 0.063063 128.255 0.0622782C128.49 0.0622934 128.726 0.0623259 128.962 0.0623736C129.211 0.06181 129.461 0.0611734 129.71 0.0604698C130.398 0.0587563 131.085 0.0581223 131.772 0.0576693C132.512 0.0570028 133.253 0.0553661 133.993 0.0538736C135.782 0.0504956 137.571 0.0487764 139.36 0.047256C140.201 0.0465073 141.043 0.0455902 141.885 0.0446947C144.682 0.041788 147.479 0.039311 150.276 0.0380735C151.002 0.0377471 151.728 0.037419 152.454 0.0370848C152.634 0.0370021 152.815 0.0369195 153.001 0.0368343C155.926 0.0354148 158.852 0.0310832 161.777 0.0255369C164.778 0.0198928 167.78 0.0168088 170.781 0.0162621C172.467 0.0158916 174.153 0.014388 175.84 0.0100318C177.275 0.006332 178.71 0.00494226 180.145 0.00660856C180.878 0.00738784 181.611 0.0070456 182.344 0.00374443C183.014 0.000750639 183.684 0.000886403 184.354 0.003556C184.597 0.00396493 184.84 0.00320827 185.083 0.00119301C185.413 -0.00137029 185.742 0.000660106 186.071 0.00294054C186.254 0.00277363 186.438 0.00260672 186.626 0.00243474C187.22 0.109325 187.415 0.302056 187.782 0.771027C187.996 1.32637 187.996 1.32637 188.124 1.79628C188.237 1.79628 188.349 1.79628 188.466 1.79628C188.515 1.89981 188.565 2.00334 188.617 2.11C189.059 3.01412 189.533 3.884 190.059 4.74198C190.346 5.21451 190.625 5.69049 190.903 6.16831C191.311 6.86788 191.718 7.56708 192.127 8.26555C193.042 9.82892 193.957 11.3924 194.852 12.9673C194.916 13.0789 194.98 13.1906 195.046 13.3056C195.472 14.0593 195.472 14.0593 195.472 14.4411C195.584 14.4411 195.697 14.4411 195.813 14.4411C195.945 14.6759 196.077 14.9109 196.208 15.146C196.282 15.2768 196.355 15.4077 196.431 15.5425C196.595 15.8443 196.752 16.1499 196.903 16.4583C197.236 17.1131 197.605 17.7404 197.981 18.3713C198.536 19.306 199.082 20.2441 199.615 21.1907C199.996 21.8639 200.39 22.511 200.833 23.1451C201.259 23.7635 201.467 24.3024 201.623 25.0355C201.736 25.0355 201.849 25.0355 201.965 25.0355C202.037 25.174 202.11 25.3126 202.184 25.4553C202.76 26.5424 203.355 27.5948 204.037 28.6199C204.415 29.2302 204.753 29.8575 205.095 30.4886C205.608 31.4301 206.142 32.3601 206.675 33.2909C206.734 33.3942 206.793 33.4975 206.854 33.6038C208.214 35.9818 209.584 38.3556 211.032 40.6813C211.899 42.0785 212.706 43.5116 213.515 44.9435C213.678 45.2327 213.842 45.5212 214.007 45.8093C214.125 46.0159 214.125 46.0159 214.245 46.2268C214.315 46.3498 214.385 46.4727 214.458 46.5994C214.61 46.9076 214.61 46.9076 214.61 47.2494C214.723 47.2494 214.835 47.2494 214.951 47.2494C214.995 47.3287 215.039 47.408 215.084 47.4897C215.15 47.6077 215.215 47.7258 215.283 47.8474C215.359 47.9855 215.435 48.1237 215.513 48.266C215.741 48.6719 215.974 49.0734 216.211 49.4741C216.281 49.5948 216.352 49.7155 216.424 49.8399C216.566 50.0832 216.71 50.3255 216.855 50.5668C217.357 51.4343 217.357 51.4343 217.289 51.873C216.911 52.952 216.258 53.9137 215.667 54.8854C214.677 56.5235 213.744 58.1757 212.901 59.8942C212.788 59.8942 212.675 59.8942 212.559 59.8942C212.524 60.0599 212.489 60.2255 212.452 60.3962C212.299 60.9365 212.075 61.3347 211.753 61.7939C211.184 62.6277 210.683 63.4901 210.188 64.369C210.099 64.5263 210.01 64.6836 209.918 64.8457C209.659 65.3024 209.4 65.7595 209.142 66.2166C208.386 67.5515 207.617 68.8767 206.823 70.1889C206.348 70.9777 205.894 71.7769 205.446 72.5818C204.917 73.5333 204.359 74.4566 203.766 75.3705C203.451 75.8674 203.166 76.3762 202.885 76.8931C202.581 77.4462 202.268 77.9936 201.954 78.5411C201.843 78.7354 201.732 78.9296 201.617 79.1298C201.447 79.4265 201.277 79.7233 201.107 80.0198C200.744 80.6514 200.39 81.2867 200.043 81.9266C199.909 82.1721 199.909 82.1721 199.773 82.4225C199.707 82.5443 199.641 82.6661 199.573 82.7916C199.46 82.7916 199.347 82.7916 199.231 82.7916C199.17 83.0041 199.17 83.0041 199.108 83.2208C198.851 83.921 198.506 84.5162 198.12 85.1519C197.966 85.4108 197.811 85.6698 197.656 85.9288C197.577 86.0604 197.498 86.192 197.417 86.3276C197.047 86.9449 196.681 87.5647 196.315 88.1849C196.246 88.3032 196.176 88.4214 196.104 88.5433C194.886 90.5971 194.886 90.5971 193.763 92.7025C193.65 92.7025 193.537 92.7025 193.421 92.7025C193.386 92.8681 193.351 93.0338 193.314 93.2044C193.116 93.8957 192.762 94.4052 192.353 94.9906C191.957 95.5807 191.614 96.1963 191.266 96.8151C190.743 97.7391 190.199 98.6496 189.651 99.5589C188.314 101.736 188.314 101.736 187.099 103.98C179.472 103.988 171.846 103.994 164.22 103.998C163.32 103.998 162.42 103.999 161.52 103.999C161.341 103.999 161.162 103.999 160.978 103.999C158.075 104.001 155.172 104.004 152.269 104.007C149.292 104.01 146.315 104.012 143.337 104.012C141.499 104.013 139.662 104.014 137.824 104.017C136.564 104.019 135.305 104.02 134.045 104.019C133.318 104.019 132.591 104.019 131.864 104.021C131.198 104.023 130.533 104.023 129.867 104.022C129.626 104.021 129.385 104.022 129.144 104.023C128.817 104.024 128.49 104.023 128.163 104.022C127.981 104.022 127.799 104.023 127.612 104.023C127.091 103.978 126.73 103.878 126.267 103.639C125.961 103.257 125.702 102.897 125.444 102.485C125.371 102.371 125.297 102.258 125.222 102.14C124.501 101.013 123.839 99.8536 123.191 98.6831C123.1 98.525 123.01 98.3668 122.917 98.2039C122.838 98.066 122.759 97.9281 122.678 97.786C122.611 97.6689 122.544 97.5517 122.475 97.4309C122.337 97.1452 122.337 97.1452 122.337 96.8035C122.224 96.7471 122.111 96.6907 121.995 96.6326C121.8 96.3218 121.617 96.0032 121.439 95.6821C121.318 95.4657 121.197 95.2495 121.076 95.0333C121.006 94.9101 120.937 94.7868 120.866 94.6599C120.286 93.6376 119.687 92.6259 119.092 91.6118C118.636 90.8323 118.182 90.0521 117.736 89.2669C117.667 89.1462 117.598 89.0254 117.527 88.901C117.381 88.6014 117.381 88.6014 117.381 88.2597C117.268 88.2597 117.156 88.2597 117.039 88.2597C116.975 88.1418 116.911 88.024 116.845 87.9026C116.758 87.742 116.67 87.5814 116.58 87.416C116.487 87.2455 116.395 87.075 116.299 86.8993C115.976 86.311 115.645 85.7276 115.311 85.1459C115.16 84.8422 115.16 84.8422 115.16 84.5004C115.047 84.5004 114.934 84.5004 114.818 84.5004C114.774 84.4088 114.73 84.3171 114.685 84.2227C113.72 82.2466 112.632 80.3469 111.428 78.5073C110.964 77.7954 110.551 77.0692 110.152 76.3197C109.459 75.0427 108.714 73.7942 107.983 72.5391C107.887 72.3737 107.79 72.2083 107.691 72.0379C106.75 70.4217 105.809 68.8059 104.858 67.1953C103.028 64.0918 103.028 64.0918 103.028 63.6535C102.915 63.6535 102.802 63.6535 102.686 63.6535C102.546 63.3834 102.407 63.1127 102.269 62.8418C102.153 62.6158 102.153 62.6158 102.035 62.3853C101.86 62.0059 101.743 61.6689 101.661 61.2612C101.548 61.2612 101.435 61.2612 101.319 61.2612C101.26 61.1484 101.202 61.0357 101.141 60.9195C100.446 59.6044 99.7089 58.3164 98.9585 57.032C98.8555 56.8553 98.7525 56.6786 98.6464 56.4965C98.1676 55.6775 97.6853 54.8613 97.1897 54.0524C97.109 53.9195 97.0284 53.7866 96.9453 53.6497C96.7962 53.4049 96.6454 53.161 96.4926 52.9185C96.008 52.1192 96.008 52.1192 96.076 51.694C96.3158 50.9869 96.5544 50.3387 97.0302 49.7564C97.4146 49.2667 97.6733 48.7811 97.944 48.2212C98.0329 48.0386 98.1219 47.856 98.2136 47.6679C98.2797 47.5298 98.3458 47.3917 98.4139 47.2494C98.5266 47.2494 98.6394 47.2494 98.7556 47.2494C98.8085 47.0485 98.8085 47.0485 98.8624 46.8435C99.0617 46.3181 99.2714 45.9104 99.5619 45.4351C99.6996 45.2088 99.6996 45.2088 99.84 44.9778C99.9333 44.8252 100.027 44.6726 100.123 44.5154C100.29 44.2387 100.457 43.9619 100.623 43.685C100.705 43.5486 100.788 43.4121 100.872 43.2716C101.782 41.7604 102.673 40.2415 103.54 38.7056C104.399 37.1837 105.285 35.6809 106.188 34.185C106.802 33.1654 107.391 32.1347 107.968 31.0942C108.421 30.2815 108.911 29.4987 109.418 28.718C109.783 28.137 110.103 27.5362 110.427 26.9318C110.768 26.31 111.125 25.6993 111.486 25.0889C112.198 23.8842 112.906 22.6773 113.611 21.4684C113.712 21.2948 113.814 21.1212 113.918 20.9424C114.402 20.1123 114.885 19.2814 115.365 18.4487C115.492 18.2283 115.492 18.2283 115.621 18.0034C115.778 17.7311 115.935 17.4586 116.091 17.1859C116.407 16.6368 116.727 16.0972 117.083 15.5732C117.348 15.1744 117.48 14.908 117.552 14.4411C117.665 14.4411 117.778 14.4411 117.894 14.4411C117.929 14.3072 117.964 14.1733 118.001 14.0353C118.2 13.5099 118.41 13.1022 118.7 12.6269C118.838 12.4005 118.838 12.4005 118.978 12.1696C119.071 12.017 119.165 11.8644 119.261 11.7071C119.428 11.4304 119.595 11.1537 119.761 10.8768C119.844 10.7403 119.926 10.6039 120.011 10.4633C121.035 8.76134 122.032 7.04714 123.005 5.31527C125.972 0.0673264 125.972 0.0673263 127.614 0.0645865Z" fill="#E92127"/>
<path d="M110.036 136.619C110.76 136.843 111.416 137.122 112.087 137.474C112.087 137.587 112.087 137.699 112.087 137.816C112.175 137.83 112.263 137.845 112.354 137.86C112.934 138.036 113.433 138.336 113.956 138.638C114.074 138.705 114.192 138.773 114.314 138.843C114.574 138.99 114.832 139.139 115.091 139.287C115.516 139.531 115.942 139.774 116.368 140.016C117.993 140.942 119.615 141.874 121.232 142.815C121.866 143.183 122.502 143.546 123.144 143.899C123.709 144.212 124.256 144.541 124.795 144.896C125.546 145.38 126.311 145.814 127.098 146.235C127.899 146.675 128.683 147.144 129.469 147.61C130.161 148.019 130.857 148.416 131.566 148.794C132.13 149.096 132.662 149.417 133.19 149.777C133.858 150.233 134.548 150.618 135.261 151C136.026 151.417 136.782 151.851 137.536 152.287C137.678 152.368 137.82 152.449 137.966 152.533C138.168 152.65 138.168 152.65 138.374 152.769C138.495 152.839 138.615 152.908 138.739 152.98C139.085 153.194 139.085 153.194 139.448 153.468C139.76 153.722 139.76 153.722 140.142 153.857C140.851 154.14 141.499 154.525 142.161 154.903C142.161 155.016 142.161 155.129 142.161 155.245C142.26 155.266 142.359 155.287 142.462 155.309C143.717 155.659 144.871 156.562 145.981 157.233C146.739 157.689 147.508 158.12 148.288 158.538C149.018 158.939 149.738 159.356 150.459 159.773C150.592 159.85 150.725 159.927 150.863 160.007C151.121 160.157 151.379 160.309 151.635 160.464C152.066 160.719 152.066 160.719 152.517 160.911C153.684 161.473 153.684 161.473 153.937 162.168C153.997 162.721 154.001 163.251 153.987 163.806C153.989 164.017 153.99 164.227 153.992 164.443C153.994 165.025 153.989 165.607 153.981 166.189C153.974 166.817 153.977 167.444 153.979 168.072C153.98 169.302 153.973 170.531 153.963 171.761C153.951 173.191 153.949 174.622 153.948 176.053C153.945 178.605 153.934 181.156 153.919 183.708C153.904 186.186 153.893 188.664 153.887 191.143C153.887 191.295 153.886 191.448 153.886 191.606C153.885 192.219 153.883 192.833 153.882 193.447C153.872 198.147 153.858 202.847 153.831 207.546C153.828 208.04 153.826 208.534 153.824 209.028C153.821 209.699 153.817 210.37 153.812 211.041C153.812 211.24 153.811 211.438 153.81 211.642C153.809 211.82 153.808 211.999 153.806 212.182C153.805 212.415 153.805 212.415 153.804 212.652C153.78 213.001 153.78 213.001 153.61 213.172C153.282 213.189 152.953 213.194 152.625 213.194C152.411 213.194 152.197 213.195 151.976 213.195C151.737 213.195 151.498 213.194 151.258 213.194C151.008 213.194 150.758 213.195 150.507 213.195C149.826 213.196 149.144 213.195 148.462 213.195C147.75 213.194 147.038 213.195 146.326 213.195C145.13 213.195 143.934 213.195 142.737 213.194C141.353 213.193 139.969 213.194 138.584 213.195C137.397 213.195 136.211 213.195 135.024 213.195C134.314 213.195 133.605 213.195 132.895 213.195C132.228 213.196 131.561 213.195 130.894 213.194C130.648 213.194 130.403 213.194 130.157 213.195C129.823 213.195 129.489 213.194 129.155 213.194C128.968 213.194 128.781 213.194 128.588 213.193C128.149 213.172 128.149 213.172 127.807 213.001C127.751 201.329 127.694 189.656 127.636 177.63C126.734 177.122 125.832 176.615 124.902 176.092C123.777 175.454 122.656 174.816 121.552 174.142C120.252 173.35 118.928 172.649 117.555 171.991C117.555 171.878 117.555 171.765 117.555 171.649C117.435 171.603 117.315 171.557 117.191 171.51C116.424 171.193 115.712 170.824 115.013 170.378C114.344 169.952 113.655 169.601 112.941 169.257C112.941 169.144 112.941 169.031 112.941 168.915C112.809 168.893 112.809 168.893 112.674 168.87C112.091 168.694 111.587 168.394 111.061 168.093C110.884 167.992 110.884 167.992 110.703 167.889C109.572 167.243 108.458 166.568 107.343 165.894C106.357 165.299 105.36 164.743 104.342 164.206C103.835 163.933 103.352 163.636 102.867 163.325C102.453 163.065 102.032 162.818 101.61 162.571C101.353 162.421 101.353 162.421 101.09 162.268C100.603 161.985 100.112 161.711 99.6193 161.438C99.472 161.356 99.3247 161.273 99.1729 161.188C98.8782 161.023 98.5825 160.859 98.2858 160.697C98.0825 160.582 98.0825 160.582 97.8751 160.465C97.7531 160.398 97.631 160.33 97.5052 160.261C97.2203 160.029 97.2203 160.029 97.0845 159.686C97.0345 159.201 97.2039 158.937 97.4339 158.513C97.513 158.364 97.5921 158.215 97.6736 158.062C97.7495 157.922 97.8255 157.781 97.9038 157.637C98.008 157.431 98.1115 157.225 98.2135 157.018C98.314 156.817 98.314 156.817 98.4165 156.612C98.5292 156.612 98.642 156.612 98.7582 156.612C98.8036 156.465 98.849 156.319 98.8957 156.167C99.1017 155.582 99.3516 155.05 99.634 154.497C99.726 154.316 99.8181 154.135 99.913 153.949C99.983 153.813 100.053 153.676 100.125 153.536C100.238 153.536 100.351 153.536 100.467 153.536C100.509 153.423 100.552 153.311 100.595 153.194C101.132 151.905 101.83 150.706 102.528 149.499C103.328 148.119 103.328 148.119 104.055 146.701C104.168 146.701 104.281 146.701 104.397 146.701C104.457 146.491 104.457 146.491 104.517 146.276C104.785 145.552 105.15 144.934 105.551 144.277C105.705 144.019 105.86 143.76 106.014 143.502C106.088 143.377 106.163 143.252 106.24 143.123C106.597 142.518 106.93 141.899 107.263 141.28C107.797 140.29 108.376 139.327 108.965 138.368C109.203 137.978 109.203 137.978 109.353 137.474C109.465 137.474 109.578 137.474 109.694 137.474C109.807 137.192 109.92 136.91 110.036 136.619Z" fill="#40A248"/>
<path d="M187.098 109.109C187.388 109.531 187.64 109.944 187.889 110.39C187.963 110.521 188.038 110.652 188.115 110.786C188.348 111.194 188.578 111.604 188.807 112.014C188.946 112.261 189.086 112.508 189.225 112.755C189.421 113.103 189.616 113.45 189.811 113.799C190.396 114.846 191.009 115.875 191.642 116.894C191.912 117.36 192.069 117.822 192.225 118.336C192.337 118.336 192.45 118.336 192.566 118.336C192.738 118.67 192.909 119.005 193.079 119.34C193.222 119.62 193.222 119.62 193.367 119.905C193.592 120.387 193.592 120.387 193.592 120.728C193.704 120.728 193.817 120.728 193.933 120.728C193.975 120.818 194.017 120.908 194.06 121C194.726 122.379 195.51 123.684 196.293 124.999C196.567 125.46 196.836 125.924 197.105 126.389C197.425 126.938 197.748 127.485 198.078 128.028C200.144 131.428 200.144 131.428 200.085 132.519C199.977 132.577 199.869 132.635 199.758 132.695C197.346 134.002 197.346 134.002 195.001 135.424C194.446 135.766 194.446 135.766 194.104 135.766C194.104 135.878 194.104 135.991 194.104 136.107C193.928 136.16 193.752 136.213 193.57 136.268C192.721 136.582 191.998 137.079 191.248 137.576C190.537 138.043 189.819 138.435 189.05 138.801C188.416 139.125 187.83 139.52 187.233 139.908C186.616 140.297 185.979 140.639 185.336 140.983C184.89 141.226 184.456 141.483 184.023 141.746C183.307 142.18 182.581 142.584 181.845 142.982C179.395 144.286 179.395 144.286 177.052 145.77C176.651 146.034 176.241 146.262 175.818 146.489C174.798 147.041 173.786 147.606 172.777 148.175C172.606 148.271 172.436 148.367 172.261 148.465C171.611 148.832 170.97 149.195 170.351 149.611C169.74 150.014 169.106 150.355 168.463 150.702C167.649 151.142 166.843 151.597 166.038 152.052C165.867 152.149 165.695 152.246 165.519 152.345C164.453 152.95 163.396 153.566 162.348 154.202C161.458 154.741 160.557 155.258 159.651 155.769C159.261 155.993 158.876 156.222 158.493 156.457C158.312 156.568 158.13 156.679 157.943 156.794C157.782 156.895 157.621 156.995 157.455 157.099C157.024 157.296 157.024 157.296 156.674 157.271C156.279 157.098 155.926 156.895 155.561 156.666C154.976 156.3 154.381 155.961 153.774 155.632C152.678 155.038 151.599 154.417 150.52 153.793C150.331 153.684 150.142 153.575 149.947 153.463C148.966 152.896 147.99 152.324 147.02 151.739C146.26 151.281 145.496 150.828 144.732 150.376C144.498 150.236 144.498 150.236 144.26 150.094C143.022 149.362 141.765 148.671 140.498 147.991C138.629 146.987 136.805 145.899 135.002 144.779C134.216 144.292 133.418 143.84 132.602 143.403C131.805 142.964 131.025 142.497 130.242 142.033C129.564 141.632 128.883 141.242 128.189 140.871C127.327 140.408 126.5 139.897 125.674 139.375C125.031 138.98 124.366 138.627 123.703 138.268C122.812 137.779 121.934 137.268 121.055 136.759C120.766 136.592 120.766 136.592 120.472 136.422C119.567 135.899 118.663 135.375 117.761 134.845C117.613 134.758 117.465 134.671 117.312 134.582C117.037 134.421 116.764 134.26 116.49 134.097C116.369 134.026 116.247 133.955 116.122 133.882C116.018 133.82 115.914 133.759 115.806 133.695C115.481 133.534 115.172 133.449 114.818 133.373C114.818 133.261 114.818 133.148 114.818 133.032C114.684 132.979 114.55 132.926 114.412 132.871C113.963 132.69 113.963 132.69 113.622 132.519C113.72 131.906 113.88 131.44 114.184 130.9C114.263 130.758 114.342 130.616 114.424 130.47C114.508 130.321 114.592 130.173 114.679 130.02C114.852 129.711 115.024 129.402 115.197 129.093C115.321 128.873 115.321 128.873 115.448 128.647C115.709 128.182 115.964 127.713 116.217 127.243C116.641 126.464 117.08 125.693 117.522 124.923C118.578 123.081 119.618 121.23 120.628 119.361C120.74 119.361 120.853 119.361 120.969 119.361C121.005 119.196 121.04 119.03 121.076 118.86C121.227 118.331 121.44 117.942 121.757 117.494C122.443 116.488 123.037 115.432 123.639 114.374C123.862 113.983 124.085 113.593 124.308 113.203C124.405 113.032 124.503 112.861 124.603 112.684C124.912 112.163 125.245 111.663 125.583 111.159C125.798 110.756 126.004 110.349 126.208 109.939C126.437 109.622 126.437 109.622 126.76 109.471C127.217 109.445 127.449 109.563 127.847 109.782C127.968 109.847 128.088 109.912 128.213 109.979C128.304 110.03 128.394 110.081 128.488 110.134C128.488 110.247 128.488 110.36 128.488 110.476C128.604 110.49 128.72 110.504 128.84 110.519C129.289 110.633 129.561 110.756 129.951 110.989C130.409 111.255 130.711 111.419 131.222 111.501C131.222 111.614 131.222 111.727 131.222 111.843C131.407 111.917 131.407 111.917 131.596 111.992C132.041 112.17 132.486 112.348 132.931 112.526C132.931 112.639 132.931 112.752 132.931 112.868C133.079 112.9 133.079 112.9 133.231 112.932C133.62 113.041 133.919 113.184 134.27 113.381C134.394 113.451 134.518 113.521 134.646 113.592C134.778 113.667 134.91 113.742 135.045 113.819C135.182 113.896 135.319 113.973 135.46 114.052C135.87 114.283 136.28 114.515 136.69 114.748C136.909 114.871 137.127 114.994 137.346 115.117C138.318 115.667 139.277 116.231 140.225 116.82C140.864 117.217 141.504 117.598 142.169 117.952C143.283 118.546 144.358 119.208 145.436 119.866C145.579 119.952 145.722 120.039 145.869 120.128C145.998 120.207 146.126 120.285 146.259 120.366C146.617 120.581 146.617 120.581 147.113 120.728C147.113 120.841 147.113 120.954 147.113 121.07C147.21 121.089 147.306 121.107 147.406 121.126C147.858 121.259 148.189 121.459 148.587 121.711C149.439 122.235 150.314 122.685 151.214 123.121C151.442 123.234 151.67 123.348 151.898 123.462C151.898 123.575 151.898 123.688 151.898 123.804C151.989 123.821 152.08 123.838 152.174 123.855C152.706 124.012 153.152 124.263 153.639 124.53C153.835 124.637 154.032 124.744 154.235 124.854C154.576 125.045 154.915 125.241 155.248 125.446C155.376 125.525 155.504 125.603 155.636 125.684C155.745 125.754 155.853 125.825 155.966 125.897C156.71 126.152 157.371 125.928 158.067 125.618C158.241 125.52 158.415 125.422 158.594 125.321C158.786 125.213 158.979 125.105 159.177 124.994C159.369 124.883 159.561 124.773 159.758 124.659C159.934 124.559 160.11 124.459 160.292 124.356C161.139 123.868 161.97 123.363 162.791 122.832C163.41 122.434 164.026 122.083 164.69 121.768C165.088 121.566 165.464 121.343 165.844 121.111C166.716 120.584 167.598 120.078 168.484 119.575C169.627 118.924 170.768 118.268 171.901 117.599C172.019 117.53 172.136 117.461 172.257 117.39C172.798 117.071 173.337 116.751 173.875 116.427C174.151 116.262 174.151 116.262 174.432 116.093C174.59 115.998 174.748 115.902 174.911 115.804C175.308 115.602 175.308 115.602 175.821 115.602C175.821 115.489 175.821 115.377 175.821 115.26C175.99 115.26 176.159 115.26 176.333 115.26C176.333 115.148 176.333 115.035 176.333 114.919C176.55 114.803 176.767 114.69 176.985 114.577C177.106 114.513 177.227 114.45 177.351 114.385C177.7 114.235 177.7 114.235 178.213 114.235C178.213 114.122 178.213 114.01 178.213 113.893C178.378 113.805 178.378 113.805 178.546 113.714C179.811 113.029 181.059 112.318 182.303 111.597C182.489 111.49 182.676 111.382 182.868 111.271C183.053 111.164 183.238 111.057 183.429 110.946C183.612 110.841 183.794 110.736 183.982 110.627C184.361 110.407 184.738 110.183 185.113 109.958C185.388 109.794 185.388 109.794 185.668 109.626C185.832 109.527 185.996 109.427 186.166 109.325C186.586 109.109 186.586 109.109 187.098 109.109Z" fill="#E92127"/>
<path d="M203.689 136.862C204.145 137.239 204.327 137.645 204.59 138.177C205.21 139.395 205.884 140.576 206.577 141.754C206.785 142.11 206.994 142.466 207.203 142.821C207.301 142.989 207.4 143.157 207.501 143.33C207.846 143.92 208.184 144.513 208.52 145.108C208.947 145.859 209.389 146.596 209.845 147.329C210.331 148.114 210.786 148.907 211.222 149.72C212.264 151.629 213.362 153.509 214.469 155.382C214.674 155.73 214.878 156.078 215.083 156.426C215.227 156.672 215.372 156.917 215.517 157.163C215.739 157.54 215.959 157.918 216.178 158.297C216.246 158.412 216.314 158.527 216.384 158.646C216.546 158.928 216.689 159.221 216.829 159.515C216.598 160.208 216.276 160.308 215.654 160.679C215.554 160.739 215.454 160.799 215.351 160.861C214.58 161.32 213.795 161.752 213.004 162.175C212.563 162.417 212.132 162.671 211.703 162.932C211.12 163.287 210.53 163.623 209.93 163.947C209.122 164.383 208.329 164.84 207.538 165.305C206.744 165.77 205.944 166.225 205.145 166.681C204.99 166.77 204.834 166.859 204.674 166.95C203.992 167.34 203.31 167.729 202.627 168.117C202.522 168.176 202.418 168.236 202.31 168.297C202.041 168.451 201.771 168.604 201.502 168.757C201.044 169.023 200.59 169.293 200.137 169.567C199.2 170.131 198.249 170.665 197.296 171.199C196 171.925 194.722 172.668 193.475 173.477C193.077 173.698 193.077 173.698 192.565 173.698C192.565 173.81 192.565 173.923 192.565 174.039C192.421 174.108 192.421 174.108 192.275 174.178C191.085 174.76 189.935 175.402 188.792 176.07C188.564 176.202 188.337 176.334 188.109 176.464C187.753 176.669 187.398 176.876 187.043 177.083C186.932 177.147 186.82 177.211 186.705 177.276C186.051 177.648 186.051 177.648 185.73 178.311C185.714 178.772 185.708 179.228 185.71 179.689C185.71 179.902 185.71 179.902 185.71 180.119C185.71 180.596 185.712 181.074 185.713 181.551C185.713 181.893 185.713 182.234 185.714 182.576C185.714 183.312 185.715 184.048 185.717 184.784C185.719 185.947 185.72 187.11 185.721 188.273C185.723 190.741 185.726 193.209 185.73 195.677C185.733 198.342 185.737 201.007 185.739 203.672C185.74 204.829 185.741 205.986 185.744 207.144C185.745 207.862 185.745 208.58 185.746 209.298C185.746 209.633 185.747 209.967 185.748 210.302C185.749 210.756 185.749 211.211 185.749 211.665C185.75 211.799 185.75 211.933 185.751 212.072C185.749 212.98 185.749 212.98 185.559 213.17C185.228 213.187 184.896 213.191 184.565 213.191C184.349 213.191 184.133 213.191 183.911 213.191C183.669 213.191 183.428 213.19 183.186 213.189C182.934 213.189 182.681 213.189 182.429 213.19C181.741 213.19 181.053 213.189 180.366 213.187C179.648 213.186 178.93 213.186 178.212 213.186C176.851 213.185 175.491 213.184 174.131 213.182C172.582 213.18 171.034 213.179 169.485 213.179C166.299 213.177 163.113 213.174 159.927 213.17C159.88 206.638 159.844 200.106 159.823 193.574C159.82 192.803 159.817 192.032 159.815 191.261C159.814 191.031 159.814 191.031 159.813 190.796C159.804 188.31 159.788 185.824 159.769 183.338C159.75 180.787 159.739 178.237 159.734 175.686C159.732 174.112 159.723 172.538 159.706 170.964C159.695 169.885 159.692 168.806 159.695 167.727C159.696 167.104 159.694 166.481 159.683 165.859C159.671 165.183 159.675 164.508 159.681 163.833C159.675 163.636 159.669 163.439 159.663 163.237C159.675 162.668 159.706 162.261 159.927 161.736C160.554 161.2 161.228 160.875 161.978 160.54C162.282 160.379 162.584 160.215 162.886 160.049C163.115 159.925 163.115 159.925 163.348 159.799C164.067 159.398 164.768 158.971 165.472 158.544C166.101 158.164 166.734 157.8 167.382 157.454C168.075 157.083 168.744 156.684 169.411 156.268C170.203 155.776 171.001 155.315 171.824 154.876C172.321 154.603 172.813 154.324 173.304 154.04C173.466 153.947 173.628 153.853 173.795 153.757C174.124 153.567 174.452 153.377 174.779 153.186C174.93 153.099 175.082 153.011 175.237 152.921C175.374 152.842 175.511 152.763 175.651 152.681C175.99 152.509 175.99 152.509 176.331 152.509C176.331 152.396 176.331 152.283 176.331 152.167C176.482 152.095 176.633 152.022 176.789 151.948C177.965 151.375 179.086 150.774 180.176 150.045C180.646 149.748 181.13 149.508 181.629 149.262C181.975 149.069 182.321 148.873 182.665 148.675C182.877 148.553 183.089 148.431 183.302 148.308C183.475 148.209 183.475 148.209 183.651 148.108C184.043 147.882 184.437 147.658 184.83 147.434C186.452 146.511 188.069 145.579 189.681 144.638C189.937 144.489 189.937 144.489 190.198 144.336C191.026 143.853 191.853 143.369 192.679 142.883C192.976 142.71 193.272 142.536 193.569 142.363C193.705 142.283 193.841 142.202 193.981 142.12C194.918 141.573 194.918 141.573 195.299 141.573C195.355 141.46 195.411 141.347 195.47 141.231C195.77 141.04 195.77 141.04 196.156 140.834C196.296 140.759 196.435 140.684 196.579 140.606C196.72 140.53 196.862 140.455 197.007 140.377C197.254 140.241 197.5 140.104 197.746 139.968C197.868 139.9 197.99 139.833 198.115 139.763C200.571 138.456 200.571 138.456 202.926 136.985C203.33 136.788 203.33 136.788 203.689 136.862Z" fill="#185BA6"/>
</svg>
