<svg xmlns="http://www.w3.org/2000/svg" viewBox="0 0 201 24.09">
  <g fill-rule="nonzero">
    <path fill="#ffffff" d="m.03 23.86 4.33.01-.02-17.44H0l.03 17.43zM17.51 6.45l-2.89-.01a6.72 6.72 0 0 0-6.71 6.71l-.02 10.74 4.34.01.01-10.74a2.39 2.39 0 0 1 2.38-2.38l2.88.01a2.37 2.37 0 0 1 2.37 2.38l-.01 10.74h4.34l.01-10.74c0-3.7-3-6.72-6.7-6.72z"/>
    <path fill="#34acff" d="M27.41 17.19a6.72 6.72 0 0 0 6.7 6.63l2.88.01c3.7 0 6.71-3.01 6.72-6.71V13.1c.01-3.71-3-6.72-6.7-6.73h-.75c-1.54 0-3.06.41-4.37 1.23l-.18.11.01-6.37-4.33-.01.02 15.86zm4.34-4.11a2.37 2.37 0 0 1 2.37-2.37h2.89a2.38 2.38 0 0 1 2.37 2.38l-.01 4.03A2.37 2.37 0 0 1 37 19.49l-2.89-.01a2.37 2.37 0 0 1-2.37-2.37l.01-4.03zm21.28 10.76 2.89.01a6.72 6.72 0 0 0 6.71-6.71l.01-10.74h-4.33l-.01 10.74a2.38 2.38 0 0 1-2.38 2.37l-2.88-.01a2.38 2.38 0 0 1-2.38-2.37l.02-10.74h-4.34l-.01 10.73c-.01 3.7 3 6.72 6.7 6.72zm65.83-17.37h-2.89c-3.7-.01-6.71 3-6.72 6.7v4.03c0 3.7 3 6.72 6.7 6.72l2.89.01c2.97 0 5.63-2 6.45-4.86l-4.17-1.2a2.39 2.39 0 0 1-2.28 1.72l-2.88-.01a2.37 2.37 0 0 1-2.37-2.38v-.07l11.9-1.44h.06l.01-2.5c0-3.7-3-6.72-6.7-6.72zm-5.23 6.32a2.37 2.37 0 0 1 2.34-1.98h2.88c1.18 0 2.15.87 2.33 1.99l-7.65.99.1-1zm-31 11.07 4.33.01-.02-17.44H82.6l.03 17.43zm17.48-17.41-2.89-.01a6.72 6.72 0 0 0-6.71 6.71l-.02 10.74 4.34.01.01-10.74a2.39 2.39 0 0 1 2.38-2.38l2.88.01a2.38 2.38 0 0 1 2.37 2.38l-.01 10.74h4.34l.01-10.74c0-3.7-3-6.72-6.7-6.72zM79.8 11.62v-.22a5.16 5.16 0 0 0-3.2-4.85 8.07 8.07 0 0 0-3.13-.68H71.7a9.23 9.23 0 0 0-3.09.61 5.71 5.71 0 0 0-2.44 1.76 4.31 4.31 0 0 0-.87 2.64c0 1.98 1.15 3.56 3.44 4.68.68.34 1.56.67 2.67 1.01.58.17 1.22.35 1.92.52.62.16 1.11.35 1.35.55.38.29.56.7.56 1.24 0 .47-.17.81-.51 1.07-.35.26-.84.38-1.48.38h-1.61c-.74-.06-1.3-.25-1.66-.59-.43-.39-.64-1.02-.64-1.87v-.21l-4.56-.01v.22a5.47 5.47 0 0 0 .88 3.11c.59.9 1.47 1.61 2.62 2.12 1 .45 2.11.71 3.29.77h1.67c2.01 0 3.62-.44 4.77-1.31a4.42 4.42 0 0 0 1.78-3.7c0-2.03-1-3.58-2.9-4.5-.87-.37-1.69-.64-2.92-1.04l-.11-.04-1.71-.56a6.57 6.57 0 0 1-1.7-.78c-.42-.32-.62-.65-.62-1.02 0-.43.18-.78.55-1.07.33-.25.78-.39 1.33-.43l1.4-.01.24.01c.56.04 1.01.21 1.34.51.38.35.57.83.57 1.47v.21l4.54.01zm62.41.07v-.21a5.06 5.06 0 0 0-.84-2.9 5.46 5.46 0 0 0-2.36-1.96 8.15 8.15 0 0 0-3.12-.67l-.47-.01h-1.3a9.23 9.23 0 0 0-3.09.62c-1.05.41-1.87 1-2.44 1.76a4.22 4.22 0 0 0-.87 2.63c0 1.99 1.15 3.56 3.43 4.69.69.34 1.56.67 2.68 1 .57.18 1.22.35 1.91.53.63.15 1.11.35 1.36.54.37.3.56.71.56 1.24-.01.47-.17.82-.51 1.07-.35.26-.84.39-1.49.39h-1.6a2.8 2.8 0 0 1-1.67-.59c-.42-.39-.63-1.02-.63-1.87v-.22h-4.57v.21c0 1.17.3 2.21.89 3.11.58.9 1.47 1.61 2.62 2.13 1 .44 2.11.7 3.29.76h1.67c2.01 0 3.61-.44 4.77-1.31a4.41 4.41 0 0 0 1.78-3.69c0-2.03-1-3.59-2.9-4.5-.87-.38-1.69-.65-2.93-1.05l-.1-.03-1.72-.56a7.76 7.76 0 0 1-1.7-.78c-.41-.32-.61-.66-.61-1.03 0-.43.18-.78.55-1.06.33-.26.78-.4 1.32-.44h1.65c.55.04 1 .22 1.34.52.38.34.57.82.56 1.46v.22h4.54zm16.53.02v-.21a5.11 5.11 0 0 0-3.2-4.86 8.25 8.25 0 0 0-3.13-.68h-1.77a9.23 9.23 0 0 0-3.09.62c-1.04.41-1.86 1-2.43 1.76a4.23 4.23 0 0 0-.88 2.63c0 1.99 1.16 3.56 3.44 4.69.68.34 1.56.67 2.67 1 .58.18 1.22.35 1.92.53.62.15 1.11.35 1.35.54.38.3.56.71.56 1.24 0 .47-.17.82-.51 1.07-.35.26-.84.39-1.48.39h-1.61a2.75 2.75 0 0 1-1.66-.59c-.43-.39-.64-1.02-.64-1.87v-.22h-4.56v.21c0 1.17.29 2.21.88 3.11.59.9 1.47 1.61 2.62 2.13 1.01.44 2.11.7 3.29.76h1.67c2.01 0 3.62-.44 4.77-1.31a4.4 4.4 0 0 0 1.78-3.69c0-2.03-1-3.59-2.89-4.5-.88-.38-1.69-.65-2.93-1.05l-.11-.03-1.71-.56a7.32 7.32 0 0 1-1.7-.78c-.42-.32-.62-.66-.62-1.03 0-.43.18-.78.56-1.06.33-.26.77-.4 1.32-.44h1.64c.56.04 1.01.22 1.34.52.38.34.57.82.57 1.46v.21l4.54.01zm1.05 10.41c0-.52 0-.91.02-1.17.01-.27.08-.46.21-.58.13-.11.34-.18.64-.19a38.85 38.85 0 0 1 2.61 0c.29.01.51.08.64.19.13.12.2.31.21.58a30.73 30.73 0 0 1 0 2.35c-.01.26-.08.45-.21.57-.13.12-.35.19-.64.2a39.56 39.56 0 0 1-2.61 0c-.3-.01-.51-.08-.64-.2-.13-.12-.2-.31-.21-.57-.02-.26-.02-.65-.02-1.18zm11.17 1.97h-4.36V0h4.36v13.2l5.31-7.21h4.82l-5.49 7.53 7.67 10.57h-4.82l-5.32-7.28-2.17 2.82v4.46zm19.94-3.93H201v3.93h-16.02v-3.93l9.63-10.24h-9.13V5.99h15.02v3.93l-9.6 10.24z"/>
  </g>
</svg>
