<svg width="90" height="14" viewBox="0 0 90 14" fill="none" xmlns="http://www.w3.org/2000/svg">
<path d="M1.36523 13.4929H5.20445L7.19788 1.10547H3.39559L1.36523 13.4929Z" fill="#333333"/>
<path d="M11.0365 1.09961L6.45898 7.11008L9.3384 13.487H13.5468L10.6674 7.29333L15.2818 1.09961H11.0365Z" fill="#333333"/>
<path d="M72.2065 1.09961H71.8373L65.2295 9.38234L66.5953 1.09961H62.9407L60.9473 13.487H64.565H65.1556L71.7635 5.13102L70.3976 13.487H74.0523L76.0457 1.09961H72.4649H72.2065Z" fill="#333333"/>
<path d="M55.1882 5.49751H60.3564C60.1718 3.00537 58.1784 1.09961 55.5574 1.09961H51.5336C48.6542 1.09961 46.2916 3.44516 46.0332 6.3038L45.664 8.3195C45.4056 11.1781 47.1407 13.5237 50.0201 13.5237H54.0439C56.6649 13.5237 58.9906 11.6179 59.6181 9.12578H54.5238L54.3023 10.3352L54.2654 10.9216C54.2284 11.4713 53.9331 11.9844 53.564 12.3509C53.1579 12.7174 52.6411 12.9373 52.0873 12.9373C50.9799 12.9373 50.1677 12.0577 50.2416 10.9216L50.2785 10.4085L51.349 4.10484L51.3859 3.7017C51.4967 2.60223 52.3457 1.686 53.4901 1.686C54.5976 1.686 55.4097 2.56558 55.3359 3.7017L55.299 4.21479L55.1882 5.49751Z" fill="#333333"/>
<path d="M41.2719 1.09961H40.6812H36.6205H36.4359H33.335L31.3047 13.5237H35.1439L36.0299 8.3195H40.0537H40.2382H40.6443C42.6377 8.3195 44.4097 6.70694 44.5943 4.72788C44.7419 2.71217 43.2653 1.09961 41.2719 1.09961ZM39.3523 6.67029C38.8354 7.14673 38.171 7.43992 37.4696 7.47657H36.0668L36.9897 1.86924H37.9864C39.4261 1.97919 40.4966 3.18861 40.349 4.65458C40.2752 5.46086 39.906 6.1572 39.3523 6.67029Z" fill="#333333"/>
<path d="M84.2771 7.29319H84.1663C86.0859 7.29319 89.0392 5.68062 89.2237 3.51832C89.4452 0.916227 85.4214 1.09947 85.4214 1.09947H81.9145H81.5084H78.0753L76.0449 13.4869H79.4781H79.8841H83.9079C83.9079 13.4869 87.9317 13.4869 88.1532 10.8848C88.3747 8.28272 84.2771 7.29319 84.2771 7.29319ZM81.7299 1.90576H83.6495C84.2402 1.90576 85.5322 2.63874 85.2369 4.3979C85.1261 5.13089 84.9785 5.31413 84.7201 5.64398C84.0925 6.45026 83.0958 6.89005 82.0991 6.89005H80.8808L81.7299 1.90576ZM83.7972 11.6178C83.1696 12.4241 82.1729 12.9005 81.1762 12.9005H79.8841L80.7332 7.87958H82.0252C83.0219 7.87958 83.5388 8.35602 84.0187 9.1623C84.2402 9.52879 84.3509 9.93193 84.314 10.3717C84.2402 10.8482 84.0556 11.2513 83.7972 11.6178Z" fill="#333333"/>
<path d="M23.6995 5.16767L21.1154 1.09961H16.6856L21.2262 8.42945L21.1154 8.57605C20.3771 9.52893 18.9743 10.2986 17.83 10.6651C17.3501 10.8117 17.0178 10.9216 16.3903 10.9216L15.9473 13.5237C15.9473 13.5237 20.5617 13.7069 22.8135 10.9216C25.0654 8.13626 31.1934 1.09961 31.1934 1.09961H26.7635L23.6995 5.16767Z" fill="#333333"/>
</svg>
