<svg width="3540" height="797" viewBox="0 0 3540 797" fill="none" xmlns="http://www.w3.org/2000/svg">
<g clip-path="url(#clip0_986_130)">
<path d="M1985.36 633.797C1984.65 625.902 1983.84 628.455 1982.95 641.457C1957.55 721.675 1890 777.612 1808.13 792.593C1752.03 802.844 1698.86 794.43 1648.62 767.352C1588.51 734.959 1548.77 675.602 1536.46 607.963C1533.97 594.263 1532.75 575.674 1532.78 552.195C1533.1 388.01 1533.13 221.121 1532.87 51.528C1532.87 50.4916 1533.23 49.6059 1533.96 48.871L1581.32 1.21542C1582.05 0.480514 1582.94 0.113062 1583.99 0.113062C1636.92 0.169593 1688.85 0.169593 1739.76 0.113062C1749.31 0.0942182 1756.54 4.81456 1761.45 14.2741C1761.91 15.1974 1762.65 15.6402 1763.66 15.6026C1766.02 15.546 1767.48 14.406 1768.05 12.1824C1769.93 4.80514 1782.46 0.0847964 1787.71 0.113062C1839.52 0.226124 1891.63 0.188437 1944.04 0C1945.09 0 1945.99 0.367452 1946.74 1.10236L1994.88 49.5777C1995.28 49.9734 1995.47 50.4633 1995.47 51.0475C1995.68 225.219 1995.67 398.798 1995.44 571.783C1995.43 576.512 1995.1 581.384 1994.46 586.396C1994.01 589.939 1993.53 594.518 1993 600.133C1992.27 608.123 1989.72 619.344 1985.36 633.797ZM1943.48 50.4256L1586.46 49.8038C1586.03 49.8001 1585.6 49.8829 1585.19 50.0474C1584.79 50.2119 1584.43 50.4549 1584.12 50.7624C1583.81 51.0698 1583.57 51.4357 1583.4 51.8387C1583.23 52.2418 1583.15 52.6742 1583.15 53.1109L1582.27 561.155C1582.23 585.442 1586.89 609.499 1595.98 631.953C1605.07 654.407 1618.41 674.818 1635.24 692.021C1652.07 709.223 1672.07 722.88 1694.08 732.211C1716.1 741.543 1739.71 746.367 1763.55 746.407H1764C1812.16 746.488 1858.38 727.082 1892.49 692.457C1926.6 657.833 1945.81 610.825 1945.9 561.777L1946.77 53.7327C1946.77 52.8556 1946.42 52.0145 1945.81 51.3943C1945.19 50.7741 1944.35 50.4256 1943.48 50.4256Z" fill="#4E5991"/>
<path d="M1941.77 50.6107C1942.64 50.6107 1943.48 50.9607 1944.09 51.5837C1944.71 52.2068 1945.05 53.0518 1945.05 53.9329L1944.18 564.312C1944.1 613.586 1924.92 660.809 1890.85 695.593C1856.78 730.377 1810.63 749.872 1762.53 749.791H1762.08C1738.27 749.75 1714.7 744.904 1692.71 735.53C1670.72 726.155 1650.76 712.435 1633.95 695.154C1617.13 677.873 1603.81 657.368 1594.74 634.811C1585.66 612.254 1581.01 588.086 1581.05 563.687L1581.92 53.3082C1581.92 52.8695 1582.01 52.4352 1582.17 52.0302C1582.34 51.6253 1582.58 51.2578 1582.89 50.9489C1583.2 50.6401 1583.56 50.3959 1583.97 50.2307C1584.37 50.0654 1584.8 49.9822 1585.23 49.986L1941.77 50.6107ZM1685.82 74.6332L1685.76 93.9988C1685.74 95.1536 1685.21 95.977 1684.16 96.4692L1682.25 97.3495C1681.26 97.8038 1680.77 98.5894 1680.77 99.7063C1680.79 101.372 1681.6 102.224 1683.21 102.262C1687.81 102.338 1692.56 102.328 1697.46 102.233C1698.13 102.215 1698.75 102.025 1699.31 101.666C1700.11 101.136 1700.37 100.303 1700.07 99.1668C1699.99 98.8545 1699.84 98.5635 1699.65 98.3136C1699.45 98.0637 1699.2 97.8607 1698.92 97.7186L1696.36 96.4408C1695.41 95.9676 1694.94 95.1914 1694.96 94.1124L1695.1 66.1713C1695.1 65.9043 1695.04 65.641 1694.92 65.4012C1694.81 65.1614 1694.64 64.9514 1694.44 64.7873C1694.23 64.6231 1693.99 64.509 1693.74 64.4537C1693.48 64.3983 1693.22 64.403 1692.97 64.4676L1683.01 66.8528C1680.47 67.4775 1679.99 68.831 1681.58 70.9134C1682.16 71.6706 1682.85 72.0965 1683.66 72.1912C1685.12 72.3426 1685.84 73.1566 1685.82 74.6332ZM1738.61 88.5185C1740.96 88.1588 1741.4 88.9255 1739.93 90.8185C1737.25 94.2828 1733.3 96.7058 1728.06 98.0878C1727.7 98.1816 1727.38 98.4064 1727.17 98.7199C1726.96 99.0335 1726.86 99.4145 1726.91 99.7915L1727.02 100.587C1727.07 100.974 1727.2 101.348 1727.4 101.684C1727.6 102.02 1727.86 102.313 1728.17 102.544C1728.48 102.774 1728.84 102.939 1729.21 103.027C1729.59 103.115 1729.98 103.126 1730.36 103.057C1744.53 100.445 1751.67 92.4749 1751.76 79.148C1751.79 71.0837 1747.05 63.9281 1738.49 64.4108C1722.25 65.3479 1721.22 91.1025 1738.61 88.5185ZM1785.9 74.2924C1784.81 77.5106 1782.62 79.5172 1779.31 80.3122C1778.85 80.4045 1778.42 80.6309 1778.07 80.9653C1776.88 82.1201 1776.6 83.1518 1777.23 84.0604C1777.76 84.8366 1778.48 85.2246 1779.39 85.2246C1780.27 85.2436 1781.15 85.1868 1782.03 85.0543C1785.77 84.5621 1787.57 86.2185 1787.44 90.0235C1787.24 96.8951 1783.88 98.3149 1777.37 94.2828C1775.67 93.2416 1774.11 93.412 1772.69 94.7939C1771.77 95.6836 1771.4 96.8573 1771.57 98.3149C1771.62 98.8421 1771.81 99.3461 1772.12 99.7753C1772.43 100.204 1772.85 100.543 1773.33 100.757C1781.06 104.202 1787.72 102.489 1793.33 95.6174C1797.84 90.0708 1797.27 85.0069 1791.62 80.4258C1790.84 79.82 1790.7 79.0818 1791.2 78.211L1792.49 75.9109C1792.98 75.0578 1793.29 74.1098 1793.39 73.1289C1793.49 72.148 1793.39 71.1562 1793.09 70.2182C1792.78 69.2803 1792.29 68.4174 1791.64 67.6858C1790.98 66.9542 1790.18 66.3704 1789.29 65.9726C1782.43 62.8869 1776.97 64.78 1772.91 71.6516C1772.76 71.9087 1772.66 72.1968 1772.63 72.4964C1772.59 72.796 1772.62 73.1002 1772.71 73.3883C1772.81 73.6765 1772.96 73.9418 1773.16 74.1664C1773.37 74.3909 1773.62 74.5695 1773.89 74.6899L1774.82 75.0875C1775.19 75.255 1775.6 75.2841 1775.99 75.1695C1776.37 75.0549 1776.7 74.8042 1776.92 74.4628C1779.09 71.15 1781.66 70.1372 1784.64 71.4245C1785.95 71.9735 1786.37 72.9294 1785.9 74.2924ZM1830.86 93.005C1831.39 93.9893 1831.31 94.9075 1830.64 95.7593C1829.87 96.7626 1828.83 97.3873 1827.53 97.6334C1826.65 97.8038 1826.04 98.296 1825.7 99.11C1825.56 99.4626 1825.5 99.847 1825.54 100.228C1825.58 100.608 1825.71 100.973 1825.93 101.287C1826.14 101.601 1826.43 101.856 1826.77 102.026C1827.11 102.196 1827.48 102.278 1827.86 102.262C1831.98 102.148 1836.17 102.092 1840.46 102.092C1844.38 102.092 1845.09 100.596 1842.59 97.605C1842.2 97.1507 1841.63 96.9141 1840.9 96.8952C1840.08 96.8762 1839.49 96.4787 1839.14 95.7025C1838.95 95.3239 1838.88 94.9075 1838.91 94.4531C1839.03 93.3741 1839.61 92.7305 1840.68 92.5223C1841.37 92.4087 1842.05 92.2383 1842.73 92.0111C1843.76 91.6893 1844.41 91.0268 1844.69 90.0235C1844.92 89.2284 1844.75 88.5374 1844.19 87.9506C1842.95 86.616 1841.61 87.0419 1840.29 86.2185C1839.89 85.9913 1839.57 85.6508 1839.36 85.2379C1839.16 84.8249 1839.07 84.357 1839.11 83.8901C1839.61 78.1163 1839.74 72.7591 1839.47 67.8183C1839.36 65.2627 1837.91 64.2499 1835.13 64.78C1834.12 64.9882 1833.3 65.5088 1832.69 66.3417L1816.87 87.979C1816.56 88.3885 1816.38 88.8768 1816.35 89.387C1816.31 89.8971 1816.42 90.4081 1816.66 90.8604C1816.9 91.3128 1817.26 91.6878 1817.71 91.9418C1818.15 92.1958 1818.66 92.3183 1819.17 92.2951L1828.79 91.8124C1829.72 91.7745 1830.41 92.172 1830.86 93.005ZM1855.01 322.269C1854.83 322.164 1854.67 322.013 1854.56 321.829C1854.45 321.646 1854.38 321.437 1854.37 321.222C1854.36 321.006 1854.4 320.791 1854.49 320.597C1854.59 320.403 1854.73 320.236 1854.9 320.111C1889.29 296.06 1902.33 248.583 1891.09 208.887C1875.52 153.743 1825.81 118.419 1770.08 115.324C1751.87 114.302 1732.82 117.576 1712.94 125.149C1684.44 136.015 1662.68 155.399 1647.64 183.302C1628.46 218.853 1624.51 256.099 1635.8 295.038C1648.85 340.017 1682.73 376.931 1715.16 408.904C1741.15 434.554 1767.19 460.347 1793.28 486.281C1812.15 505.051 1828.34 527.426 1833.02 553.72C1838.49 584.217 1828.03 614.856 1805.06 634.761C1783.26 653.672 1751.9 660.572 1724.61 652.621C1687.58 641.86 1661.61 604.037 1670.19 564.596C1673.52 549.3 1683.66 537.98 1700.6 530.635C1705.68 528.448 1720.35 524.842 1725.68 528.676C1725.9 528.845 1726.09 529.069 1726.21 529.327C1726.34 529.585 1726.39 529.869 1726.38 530.153C1726.37 530.437 1726.29 530.713 1726.15 530.956C1726.01 531.199 1725.8 531.4 1725.56 531.543C1685.37 555.509 1706.27 618.859 1754.09 609.858C1761.91 608.381 1768.86 604.633 1774.96 598.613C1797.88 576.011 1784.64 543.867 1765.73 524.757C1747.69 506.489 1729.29 488.117 1710.56 469.642C1683.94 443.347 1658.22 414.98 1639 383.66C1638.79 383.317 1638.49 383.04 1638.13 382.861C1637.77 382.682 1637.37 382.607 1636.97 382.645C1636.57 382.683 1636.19 382.833 1635.87 383.078C1635.55 383.322 1635.3 383.652 1635.16 384.029C1620.43 422.164 1634.21 471.033 1669.21 492.159C1669.48 492.325 1669.71 492.554 1669.87 492.829C1670.03 493.103 1670.13 493.413 1670.14 493.732C1670.16 494.052 1670.1 494.37 1669.97 494.66C1669.83 494.95 1669.63 495.203 1669.38 495.396C1663.57 499.797 1657.57 504.767 1653.06 510.502C1607.87 567.52 1633.76 647.397 1692.04 680.619C1732.66 703.771 1774.82 705.92 1818.52 687.065C1858.02 669.999 1882.22 633.909 1892.63 591.344C1907.92 528.647 1870.75 467.171 1828.14 424.55C1796.75 393.144 1763.78 360.215 1729.24 325.762C1697.49 294.073 1677.35 248.271 1700.49 204.911C1720.77 166.975 1763.8 150.335 1804.3 163.454C1829.29 171.518 1848.34 192.389 1854.59 218.427C1859.89 240.377 1856.05 263.463 1837.09 277.319C1825.76 285.611 1814 288.943 1801.8 287.315C1800.79 287.182 1799.86 286.832 1799 286.264C1798.77 286.11 1798.59 285.899 1798.46 285.651C1798.34 285.403 1798.28 285.126 1798.3 284.846C1798.31 284.567 1798.4 284.295 1798.54 284.056C1798.69 283.817 1798.9 283.619 1799.14 283.481C1822.59 270.675 1827.78 238.815 1810.98 218.484C1800.4 205.706 1781.86 201.163 1766.15 206.303C1739.87 214.906 1731.62 244.466 1743.77 268.034C1748.37 276.969 1753.28 284.04 1758.49 289.246C1782.99 313.628 1806.11 336.874 1827.86 358.985C1846.15 377.574 1861.16 394.839 1872.88 410.778C1877.89 417.612 1882.3 424.408 1886.09 431.166C1886.31 431.557 1886.63 431.877 1887.02 432.087C1887.42 432.297 1887.86 432.388 1888.3 432.349C1888.74 432.31 1889.16 432.143 1889.51 431.868C1889.86 431.592 1890.13 431.22 1890.27 430.797C1901.57 397.631 1896.42 367.087 1874.85 339.165C1869.8 332.615 1863.19 326.983 1855.01 322.269Z" fill="white"/>
<path d="M1684.07 71.8482C1683.26 71.7511 1682.58 71.3141 1682 70.5373C1680.41 68.4011 1680.89 67.0125 1683.42 66.3716L1693.34 63.9247C1693.59 63.8584 1693.86 63.8535 1694.11 63.9104C1694.36 63.9672 1694.6 64.0842 1694.8 64.2526C1695.01 64.421 1695.18 64.6364 1695.29 64.8824C1695.4 65.1284 1695.47 65.3986 1695.47 65.6725L1695.33 94.3369C1695.31 95.4439 1695.77 96.2401 1696.72 96.7256L1699.27 98.0365C1699.55 98.1823 1699.8 98.3905 1699.99 98.6469C1700.19 98.9033 1700.34 99.2018 1700.41 99.5221C1700.71 100.687 1700.46 101.542 1699.66 102.086C1699.1 102.455 1698.48 102.649 1697.81 102.668C1692.93 102.765 1688.2 102.775 1683.62 102.697C1682.02 102.659 1681.21 101.785 1681.19 100.076C1681.19 98.9298 1681.68 98.1239 1682.67 97.6578L1684.57 96.7547C1685.61 96.2498 1686.14 95.405 1686.16 94.2204L1686.22 74.3534C1686.24 72.8386 1685.52 72.0035 1684.07 71.8482Z" fill="#4E5991"/>
<path d="M1739.17 88.1041C1720.46 90.699 1721.58 64.8353 1739.05 63.8943C1748.26 63.4095 1753.36 70.5955 1753.33 78.6939C1753.23 92.0773 1745.55 100.081 1730.3 102.704C1729.89 102.773 1729.47 102.763 1729.07 102.674C1728.66 102.586 1728.28 102.42 1727.94 102.189C1727.61 101.957 1727.33 101.663 1727.11 101.325C1726.9 100.988 1726.76 100.613 1726.71 100.223L1726.59 99.4248C1726.54 99.0462 1726.64 98.6636 1726.87 98.3487C1727.09 98.0338 1727.43 97.8081 1727.83 97.7138C1733.46 96.3261 1737.71 93.8927 1740.59 90.4138C1742.18 88.5128 1741.71 87.7429 1739.17 88.1041ZM1741.2 82.4543C1742.35 82.1816 1743.28 81.2205 1743.77 79.7824C1744.26 78.3443 1744.27 76.547 1743.81 74.7858C1743.34 73.0247 1742.44 71.4441 1741.29 70.3915C1740.14 69.339 1738.85 68.9008 1737.69 69.1734C1736.54 69.446 1735.61 70.4071 1735.12 71.8452C1734.63 73.2833 1734.62 75.0807 1735.08 76.8418C1735.55 78.6029 1736.45 80.1836 1737.6 81.2361C1738.75 82.2886 1740.04 82.7268 1741.2 82.4543Z" fill="#4E5991"/>
<path d="M1786 70.9267C1783 69.6078 1780.41 70.6455 1778.22 74.0398C1778 74.3896 1777.66 74.6465 1777.27 74.7639C1776.89 74.8813 1776.47 74.8515 1776.1 74.6799L1775.17 74.2725C1774.89 74.1491 1774.64 73.9662 1774.43 73.7361C1774.23 73.506 1774.07 73.2341 1773.98 72.9389C1773.88 72.6437 1773.85 72.332 1773.89 72.025C1773.92 71.718 1774.02 71.4228 1774.18 71.1595C1778.27 64.1187 1783.77 62.1791 1790.69 65.3407C1791.59 65.7483 1792.39 66.3465 1793.05 67.0961C1793.71 67.8457 1794.21 68.7298 1794.51 69.6908C1794.82 70.6518 1794.92 71.668 1794.82 72.6731C1794.72 73.6781 1794.41 74.6495 1793.91 75.5236L1792.61 77.8802C1792.1 78.7724 1792.25 79.5289 1793.04 80.1495C1798.73 84.8434 1799.31 90.0318 1794.76 95.7149C1789.11 102.756 1782.39 104.511 1774.6 100.981C1774.11 100.762 1773.69 100.415 1773.38 99.9751C1773.06 99.5354 1772.87 99.0189 1772.82 98.4788C1772.65 96.9853 1773.03 95.7827 1773.95 94.8711C1775.38 93.4552 1776.96 93.2806 1778.67 94.3474C1785.23 98.4788 1788.62 97.0241 1788.82 89.9833C1788.96 86.0847 1787.14 84.3876 1783.37 84.8919C1782.48 85.0276 1781.59 85.0858 1780.71 85.0664C1779.78 85.0664 1779.06 84.6688 1778.53 83.8736C1777.89 82.9426 1778.17 81.8855 1779.38 80.7023C1779.73 80.3597 1780.16 80.1277 1780.62 80.0332C1783.96 79.2185 1786.18 77.1626 1787.27 73.8652C1787.74 72.4687 1787.32 71.4892 1786 70.9267Z" fill="#4E5991"/>
<path d="M1829.4 91.9483L1820 92.4472C1819.5 92.4712 1819.01 92.3446 1818.57 92.0821C1818.14 91.8196 1817.78 91.432 1817.55 90.9646C1817.31 90.4971 1817.21 89.969 1817.24 89.4418C1817.28 88.9146 1817.46 88.41 1817.75 87.9868L1833.2 65.6262C1833.81 64.7654 1834.6 64.2274 1835.59 64.0122C1838.31 63.4645 1839.72 64.5111 1839.83 67.1521C1840.09 72.2581 1839.97 77.7944 1839.48 83.7612C1839.44 84.2437 1839.52 84.7273 1839.73 85.1541C1839.93 85.5808 1840.24 85.9327 1840.63 86.1674C1841.92 87.0184 1843.23 86.5783 1844.44 87.9575C1844.98 88.5639 1845.15 89.278 1844.93 90.0996C1844.65 91.1365 1844.02 91.8212 1843.01 92.1538C1842.35 92.3885 1841.69 92.5646 1841.01 92.682C1839.97 92.8972 1839.39 93.5623 1839.29 94.6774C1839.25 95.1469 1839.32 95.5773 1839.5 95.9686C1839.85 96.7706 1840.43 97.1815 1841.23 97.201C1841.94 97.2206 1842.49 97.4651 1842.87 97.9347C1845.32 101.026 1844.63 102.571 1840.79 102.571C1836.61 102.571 1832.51 102.63 1828.49 102.747C1828.12 102.763 1827.76 102.68 1827.43 102.503C1827.09 102.327 1826.81 102.065 1826.6 101.74C1826.39 101.415 1826.26 101.038 1826.22 100.645C1826.18 100.252 1826.24 99.8543 1826.38 99.4899C1826.71 98.6487 1827.3 98.1401 1828.16 97.964C1829.44 97.7097 1830.45 97.0641 1831.2 96.0272C1831.86 95.1469 1831.93 94.1981 1831.42 93.1808C1830.98 92.32 1830.31 91.9092 1829.4 91.9483ZM1832.08 82.2939C1832.68 81.4332 1832.93 80.4355 1832.82 79.3008C1832.69 78.0488 1832.14 77.7749 1831.18 78.4791C1828.78 80.142 1827.06 82.4113 1826 85.2871C1825.92 85.5123 1825.89 85.7542 1825.91 85.9946C1825.93 86.2349 1826 86.4672 1826.11 86.6738C1826.23 86.8805 1826.39 87.0559 1826.58 87.1868C1826.77 87.3177 1826.98 87.4007 1827.2 87.4293C1830.24 87.8401 1832.08 85.4925 1832.08 82.2939Z" fill="#4E5991"/>
<path d="M1855.38 323.259C1863.56 327.951 1870.18 333.557 1875.24 340.077C1896.85 367.871 1902 398.276 1890.69 431.29C1890.54 431.712 1890.28 432.082 1889.93 432.356C1889.58 432.63 1889.15 432.797 1888.71 432.835C1888.27 432.874 1887.83 432.784 1887.43 432.575C1887.04 432.366 1886.72 432.047 1886.5 431.657C1882.7 424.93 1878.29 418.165 1873.27 411.363C1861.53 395.496 1846.51 378.311 1828.19 359.806C1806.41 337.797 1783.26 314.657 1758.73 290.386C1753.51 285.204 1748.59 278.166 1743.99 269.272C1731.82 245.812 1740.08 216.387 1766.4 207.823C1782.13 202.707 1800.69 207.229 1811.28 219.949C1828.11 240.187 1822.91 271.901 1799.43 284.648C1799.19 284.785 1798.98 284.982 1798.83 285.22C1798.69 285.458 1798.6 285.729 1798.59 286.007C1798.57 286.285 1798.63 286.561 1798.75 286.808C1798.88 287.055 1799.06 287.265 1799.29 287.418C1800.15 287.984 1801.09 288.332 1802.1 288.464C1814.31 290.085 1826.09 286.768 1837.43 278.515C1856.42 264.721 1860.27 241.741 1854.96 219.892C1848.7 193.973 1829.62 173.198 1804.6 165.17C1764.04 152.112 1720.95 168.675 1700.65 206.438C1677.47 249.599 1697.64 295.191 1729.44 326.736C1764.02 361.031 1797.03 393.81 1828.47 425.071C1871.14 467.498 1908.35 528.693 1893.05 591.103C1882.63 633.473 1858.39 669.398 1818.84 686.386C1775.08 705.154 1732.86 703.016 1692.19 679.97C1633.83 646.899 1607.9 567.388 1653.15 510.631C1657.67 504.922 1663.68 499.975 1669.5 495.594C1669.75 495.401 1669.95 495.15 1670.08 494.861C1670.22 494.573 1670.28 494.256 1670.26 493.938C1670.24 493.62 1670.15 493.311 1669.99 493.038C1669.83 492.765 1669.6 492.536 1669.33 492.372C1634.27 471.342 1620.48 422.697 1635.23 384.737C1635.38 384.361 1635.62 384.032 1635.94 383.789C1636.26 383.546 1636.64 383.397 1637.04 383.359C1637.44 383.321 1637.84 383.395 1638.2 383.573C1638.56 383.752 1638.86 384.027 1639.08 384.369C1658.32 415.546 1684.07 443.783 1710.73 469.957C1729.49 488.349 1747.91 506.636 1765.98 524.82C1784.91 543.843 1798.17 575.84 1775.22 598.339C1769.11 604.331 1762.15 608.062 1754.32 609.532C1706.43 618.492 1685.51 555.432 1725.76 531.576C1726 531.434 1726.2 531.233 1726.34 530.991C1726.48 530.749 1726.57 530.475 1726.58 530.192C1726.59 529.909 1726.53 529.626 1726.41 529.369C1726.28 529.113 1726.1 528.89 1725.87 528.721C1720.53 524.905 1705.84 528.495 1700.76 530.671C1683.79 537.983 1673.64 549.251 1670.31 564.477C1661.72 603.738 1687.73 641.387 1724.8 652.1C1752.13 660.014 1783.53 653.146 1805.36 634.321C1828.36 614.507 1838.84 584.008 1833.36 553.651C1828.67 527.477 1812.46 505.204 1793.56 486.521C1767.44 460.705 1741.36 435.03 1715.34 409.497C1682.87 377.67 1648.94 340.925 1635.88 296.153C1624.57 257.391 1628.52 220.316 1647.73 184.928C1662.78 157.152 1684.58 137.856 1713.12 127.04C1733.02 119.503 1752.09 116.243 1770.33 117.26C1826.14 120.341 1875.91 155.503 1891.5 210.395C1902.77 249.91 1889.7 297.17 1855.27 321.111C1855.09 321.235 1854.95 321.401 1854.86 321.595C1854.77 321.788 1854.73 322.002 1854.74 322.216C1854.75 322.431 1854.81 322.639 1854.93 322.821C1855.04 323.004 1855.19 323.154 1855.38 323.259Z" fill="#4E5991"/>
<path d="M515.349 210.678C515.105 262.612 515.199 319.755 515.63 382.109C515.704 391.286 519.347 397.212 526.556 399.888C532.061 401.942 538.811 403.006 546.807 403.082C548.193 403.101 548.942 403.807 549.054 405.202L549.447 410.176C549.541 411.495 548.932 412.155 547.621 412.155L456.786 412.183C455.925 412.183 455.494 411.759 455.494 410.911L455.55 405.258C455.55 403.939 456.205 403.261 457.516 403.223C463.733 403.053 469.95 402.111 476.166 400.396C484.34 398.164 487.289 391.352 487.57 383.155C487.701 379.122 487.804 375.212 487.879 371.424C488.665 325.031 488.815 271.515 488.328 210.876C488.31 209.896 487.813 209.397 486.84 209.378C473.657 209.228 461.093 209.425 449.146 209.972C437.349 210.518 429.541 216.021 425.721 226.479C423.081 233.677 421.03 240.536 419.57 247.056C419.433 247.67 419.087 248.217 418.59 248.604C418.093 248.99 417.476 249.193 416.845 249.176L411.48 249.006C410.413 248.969 409.917 248.413 409.992 247.339L413.924 190.977C413.949 190.686 414.076 190.413 414.281 190.206C414.487 190 414.758 189.872 415.048 189.847L417.463 189.705C418.718 189.63 419.757 190.092 420.581 191.09C424.476 195.877 428.146 198.27 431.591 198.27C477.486 198.308 523.372 198.345 569.249 198.383C574.436 198.383 578.677 196.386 581.973 192.391C583.864 190.111 586.242 189.234 589.107 189.762C590.193 189.95 590.745 190.591 590.764 191.684C591.363 210.452 592.496 228.721 594.163 246.491C594.203 246.878 594.091 247.267 593.851 247.577C593.611 247.887 593.26 248.095 592.871 248.159L586.214 249.233C585.521 249.327 585.09 249.035 584.922 248.356C581.018 230.86 576.664 210.565 554.531 209.944C540.731 209.548 528.157 209.303 516.809 209.209C515.836 209.209 515.349 209.699 515.349 210.678Z" fill="black"/>
<path d="M364.713 322.836C366.885 311.247 367.447 298.528 366.398 284.678C363.534 247.508 339.799 218.819 302.976 213.364C274.72 209.18 246.324 225.066 226.831 245.502C226.569 245.765 226.316 245.756 226.072 245.473C224.293 243.438 222.739 241.394 221.41 239.34C221.223 239.019 221.241 238.718 221.466 238.435C234.911 221.853 250.359 209.228 267.811 200.559C321.009 174.188 381.032 205.449 393.475 264.072C399.167 290.943 398.418 317.155 391.228 342.707C378.055 389.43 324.239 431.093 274.13 416.338C242.138 406.898 215.343 374.138 218.994 339.484C219.762 332.211 224.106 328.423 232.027 328.122C272.23 326.577 315.822 325.361 362.803 324.475C363.889 324.457 364.526 323.91 364.713 322.836ZM331.036 394.857C348.956 381.77 357.186 362.888 360.275 341.265C360.425 340.248 359.985 339.729 358.955 339.711C325.287 339.164 292.865 339.126 261.688 339.597C259.451 339.63 257.295 340.446 255.593 341.907C253.891 343.367 252.748 345.379 252.362 347.597C251.969 349.952 252.025 352.958 252.531 356.613C255.901 380.667 275.085 404.241 300.336 404.947C311.234 405.23 321.468 401.866 331.036 394.857Z" fill="black"/>
<path d="M2531.91 208.982C2518.28 209.406 2499.72 207.229 2487.58 212.543C2478.29 216.613 2474.27 233.262 2472.13 242.674C2471.8 244.238 2470.83 245.011 2469.24 244.992L2465.28 244.935C2464.01 244.935 2463.42 244.285 2463.51 242.985L2467.05 193.605C2467.13 192.625 2467.63 192.013 2468.57 191.768C2470.42 191.287 2472.33 191.966 2473.54 193.464C2476.42 197.138 2479.89 198.976 2483.93 198.976C2523.72 198.976 2564.77 198.985 2607.07 199.004C2612.63 199.004 2615.92 196.799 2619.59 192.955C2621.41 191.071 2623.32 190.788 2625.32 192.107C2625.67 192.333 2625.95 192.641 2626.14 193.002C2626.33 193.363 2626.43 193.765 2626.42 194.171C2626.23 210.207 2627.12 225.969 2629.09 241.459C2629.31 243.287 2628.51 244.304 2626.67 244.511L2622.57 244.964C2621.22 245.114 2620.44 244.521 2620.21 243.183C2617.85 228.937 2612.35 211.695 2597.38 210.141C2586.24 208.972 2573.5 208.699 2559.18 209.321C2558.97 209.328 2558.77 209.418 2558.62 209.571C2558.47 209.724 2558.39 209.928 2558.39 210.141C2558.35 262.111 2558.4 314.007 2558.53 365.827C2558.56 381.373 2574.43 383.408 2586.93 383.352C2587.21 383.348 2587.49 383.401 2587.75 383.509C2588.02 383.617 2588.26 383.776 2588.46 383.979C2588.66 384.181 2588.82 384.423 2588.93 384.689C2589.04 384.954 2589.09 385.24 2589.09 385.528V389.626C2589.09 391.115 2588.35 391.859 2586.87 391.859H2506.37C2504.88 391.859 2504.15 391.106 2504.21 389.598L2504.35 385.132C2504.39 384.058 2504.94 383.512 2506.01 383.493C2519.35 383.125 2533.73 381.514 2533.76 363.933C2533.82 312.038 2533.82 260.99 2533.79 210.791C2533.79 209.547 2533.16 208.944 2531.91 208.982Z" fill="black"/>
<path d="M2.25171 286.204C11.4083 235.354 50.4221 203.358 100.109 195.5C128.478 191.006 154.936 194.652 182.181 201.945C182.788 202.104 183.332 202.44 183.743 202.909C184.153 203.378 184.412 203.958 184.485 204.573L190.608 250.646C190.701 251.249 190.458 251.635 189.878 251.805L181.704 254.179C181.292 254.292 181.039 254.141 180.946 253.727C173.942 222.691 155.039 206.458 124.237 205.025C87.9847 203.33 61.6385 218.197 45.1978 249.628C26.8846 284.593 29.7496 335.697 51.7422 368.767C71.207 398.079 106.963 413.003 140.668 402.545C162.408 395.789 176.62 376.032 186.647 355.257C186.928 354.654 187.378 354.475 187.996 354.72L194.933 357.574C195.738 357.895 196.019 358.469 195.776 359.298C191.226 374.637 185.739 389.91 179.317 405.117C178.916 406.064 178.304 406.903 177.528 407.565C176.752 408.228 175.835 408.696 174.851 408.933C145.302 416.225 116.091 420.324 86.7957 414.077C47.6227 405.71 21.2109 383.786 7.56029 348.303C0.0702348 328.857 -1.69929 308.157 2.25171 286.204Z" fill="black"/>
<path d="M927.366 333.944L859.899 333.972C858.944 333.972 858.307 334.424 857.989 335.329C852.577 350.347 847.175 366.298 841.782 383.182C839.788 389.401 838.749 397.174 846.501 399.944C851.594 401.753 857.071 402.846 862.932 403.223C863.85 403.279 864.318 403.778 864.337 404.721L864.449 410.741C864.468 411.683 864 412.164 863.045 412.183L795.241 412.211C794.984 412.211 794.73 412.159 794.493 412.058C794.256 411.957 794.041 411.808 793.861 411.622C793.68 411.435 793.538 411.213 793.442 410.97C793.347 410.727 793.299 410.466 793.303 410.204L793.387 405.286C793.393 404.64 793.644 404.021 794.087 403.553C794.53 403.086 795.134 402.806 795.775 402.77C814.088 401.725 821.7 391.238 827.795 375.664C850.602 317.286 873.755 258.23 897.256 198.496C898.576 195.16 902.62 194.736 905.71 193.888C907.245 193.455 908.275 193.992 908.8 195.499C935.745 271.892 957.213 331.946 973.205 375.664C979.44 392.764 986.069 401.979 1005.42 403.251C1006.77 403.345 1007.45 404.071 1007.47 405.427L1007.56 410.091C1007.56 410.364 1007.51 410.636 1007.41 410.89C1007.31 411.143 1007.16 411.374 1006.97 411.569C1006.79 411.763 1006.56 411.918 1006.31 412.023C1006.07 412.129 1005.8 412.183 1005.53 412.183L928.854 412.154C927.693 412.154 927.131 411.57 927.169 410.402L927.309 404.692C927.347 403.712 927.852 403.166 928.826 403.053C937.28 402.12 952.223 400.735 947.617 387.733C942.935 374.561 936.822 357.093 929.275 335.329C928.957 334.406 928.321 333.944 927.366 333.944ZM864.112 317.917C864.013 318.19 863.98 318.484 864.017 318.772C864.055 319.061 864.16 319.336 864.326 319.574C864.491 319.813 864.711 320.008 864.967 320.142C865.224 320.277 865.508 320.348 865.797 320.348L921.523 320.32C921.811 320.322 922.096 320.255 922.353 320.124C922.609 319.993 922.831 319.801 922.999 319.566C923.167 319.33 923.276 319.058 923.318 318.771C923.359 318.484 923.331 318.191 923.237 317.917L896.301 239.368C896.181 239.011 895.955 238.7 895.652 238.479C895.349 238.258 894.985 238.137 894.611 238.134C894.237 238.131 893.871 238.246 893.565 238.462C893.259 238.678 893.027 238.984 892.902 239.339L864.112 317.917Z" fill="black"/>
<path d="M2259.8 341.972C2258.17 376.597 2228.87 395.507 2196.23 395.902C2187.61 396.015 2152.28 392.539 2150.28 381.515C2147.85 367.967 2145.66 354.654 2143.71 341.576C2143.54 340.351 2144.06 339.56 2145.26 339.202L2149.83 337.902C2150.09 337.825 2150.36 337.8 2150.63 337.83C2150.89 337.86 2151.15 337.943 2151.38 338.075C2151.61 338.207 2151.82 338.384 2151.98 338.597C2152.15 338.81 2152.27 339.054 2152.33 339.315C2158.63 363.425 2175.7 387.225 2202.81 385.529C2220.18 384.417 2230.88 375.796 2234.88 359.666C2240.39 337.506 2226.54 321.705 2208.51 311.954C2198.6 306.583 2188.99 301.128 2179.66 295.588C2153.12 279.844 2139.92 251.494 2155.51 222.522C2161.8 210.82 2172.12 202.736 2186.46 198.27C2204.02 192.805 2223.52 193.823 2244.94 201.323C2245.86 201.643 2246.37 202.284 2246.48 203.245L2251.23 240.866C2251.34 241.695 2251.01 242.213 2250.22 242.421L2244.88 243.891C2243.61 244.249 2242.82 243.787 2242.52 242.506C2237.02 218.913 2225.68 206.363 2208.51 204.856C2191.97 203.405 2180.51 209.699 2174.1 223.737C2169.8 233.15 2170.76 247.48 2176.38 256.327C2180.74 263.186 2187.61 269.216 2196.99 274.417C2224.38 289.596 2261.59 303.842 2259.8 341.972Z" fill="black"/>
<path d="M2334.36 323.345C2328.87 338.514 2323.73 353.994 2318.94 369.785C2315.48 381.176 2331.66 383.013 2338.46 383.324C2339.81 383.381 2340.49 384.087 2340.51 385.444L2340.57 389.938C2340.57 390.189 2340.52 390.439 2340.43 390.672C2340.34 390.905 2340.2 391.117 2340.02 391.296C2339.84 391.474 2339.63 391.616 2339.39 391.713C2339.16 391.81 2338.91 391.86 2338.66 391.86H2279.17C2277.41 391.86 2276.56 390.975 2276.64 389.203L2276.81 385.783C2276.88 384.031 2277.79 383.117 2279.53 383.042C2291.89 382.457 2300.61 375.777 2305.68 363.001C2327.44 308.091 2348.88 253.491 2370 199.203C2370.36 198.298 2370.98 197.667 2371.86 197.309L2377.56 195.019C2377.81 194.917 2378.08 194.868 2378.35 194.874C2378.62 194.88 2378.88 194.942 2379.13 195.056C2379.38 195.169 2379.6 195.332 2379.78 195.535C2379.97 195.738 2380.11 195.976 2380.2 196.235C2398.98 249.845 2418.88 305.453 2439.91 363.058C2444.88 376.625 2453.92 383.381 2467.05 383.324C2468.39 383.305 2469.08 383.974 2469.1 385.331L2469.15 389.853C2469.16 390.116 2469.11 390.376 2469.01 390.619C2468.91 390.863 2468.77 391.084 2468.59 391.271C2468.4 391.458 2468.19 391.606 2467.95 391.707C2467.7 391.808 2467.45 391.86 2467.19 391.86H2398.57C2398.3 391.86 2398.04 391.807 2397.8 391.705C2397.56 391.602 2397.34 391.451 2397.16 391.261C2396.97 391.071 2396.83 390.846 2396.74 390.6C2396.64 390.353 2396.59 390.09 2396.6 389.825L2396.74 385.048C2396.76 384.59 2396.94 384.153 2397.26 383.823C2397.57 383.494 2398 383.296 2398.46 383.268C2405.62 382.815 2419.3 381.119 2415.48 370.124C2409.58 353.146 2403.94 337.242 2398.57 322.412C2398.45 322.098 2398.25 321.826 2397.98 321.634C2397.72 321.442 2397.4 321.339 2397.08 321.338L2337.17 321.366C2335.78 321.366 2334.85 322.026 2334.36 323.345ZM2339.98 307.149C2339.91 307.319 2339.89 307.501 2339.91 307.682C2339.94 307.862 2340 308.034 2340.1 308.184C2340.2 308.333 2340.34 308.456 2340.5 308.542C2340.66 308.627 2340.84 308.673 2341.02 308.675L2392.59 309.127C2392.76 309.128 2392.94 309.086 2393.1 309.004C2393.26 308.921 2393.4 308.802 2393.5 308.655C2393.61 308.509 2393.68 308.339 2393.7 308.161C2393.73 307.982 2393.71 307.8 2393.65 307.629L2368.51 234.591C2368.44 234.364 2368.3 234.165 2368.11 234.023C2367.92 233.881 2367.69 233.802 2367.46 233.799C2367.22 233.796 2366.99 233.868 2366.8 234.005C2366.6 234.142 2366.46 234.338 2366.38 234.563L2339.98 307.149Z" fill="black"/>
<path d="M2866.09 323.062C2861.35 337.459 2856.56 352.204 2851.71 367.298C2847.16 381.487 2861.45 382.702 2870.81 383.522C2871.76 383.616 2872.25 384.144 2872.27 385.105L2872.35 389.797C2872.37 391.173 2871.71 391.86 2870.36 391.86L2809.91 391.889C2809 391.889 2808.55 391.427 2808.57 390.504V385.048C2808.57 384.031 2809.07 383.466 2810.08 383.352C2818.68 382.42 2826.74 380.356 2831.93 372.781C2835.27 367.92 2838.11 362.464 2840.47 356.415C2860.28 305.669 2880.69 253.614 2901.7 200.249C2903.3 196.207 2905.86 196.602 2909.18 195.161C2909.47 195.029 2909.79 194.96 2910.11 194.958C2910.43 194.955 2910.75 195.02 2911.04 195.147C2911.34 195.275 2911.6 195.462 2911.82 195.698C2912.04 195.934 2912.21 196.213 2912.32 196.518C2931.44 251.089 2950.66 304.85 2969.98 357.8C2975.12 371.961 2981.19 383.211 2998.66 383.155C2999.56 383.155 3000.14 383.588 3000.4 384.455C3000.95 386.207 3001.12 388.035 3000.94 389.938C3000.83 391.22 3000.13 391.86 2998.86 391.86H2930.72C2930.46 391.86 2930.2 391.808 2929.95 391.705C2929.71 391.602 2929.49 391.451 2929.31 391.261C2929.12 391.071 2928.98 390.846 2928.89 390.6C2928.79 390.353 2928.74 390.09 2928.75 389.825L2928.81 385.614C2928.85 384.219 2929.56 383.456 2930.94 383.324C2937.74 382.731 2950.89 380.922 2947.51 370.803C2942.31 355.125 2936.79 339.324 2930.94 323.401C2930.72 322.796 2930.32 322.273 2929.79 321.904C2929.26 321.536 2928.64 321.338 2927.99 321.338L2868.39 321.366C2867.21 321.366 2866.44 321.932 2866.09 323.062ZM2872.04 306.951C2871.97 307.145 2871.95 307.353 2871.97 307.559C2872 307.765 2872.07 307.961 2872.18 308.133C2872.3 308.304 2872.45 308.445 2872.63 308.545C2872.82 308.644 2873.02 308.698 2873.22 308.703L2924.34 309.156C2924.55 309.158 2924.75 309.11 2924.94 309.016C2925.12 308.922 2925.28 308.785 2925.4 308.616C2925.53 308.447 2925.6 308.251 2925.64 308.045C2925.67 307.839 2925.65 307.628 2925.58 307.431L2900.64 235.072C2900.55 234.824 2900.38 234.61 2900.17 234.458C2899.96 234.305 2899.7 234.222 2899.44 234.219C2899.18 234.216 2898.92 234.293 2898.7 234.44C2898.48 234.588 2898.32 234.798 2898.22 235.043L2872.04 306.951Z" fill="black"/>
<path d="M671.263 287.192C671.262 287.38 671.3 287.567 671.376 287.739C671.452 287.911 671.564 288.066 671.704 288.194C671.844 288.322 672.009 288.419 672.19 288.48C672.37 288.541 672.561 288.565 672.751 288.549C685.091 287.607 697.384 287.268 709.631 287.532C752.183 288.408 785.523 309.239 778.839 357.036C772.912 399.378 728.955 411.617 693.115 411.956C665.664 412.201 640.497 412.286 617.615 412.211C616.23 412.211 615.546 411.513 615.565 410.119L615.621 405.512C615.64 404.023 616.389 403.298 617.868 403.335C626.912 403.561 638.26 402.148 642.557 392.651C643.681 390.164 644.242 384.039 644.242 374.278C644.261 327.885 644.261 281.483 644.242 235.071C644.214 223.906 644.804 209.858 629.665 208.219C625.901 207.804 622.306 207.323 618.879 206.777C618.093 206.645 617.699 206.174 617.699 205.364L617.671 199.739C617.671 198.778 618.149 198.297 619.104 198.297H754.683C755.713 198.297 756.275 198.816 756.368 199.852L759.823 243.663C759.861 244.191 759.627 244.511 759.121 244.625L751.509 246.49C750.798 246.66 750.376 246.377 750.245 245.642C746.987 226.959 741.622 210.621 719.096 209.801C705.408 209.293 691.767 209.217 678.172 209.575C673.603 209.688 671.309 212.044 671.291 216.642L671.263 287.192ZM690.166 400.678C716.793 403.222 740.386 392.82 746.79 365.092C748.438 357.969 748.869 349.97 748.083 341.095C746.416 322.609 737.185 310.021 720.388 303.332C719.002 302.785 717.579 302.371 716.119 302.088C712.467 301.438 709.546 299.94 705.811 299.714C695.006 299.073 683.846 298.932 672.33 299.29C672.035 299.305 671.756 299.43 671.552 299.64C671.348 299.851 671.235 300.13 671.235 300.421C671.122 322.185 671.104 344.345 671.178 366.901C671.263 384.171 670.926 398.841 690.166 400.678Z" fill="black"/>
<path d="M1089.13 309.013C1089.49 331.776 1089.56 354.464 1089.36 377.077C1089.21 392.415 1096.53 400.386 1111.32 400.989C1125.33 401.573 1138.2 401.47 1149.94 400.678C1172.13 399.18 1182.21 378.999 1188.36 360.626C1188.8 359.326 1189.67 358.817 1190.98 359.1L1196.57 360.23C1197.86 360.494 1198.36 361.276 1198.08 362.576L1187.66 410.317C1187.38 411.598 1186.59 412.239 1185.28 412.239L1030.32 412.126C1029.4 412.126 1028.95 411.664 1028.97 410.741L1029.08 404.664C1029.1 403.778 1029.55 403.307 1030.43 403.25C1036.12 402.968 1042.01 402.176 1048.1 400.876C1062.73 397.739 1061.63 383.889 1061.63 371.989C1061.63 325.803 1061.71 279.862 1061.86 234.166C1061.88 226.478 1061.17 221.023 1059.75 217.801C1055.06 207.144 1044.5 209.208 1034.78 207.173C1034.39 207.094 1034.04 206.882 1033.79 206.573C1033.54 206.264 1033.4 205.876 1033.41 205.477V199.739C1033.41 198.778 1033.87 198.297 1034.81 198.297H1177.86C1178.19 198.297 1178.51 198.426 1178.75 198.657C1178.99 198.888 1179.13 199.204 1179.15 199.541L1181.76 244.285C1181.8 244.983 1181.48 245.397 1180.81 245.529L1173.96 246.999C1173.79 247.036 1173.62 247.039 1173.45 247.007C1173.28 246.975 1173.12 246.91 1172.98 246.815C1172.84 246.72 1172.72 246.597 1172.63 246.454C1172.53 246.311 1172.47 246.15 1172.44 245.981C1171.02 237.916 1168.29 230.002 1164.27 222.238C1158.82 211.667 1147.55 209.66 1136.94 209.547C1122.46 209.415 1108.57 209.387 1095.25 209.462C1091.38 209.481 1089.44 211.441 1089.44 215.341L1089.38 293.467C1089.38 293.857 1089.53 294.234 1089.8 294.515C1090.07 294.796 1090.45 294.958 1090.84 294.965C1103.11 295.229 1115.51 295.21 1128.03 294.909C1136.52 294.711 1144.46 294.994 1149.8 288.408C1152.87 284.601 1154.62 279.287 1155.05 272.466C1155.09 271.916 1155.33 271.401 1155.74 271.028C1156.14 270.654 1156.67 270.451 1157.22 270.459L1163.25 270.572C1163.75 270.58 1164.22 270.782 1164.57 271.137C1164.91 271.491 1165.11 271.969 1165.11 272.466L1165.14 331.315C1165.14 332.653 1164.48 333.322 1163.17 333.322L1157.52 333.35C1156.23 333.35 1155.48 332.709 1155.28 331.428C1153.03 317.578 1149.58 307.798 1133.82 307.826C1118.73 307.845 1104.21 307.845 1090.28 307.826C1090.13 307.826 1089.98 307.857 1089.84 307.917C1089.69 307.977 1089.57 308.065 1089.46 308.176C1089.35 308.286 1089.27 308.417 1089.21 308.561C1089.15 308.705 1089.13 308.859 1089.13 309.013Z" fill="black"/>
<path d="M1331.8 298.329C1355.62 301.353 1380.17 313.903 1384.46 339.201C1393.23 390.616 1341.24 411.419 1300.23 411.787C1274.03 412.013 1246.82 412.154 1218.61 412.21C1217.78 412.21 1217.37 411.796 1217.37 410.967L1217.4 404.72C1217.4 403.835 1217.84 403.373 1218.72 403.335C1235.88 402.459 1248.01 401.413 1247.96 380.073C1247.86 333.868 1247.84 284.611 1247.9 232.301C1247.92 228.965 1247.75 225.611 1247.39 222.238C1245.82 207.286 1232.14 208.869 1221.55 207.116C1220.62 206.965 1220.16 206.419 1220.18 205.477V199.767C1220.18 199.385 1220.33 199.018 1220.61 198.748C1220.88 198.477 1221.25 198.326 1221.64 198.326C1250.34 198.25 1280.19 198.269 1311.18 198.382C1322.42 198.439 1332.91 200.266 1342.67 203.866C1358.88 209.839 1368.33 221.663 1371.01 239.339C1375.17 266.643 1357.86 287.277 1332.5 294.004C1331.86 294.174 1331.36 294.513 1330.98 295.022C1330.67 295.474 1330.47 295.983 1330.39 296.548C1330.35 296.971 1330.47 297.397 1330.73 297.73C1330.99 298.064 1331.38 298.279 1331.8 298.329ZM1338.03 231.283C1329.35 210.367 1303.91 205.024 1283.71 210.112C1277.81 211.601 1274.92 215.756 1275.03 222.577C1275.43 245.557 1274.95 268.622 1274.98 291.545C1274.98 292.582 1275.48 293.137 1276.49 293.213C1298.35 294.57 1327.44 293.467 1337.5 272.07C1343.68 258.917 1343.86 245.322 1338.03 231.283ZM1351.97 338.72C1346.57 315.543 1324.13 305.565 1302.73 304.321C1294.06 303.812 1285.37 303.614 1276.66 303.728C1276.24 303.735 1275.84 303.907 1275.54 304.207C1275.24 304.508 1275.07 304.914 1275.06 305.339C1274.84 331.136 1274.9 355.708 1275.26 379.055C1275.71 407.236 1307.28 403.674 1325.39 397.088C1349.61 388.298 1357.39 361.785 1351.97 338.72Z" fill="black"/>
<path d="M2751.1 289.595C2778.37 292.449 2800 309.55 2797.95 339.116C2795.25 378.207 2752 390.672 2720.09 391.435C2696.18 392 2672.44 392.114 2648.89 391.774C2647.61 391.755 2646.99 391.115 2647 389.852L2647.06 385.584C2647.06 384.096 2647.81 383.361 2649.31 383.379C2660.65 383.577 2674.25 381.231 2674.31 367.127C2674.53 324.616 2674.55 276.555 2674.36 222.945C2674.33 210.084 2662.79 207.399 2651.86 207.738C2651.56 207.749 2651.25 207.698 2650.96 207.586C2650.67 207.474 2650.41 207.305 2650.19 207.088C2649.97 206.871 2649.79 206.612 2649.68 206.325C2649.56 206.038 2649.5 205.73 2649.5 205.42L2649.53 201.039C2649.55 199.852 2650.15 199.239 2651.33 199.201C2687.83 198.41 2718 198.683 2741.86 200.021C2747.81 200.342 2754.36 202 2761.52 204.996C2780.11 212.769 2788.59 232.018 2785 251.238C2781.63 269.102 2767.47 280.776 2750.56 285.185C2749.14 285.562 2748.64 286.467 2749.05 287.899C2749.18 288.35 2749.44 288.752 2749.81 289.054C2750.17 289.355 2750.62 289.544 2751.1 289.595ZM2700.06 284.789C2721.35 286.118 2752.61 284.62 2758.04 257.457C2763.06 232.329 2751.66 211.299 2724.44 208.501C2716.35 207.681 2699.14 207.512 2699.08 219.27C2698.95 240.658 2698.91 262.102 2698.97 283.602C2698.97 284.356 2699.33 284.752 2700.06 284.789ZM2711.83 380.723C2726.75 384.425 2746.52 380.553 2758.09 368.964C2768.4 358.675 2771.18 343.073 2768.88 329.025C2763.48 295.954 2727.22 292.138 2700.51 293.947C2699.48 294.023 2698.97 294.579 2698.97 295.615C2698.82 317.964 2698.88 340.02 2699.16 361.785C2699.29 372.318 2703.52 378.631 2711.83 380.723Z" fill="black"/>
<path d="M3040.55 212.374C3039.78 213.088 3039.27 214.043 3039.1 215.085C3038.94 216.128 3039.13 217.195 3039.65 218.112L3080.94 291.574C3081.09 291.842 3081.3 292.064 3081.56 292.219C3081.82 292.374 3082.12 292.455 3082.43 292.455C3082.73 292.455 3083.04 292.374 3083.3 292.219C3083.57 292.064 3083.79 291.842 3083.95 291.574C3096.57 269.226 3108.48 246.547 3119.67 223.539C3126.89 208.672 3111.86 208.417 3102.74 207.484C3102.1 207.427 3101.51 207.124 3101.09 206.639C3100.67 206.155 3100.46 205.526 3100.49 204.884L3100.69 201.068C3100.74 199.674 3101.46 198.977 3102.85 198.977H3163.04C3163.4 198.977 3163.76 199.048 3164.1 199.188C3164.44 199.328 3164.74 199.532 3165 199.79C3165.25 200.047 3165.45 200.353 3165.59 200.689C3165.73 201.025 3165.8 201.384 3165.79 201.747L3165.77 204.884C3165.76 205.689 3165.43 206.458 3164.87 207.024C3164.3 207.591 3163.53 207.908 3162.73 207.908C3150.99 207.965 3141.69 213.326 3134.84 223.992C3119.65 247.716 3105.08 272.9 3091.11 299.545C3089.25 303.078 3088.07 308.562 3088.05 312.547C3087.9 328.527 3087.93 344.921 3088.16 361.729C3088.27 369.87 3089.76 378.604 3098.97 381.063C3104.98 382.683 3110.68 383.437 3116.05 383.324C3116.27 383.32 3116.5 383.362 3116.71 383.447C3116.92 383.531 3117.11 383.657 3117.27 383.818C3117.43 383.978 3117.56 384.169 3117.65 384.38C3117.74 384.591 3117.79 384.818 3117.79 385.048L3117.85 389.599C3117.87 391.107 3117.13 391.86 3115.63 391.86H3036.56C3035.1 391.86 3034.38 391.116 3034.4 389.627L3034.51 385.048C3034.52 384.618 3034.69 384.209 3035 383.907C3035.3 383.606 3035.71 383.437 3036.14 383.437C3047.52 383.55 3062.82 382.052 3063.13 366.817C3063.49 349.33 3063.53 331.495 3063.27 313.311C3063.16 305.961 3058.41 299.715 3054.87 293.327C3042.65 271.148 3029.78 248.62 3016.28 225.744C3009.71 214.607 3002.83 208.219 2990.3 207.654C2988.39 207.579 2987.43 206.58 2987.41 204.658V201.944C2987.41 199.966 2988.39 198.977 2990.36 198.977H3055.07C3057.02 198.977 3057.97 199.956 3057.94 201.916L3057.88 205.251C3057.87 205.854 3057.63 206.43 3057.22 206.869C3056.8 207.307 3056.24 207.577 3055.63 207.626C3048.42 208.172 3043.4 209.755 3040.55 212.374Z" fill="black"/>
<path d="M3232.61 299.149C3232.33 331.165 3232.45 352.986 3232.95 364.612C3233.4 374.882 3239.43 380.422 3251.04 381.232C3264.97 382.194 3277.88 382.043 3289.77 380.78C3307.58 378.915 3316.96 359.807 3321.68 344.205C3321.75 343.96 3321.91 343.856 3322.16 343.894L3329.66 344.94C3330.31 345.034 3330.57 345.401 3330.44 346.042L3320.67 390.56C3320.59 390.929 3320.39 391.26 3320.1 391.497C3319.81 391.734 3319.44 391.862 3319.07 391.86H3180.51C3180.22 391.86 3179.93 391.802 3179.67 391.69C3179.4 391.577 3179.16 391.412 3178.95 391.205C3178.75 390.997 3178.59 390.75 3178.48 390.48C3178.37 390.209 3178.32 389.919 3178.32 389.627L3178.4 385.529C3178.41 384.998 3178.62 384.489 3178.98 384.106C3179.35 383.723 3179.84 383.494 3180.37 383.465C3197.34 382.533 3207.84 380.724 3207.84 360.288C3207.84 317.645 3207.84 275.482 3207.84 233.8C3207.84 229.39 3207.51 225.009 3206.86 220.656C3205.06 208.643 3194.36 208.191 3184.84 207.626C3183.08 207.532 3182.2 206.589 3182.2 204.799V201.803C3182.2 199.919 3183.12 198.977 3184.98 198.977H3311.2C3311.76 198.976 3312.29 199.19 3312.69 199.574C3313.1 199.958 3313.34 200.483 3313.37 201.04L3315.56 240.696C3315.59 241.356 3315.29 241.771 3314.66 241.94C3312 242.656 3309.76 242.92 3307.95 242.732C3307.48 242.675 3307.2 242.421 3307.1 241.968C3305.44 233.112 3302.73 225.537 3298.99 219.243C3295.63 213.646 3289.9 210.547 3281.8 209.944C3268.33 208.983 3253.62 208.775 3237.67 209.322C3234.28 209.435 3232.58 211.206 3232.56 214.636L3232.47 284.621C3232.47 285.021 3232.63 285.405 3232.91 285.69C3233.19 285.976 3233.56 286.14 3233.96 286.147C3247.05 286.373 3260.43 286.317 3274.1 285.978C3285.87 285.695 3290.45 277.611 3291.6 266.333C3291.75 264.92 3292.53 264.185 3293.93 264.129L3298.03 263.987C3298.33 263.98 3298.62 264.032 3298.9 264.141C3299.17 264.249 3299.42 264.413 3299.64 264.621C3299.85 264.829 3300.02 265.078 3300.13 265.352C3300.25 265.627 3300.31 265.922 3300.31 266.22V318.935C3300.31 320.405 3299.58 321.14 3298.11 321.14C3295.64 321.14 3294.4 321.14 3294.38 321.14C3292.84 321.14 3291.98 320.396 3291.79 318.907C3290.98 312.66 3288.76 302.174 3282.16 300.026C3267.84 295.39 3250.06 297.595 3234.66 297.143C3233.32 297.105 3232.63 297.774 3232.61 299.149Z" fill="black"/>
<path d="M3439.73 348.387C3441.64 353.475 3443.6 353.503 3445.6 348.472C3462.25 306.903 3476.37 269.291 3487.96 235.636C3489.72 230.492 3491.15 225.611 3492.26 220.995C3494.98 209.519 3479.56 208.162 3472.06 207.738C3470.55 207.644 3469.8 206.834 3469.82 205.307V200.559C3469.82 200.139 3469.98 199.736 3470.28 199.44C3470.58 199.143 3470.99 198.976 3471.42 198.976C3490.53 198.995 3510.87 198.976 3532.42 198.919C3535.18 198.919 3536.28 200.267 3535.74 202.961C3535.7 203.15 3535.7 203.348 3535.74 203.555C3536.15 206.476 3534.86 207.946 3531.86 207.964C3519.93 208.059 3511.14 214.776 3505.49 228.118C3481.5 284.611 3459.7 339.437 3440.1 392.595C3439.61 393.951 3438.65 394.639 3437.21 394.658L3433.02 394.686C3431.43 394.705 3430.36 393.961 3429.82 392.453C3409.16 335.47 3388 279.853 3366.34 225.602C3361.62 213.749 3353.49 207.917 3341.96 208.106C3339.68 208.143 3338.61 207.003 3338.76 204.686L3338.98 201.605C3339.09 199.852 3340.02 198.976 3341.76 198.976L3408.81 198.948C3409.38 198.947 3409.92 199.168 3410.33 199.563C3410.74 199.958 3410.98 200.498 3411 201.068L3411.14 204.714C3411.15 205.11 3411.09 205.504 3410.95 205.875C3410.81 206.247 3410.6 206.586 3410.33 206.876C3410.06 207.165 3409.73 207.397 3409.37 207.56C3409.01 207.723 3408.62 207.812 3408.22 207.823C3401.4 207.974 3396.28 209.293 3392.85 211.78C3390.53 213.457 3390.62 217.603 3393.11 224.217C3408.44 265.032 3423.99 306.423 3439.73 348.387Z" fill="black"/>
<path d="M3296.96 469.222C3287.13 469.166 3277.91 469.382 3269.3 469.872C3254.21 470.72 3250.76 484.938 3248.04 497.092C3247.7 498.562 3246.78 499.306 3245.28 499.325L3242.73 499.353C3241.45 499.372 3240.86 498.741 3240.96 497.459L3243.63 459.018C3244 453.78 3245.95 453.101 3249.47 456.983C3252.53 460.347 3255.53 461.223 3259.89 461.223C3293.22 461.166 3326.68 461.166 3360.27 461.223C3363.53 461.223 3366.37 459.725 3368.64 457.407C3373.53 452.395 3375.98 453.393 3376 460.403C3376.04 472.086 3376.69 483.911 3377.94 495.877C3378.11 497.384 3377.45 498.288 3375.97 498.59L3373.25 499.155C3372.26 499.363 3371.62 498.986 3371.34 498.025C3366.93 483.779 3365.55 469.985 3346.85 469.533C3338.03 469.326 3329.43 469.241 3321.06 469.279C3320.7 469.286 3320.36 469.435 3320.11 469.694C3319.86 469.953 3319.71 470.301 3319.71 470.664C3319.73 513.345 3319.78 556.12 3319.86 598.989C3319.88 612.302 3331.37 613.404 3342.33 613.828C3344.16 613.904 3345.06 614.865 3345.02 616.712L3344.99 618.04C3344.98 618.757 3344.68 619.44 3344.17 619.942C3343.65 620.444 3342.96 620.726 3342.24 620.725L3276.82 620.753C3275.48 620.753 3274.78 620.066 3274.75 618.69L3274.66 615.977C3274.65 615.687 3274.7 615.399 3274.8 615.128C3274.9 614.858 3275.06 614.611 3275.26 614.402C3275.46 614.194 3275.7 614.028 3275.96 613.915C3276.22 613.802 3276.51 613.743 3276.8 613.744C3281.18 613.762 3285.31 613.244 3289.18 612.189C3300.11 609.193 3298.9 599.526 3298.87 590.679C3298.8 549.261 3298.86 509.5 3299.07 471.399C3299.07 469.966 3298.37 469.241 3296.96 469.222Z" fill="black"/>
<path d="M3107.62 466.905C3073.74 458.284 3057.28 498.365 3083.63 517.642C3091.1 523.107 3100 528.402 3110.34 533.527C3120.34 538.474 3132.73 546.473 3138.09 556.083C3147.23 572.496 3146.6 588.193 3136.21 603.173C3118.94 628.047 3082.37 628.725 3056.64 616.6C3054.86 615.752 3053.81 614.367 3053.49 612.444L3048.07 579.939C3047.79 578.3 3048.45 577.292 3050.06 576.915L3052.9 576.208C3053.42 576.087 3053.96 576.173 3054.42 576.448C3054.87 576.723 3055.19 577.165 3055.32 577.678C3060.93 599.555 3077.67 620.02 3102.28 615.158C3115.34 612.558 3123.94 601.873 3124.55 588.419C3126.63 542.855 3047.48 552.465 3052.85 496.584C3053.89 485.466 3058.64 476.365 3067.09 469.28C3084.53 454.638 3109.55 455.317 3130.84 462.496C3131.55 462.731 3132.17 463.164 3132.65 463.744C3133.12 464.324 3133.42 465.028 3133.51 465.775L3137.08 496.047C3137.1 496.33 3137 496.547 3136.77 496.697C3135.16 497.677 3133.23 498.148 3130.99 498.111C3130.74 498.111 3130.59 497.998 3130.54 497.771C3125.48 479.795 3117.84 469.506 3107.62 466.905Z" fill="black"/>
<path d="M2272.21 483.355C2271.54 471.37 2260.67 468.148 2250.67 468.289C2249.96 468.306 2249.26 468.063 2248.72 467.606C2248.17 467.149 2247.8 466.508 2247.69 465.802L2247.55 464.954C2247.14 462.429 2248.21 461.167 2250.78 461.167L2303.81 461.195C2305.33 461.195 2306.06 461.949 2306 463.456L2305.92 465.887C2305.86 467.394 2305.08 468.157 2303.58 468.176C2293.14 468.261 2284.12 472.812 2283.84 484.683C2283.35 505.449 2283.1 526.912 2283.08 549.072C2283.06 556.139 2282.27 564.015 2280.72 572.702C2275.66 600.883 2259.65 620.075 2229.69 623.721C2218.13 625.116 2207.01 623.985 2196.32 620.329C2168.45 610.804 2160.79 583.358 2160.53 556.873C2160.33 534.713 2160.41 511.385 2160.79 486.888C2161.01 472.331 2155.2 468.629 2141.6 468.148C2140.92 468.126 2140.27 467.835 2139.8 467.339C2139.33 466.842 2139.07 466.179 2139.07 465.491V463.456C2139.07 461.949 2139.82 461.195 2141.32 461.195L2200.47 461.167C2201.9 461.167 2202.6 461.892 2202.58 463.343L2202.55 465.378C2202.55 465.809 2202.45 466.234 2202.27 466.627C2202.1 467.019 2201.84 467.37 2201.52 467.657C2201.2 467.944 2200.83 468.161 2200.42 468.294C2200.01 468.427 2199.58 468.474 2199.15 468.431C2188.45 467.413 2181.04 471.851 2180.92 483.496C2180.7 506.259 2180.7 529.315 2180.92 552.662C2181.21 584.545 2195.95 614.931 2233.08 610.804C2263.17 607.469 2272.38 578.355 2273.11 551.644C2273.76 528.241 2273.46 505.477 2272.21 483.355Z" fill="black"/>
<path d="M2351.81 499.24C2352.12 523.982 2352.19 548.394 2352 572.476C2351.95 581.041 2353.21 589.04 2353.52 597.491C2353.97 610.38 2364.44 613.744 2375.17 613.772C2376.65 613.791 2377.35 614.535 2377.25 616.005L2377.08 618.86C2377.06 619.365 2376.84 619.839 2376.47 620.186C2376.1 620.533 2375.62 620.726 2375.12 620.725L2321.75 620.754C2320.2 620.754 2319.39 619.972 2319.34 618.407L2319.25 616.118C2319.2 614.573 2319.94 613.8 2321.5 613.8C2329.76 613.829 2338.66 610.804 2340.29 601.703C2341.55 594.665 2342.34 587.146 2342.37 579.91C2342.41 552.191 2342.45 522.55 2342.51 490.987C2342.54 477.589 2331.39 468.402 2318.61 468.289C2316.66 468.271 2315.67 467.281 2315.63 465.322L2315.6 464.05C2315.54 462.128 2316.47 461.167 2318.38 461.167H2350.29C2351.3 461.167 2352.13 461.562 2352.79 462.354L2451.07 581.408C2453.65 584.555 2454.92 584.084 2454.89 579.995C2454.68 556.968 2454.62 533.668 2454.72 510.094C2454.75 501.219 2453.76 492.513 2452.84 483.468C2451.57 470.918 2442.78 468.431 2431.83 468.233C2430.03 468.195 2429.04 467.262 2428.85 465.435L2428.71 464.134C2428.67 463.759 2428.71 463.379 2428.83 463.02C2428.94 462.661 2429.13 462.33 2429.38 462.05C2429.64 461.77 2429.94 461.547 2430.29 461.394C2430.63 461.242 2431 461.164 2431.38 461.167H2484.01C2484.36 461.165 2484.71 461.237 2485.03 461.377C2485.35 461.517 2485.64 461.723 2485.87 461.98C2486.11 462.238 2486.29 462.542 2486.41 462.874C2486.52 463.206 2486.57 463.558 2486.54 463.908L2486.4 465.661C2486.29 467.055 2485.54 467.818 2484.15 467.95C2474.8 468.911 2465.67 471.568 2465.73 482.988C2465.73 486.492 2464.55 489.658 2464.49 493.163C2463.91 536.221 2463.82 578.676 2464.21 620.527C2464.21 621.432 2463.81 622.091 2463 622.506C2460.08 624.061 2456.94 622.789 2454.91 620.273C2421.66 579.194 2388.65 538.35 2355.88 497.742C2353.11 494.294 2351.75 494.793 2351.81 499.24Z" fill="black"/>
<path d="M2523.43 480.981C2523.34 470.664 2513.82 467.95 2505.23 468.402C2503.13 468.516 2501.87 467.536 2501.44 465.463L2501.15 464.163C2500.74 462.184 2501.54 461.195 2503.54 461.195L2564.21 461.167C2565.63 461.167 2566.32 461.892 2566.26 463.343L2566.12 465.915C2566.05 467.272 2565.33 467.988 2563.99 468.063C2554.21 468.572 2544.58 469.561 2544.41 481.292C2543.83 520.317 2543.81 560.049 2544.35 600.487C2544.52 612.076 2555 613.97 2564.04 613.715C2565.54 613.678 2566.26 614.422 2566.21 615.948L2566.12 618.831C2566.06 620.094 2565.4 620.725 2564.13 620.725L2503.63 620.753C2502.22 620.753 2501.49 620.047 2501.44 618.634L2501.35 616.146C2501.28 614.62 2502 613.847 2503.51 613.828C2512.7 613.631 2523.23 612.274 2523.37 600.402C2523.8 561.867 2523.82 522.06 2523.43 480.981Z" fill="black"/>
<path d="M2664.62 586.807C2665.63 589.426 2666.66 589.435 2667.71 586.835C2681.08 553.632 2693.9 519.356 2706.19 484.005C2706.97 481.744 2707.43 479.445 2707.56 477.108C2707.98 470.014 2696.3 468.516 2691.24 468.289C2689.56 468.214 2688.6 467.338 2688.35 465.661L2688.1 464.021C2687.82 462.118 2688.64 461.167 2690.57 461.167L2741.27 461.195C2742.77 461.195 2743.49 461.949 2743.43 463.456L2743.35 466C2743.33 466.635 2743.05 467.236 2742.59 467.674C2742.13 468.113 2741.51 468.354 2740.88 468.346C2724.75 468.148 2719.7 481.037 2714.3 493.813C2696.55 536.174 2679.81 578.534 2664.08 620.895C2663.77 621.743 2663.2 622.383 2662.4 622.817C2660.56 623.778 2658.69 623.778 2656.78 622.817C2656.44 622.657 2656.14 622.429 2655.89 622.148C2655.64 621.866 2655.45 621.537 2655.32 621.177C2635.38 566.38 2617.73 520.053 2602.38 482.196C2598.61 472.925 2592.07 468.336 2582.74 468.431C2580.7 468.45 2579.67 467.432 2579.65 465.378V463.993C2579.65 463.251 2579.95 462.539 2580.48 462.014C2581 461.49 2581.72 461.195 2582.46 461.195H2637.93C2639.36 461.195 2640.05 461.911 2640.01 463.343L2639.98 466.085C2639.97 466.655 2639.74 467.197 2639.33 467.597C2638.93 467.998 2638.39 468.226 2637.82 468.233C2632.23 468.289 2620.3 469.392 2623.58 478.239C2637.61 516.19 2651.29 552.379 2664.62 586.807Z" fill="black"/>
<path d="M2798.74 544.126C2798.7 561.217 2798.74 577.686 2798.85 593.534C2798.97 607.016 2805.79 612.359 2818.35 612.613C2826.3 612.783 2834.1 612.717 2841.74 612.415C2859.1 611.765 2867.39 599.159 2872.42 583.528C2872.98 581.794 2874.16 581.031 2875.95 581.238L2878.48 581.549C2878.76 581.582 2879.03 581.674 2879.28 581.819C2879.52 581.963 2879.73 582.158 2879.9 582.39C2880.06 582.621 2880.17 582.885 2880.23 583.164C2880.29 583.443 2880.28 583.73 2880.22 584.008L2872.64 618.238C2872.48 618.952 2872.08 619.59 2871.51 620.047C2870.94 620.504 2870.23 620.753 2869.49 620.753L2756.44 620.725C2755.06 620.725 2754.35 620.028 2754.33 618.634L2754.31 616.118C2754.31 614.837 2754.93 614.111 2756.19 613.941C2767.79 612.5 2779 612.783 2778.66 596.615C2778.62 594.9 2778.61 593.195 2778.63 591.499C2779.04 553.397 2779.01 516.793 2778.55 481.687C2778.41 470.833 2769.36 467.837 2760.37 468.374C2759.65 468.422 2758.94 468.184 2758.39 467.714C2757.85 467.243 2757.51 466.577 2757.45 465.859L2757.26 463.428C2757.12 461.939 2757.8 461.195 2759.28 461.195L2864.58 461.167C2865.46 461.167 2865.94 461.609 2866.01 462.495L2868.2 493.954C2868.25 494.685 2868.02 495.406 2867.57 495.98C2867.12 496.554 2866.48 496.94 2865.76 497.064L2863.46 497.488C2862.94 497.579 2862.4 497.462 2861.96 497.162C2861.52 496.862 2861.21 496.402 2861.1 495.877C2858.43 483.807 2854.24 470.748 2839.92 469.929C2828.72 469.307 2816.65 469.147 2803.71 469.448C2802.39 469.478 2801.13 470.027 2800.21 470.978C2799.29 471.929 2798.77 473.206 2798.77 474.536L2798.74 531.887C2798.74 533.055 2799.33 533.649 2800.51 533.667C2811.6 533.686 2822.36 533.536 2832.81 533.215C2842.21 532.914 2847.3 527.656 2848.06 517.443C2848.12 516.763 2848.41 516.124 2848.88 515.638C2849.35 515.152 2849.98 514.851 2850.65 514.786L2852.14 514.617C2854.46 514.372 2855.62 515.427 2855.62 517.782V559.389C2855.62 561.292 2854.68 562.244 2852.81 562.244H2851.18C2849.46 562.225 2848.49 561.358 2848.29 559.643C2847.14 550.061 2843.51 542.91 2832.5 542.769C2821.59 542.618 2810.86 542.543 2800.31 542.543C2799.27 542.543 2798.74 543.07 2798.74 544.126Z" fill="black"/>
<path d="M2936.6 552.521C2937.48 570.629 2937.75 585.996 2937.41 598.622C2937.05 611.878 2947.13 613.489 2957.24 613.8C2958.61 613.838 2959.26 614.545 2959.18 615.92L2959.01 618.662C2958.94 620.037 2958.21 620.725 2956.82 620.725L2897.7 620.753C2895.88 620.753 2894.94 619.849 2894.89 618.04L2894.83 616.514C2894.79 614.931 2895.55 614.055 2897.11 613.885C2899.93 613.583 2902.76 613.254 2905.59 612.896C2918.37 611.2 2917.13 600.657 2917.19 589.464C2917.36 554.772 2917.36 521.202 2917.19 488.754C2917.11 473.462 2915.14 468.516 2898.76 468.176C2897.1 468.139 2896.17 467.291 2895.98 465.632L2895.84 464.05C2895.64 462.146 2896.48 461.195 2898.37 461.195C2922.6 461.138 2945.14 461.167 2965.98 461.28C2970.36 461.308 2975.47 462.523 2979.88 463.286C3002.18 467.215 3013.81 485.051 3011.45 507.126C3009.63 524.283 2996.99 537.342 2981.26 542.882C2981.15 542.92 2981.06 542.982 2980.98 543.061C2980.9 543.14 2980.84 543.236 2980.8 543.341C2980.77 543.446 2980.75 543.558 2980.76 543.669C2980.77 543.78 2980.81 543.888 2980.86 543.984C2991.41 562.922 3002.87 580.456 3015.24 596.586C3023 606.687 3030.7 613.188 3038.36 616.09C3039.39 616.485 3039.93 617.239 3039.99 618.351C3040.01 619.029 3039.92 619.689 3039.74 620.33C3039.38 621.404 3038.65 621.988 3037.55 622.082C3019.61 623.778 3005.53 618.238 2995.3 605.462C2988.58 597.076 2978.8 581.898 2965.98 559.926C2960.22 550.033 2948.31 550.005 2937.92 550.994C2937 551.088 2936.56 551.597 2936.6 552.521ZM2987.27 491.241C2981.48 472.162 2959.21 465.548 2942.08 470.579C2941.22 470.831 2940.45 471.296 2939.83 471.929C2939.21 472.562 2938.77 473.343 2938.54 474.197C2937.54 477.796 2937.08 481.753 2937.13 486.068C2937.39 505.195 2937.35 523.539 2936.99 541.101C2936.98 541.587 2937.16 542.056 2937.49 542.409C2937.82 542.763 2938.28 542.973 2938.76 542.995C2946.08 543.334 2953.24 543.08 2960.22 542.232C2985.64 539.179 2993.78 512.638 2987.27 491.241Z" fill="black"/>
<path d="M3221.88 468.459C3202.19 466.707 3202.25 478.098 3202.22 492.993C3202.16 525.254 3202.15 557.052 3202.19 588.389C3202.19 605.462 3202.75 614.422 3221.85 613.631C3222.18 613.615 3222.51 613.668 3222.82 613.787C3223.12 613.905 3223.41 614.086 3223.64 614.319C3223.88 614.552 3224.07 614.832 3224.19 615.141C3224.32 615.45 3224.38 615.783 3224.38 616.118L3224.35 618.662C3224.33 620.056 3223.63 620.753 3222.24 620.753L3161.69 620.725C3160.34 620.725 3159.66 620.056 3159.66 618.718L3159.64 615.75C3159.64 615.331 3159.79 614.927 3160.05 614.611C3160.32 614.295 3160.69 614.087 3161.1 614.026C3168.48 612.896 3176.4 613.941 3180.28 606.168C3181.39 603.964 3181.95 599.95 3181.97 594.127C3182.17 556.742 3182.17 520.599 3181.97 485.701C3181.88 471.936 3175.48 467.781 3162.5 468.261C3160.61 468.337 3159.65 467.423 3159.61 465.519L3159.58 463.343C3159.56 461.911 3160.27 461.195 3161.72 461.195L3221.4 461.167C3223.65 461.167 3224.64 462.297 3224.38 464.558C3224.34 464.879 3224.36 465.208 3224.43 465.548C3224.51 465.92 3224.5 466.305 3224.4 466.671C3224.31 467.038 3224.13 467.377 3223.88 467.66C3223.63 467.943 3223.32 468.163 3222.97 468.302C3222.62 468.44 3222.25 468.494 3221.88 468.459Z" fill="black"/>
<path d="M3431.24 471.54C3430.39 472.081 3429.77 472.934 3429.53 473.923C3429.28 474.913 3429.42 475.962 3429.92 476.853L3463.34 536.465C3464.66 538.821 3465.98 538.821 3467.3 536.465C3478.02 517.735 3488.14 498.222 3497.67 477.928C3497.97 477.283 3498.14 476.586 3498.17 475.876C3498.2 475.166 3498.1 474.457 3497.86 473.789C3497.62 473.122 3497.25 472.51 3496.77 471.988C3496.3 471.466 3495.72 471.045 3495.08 470.748C3491.58 469.109 3487.65 468.289 3483.29 468.289C3481.43 468.308 3480.49 467.385 3480.45 465.519L3480.42 463.343C3480.38 461.854 3481.11 461.11 3482.61 461.11C3498.94 461.242 3515.41 461.251 3532.02 461.138C3534.3 461.119 3535.14 462.221 3534.52 464.445C3534.48 464.615 3534.46 464.784 3534.46 464.954C3534.56 467.158 3533.39 468.317 3530.98 468.43C3514.41 469.25 3508.43 481.319 3500.95 493.926C3490.77 511.149 3481.67 527.213 3473.65 542.119C3471.55 545.991 3470.03 550.598 3469.97 555.092C3469.82 570.657 3469.9 585.252 3470.2 598.876C3470.48 612.33 3482.44 614.111 3492.98 613.659C3493.21 613.647 3493.45 613.684 3493.67 613.769C3493.89 613.854 3494.1 613.984 3494.26 614.152C3494.43 614.319 3494.57 614.52 3494.65 614.742C3494.74 614.963 3494.78 615.201 3494.77 615.439L3494.69 619.368C3494.67 620.273 3494.2 620.725 3493.29 620.725H3427.79C3426.44 620.725 3425.75 620.047 3425.73 618.69L3425.65 616.118C3425.61 614.667 3426.32 613.913 3427.79 613.856C3438.74 613.404 3449.53 612.217 3449.64 599.441C3449.77 585.402 3449.84 571.628 3449.86 558.117C3449.88 554.216 3448.9 550.476 3446.91 546.895C3432.36 520.477 3419.28 497.713 3407.67 478.606C3403.74 472.161 3397.63 468.732 3389.33 468.317C3387.57 468.223 3386.65 467.3 3386.55 465.547L3386.47 463.71C3386.37 462.033 3387.17 461.194 3388.86 461.194L3442.87 461.166C3443.17 461.165 3443.48 461.228 3443.76 461.352C3444.04 461.476 3444.29 461.658 3444.5 461.886C3444.71 462.115 3444.87 462.384 3444.97 462.679C3445.07 462.973 3445.11 463.286 3445.09 463.597L3444.86 466.028C3444.73 467.554 3443.9 468.327 3442.36 468.346C3438.15 468.421 3434.44 469.486 3431.24 471.54Z" fill="black"/>
<path d="M1051.85 507.24C1052.64 539.142 1052.65 570.083 1051.91 600.064C1051.57 613.207 1057.55 615.157 1069.24 615.553C1069.87 615.568 1070.47 615.833 1070.91 616.293C1071.35 616.753 1071.6 617.37 1071.59 618.012V619.115C1071.58 620.302 1070.97 620.905 1069.77 620.924H1020.11C1018.56 620.924 1017.78 620.151 1017.78 618.606V617.786C1017.78 616.354 1018.49 615.629 1019.91 615.61C1028.51 615.44 1036.65 613.631 1036.68 602.805C1036.76 570.451 1036.78 538.369 1036.74 506.561C1036.74 505.582 1036.25 505.092 1035.28 505.092C1027.99 504.978 1020.48 505.205 1012.72 505.77C1002.33 506.505 999.353 517.359 997.584 525.923C997.247 527.563 996.245 528.354 994.578 528.298L993.595 528.269C992.397 528.25 991.844 527.638 991.938 526.432L994.269 497.149C994.531 493.738 995.908 493.211 998.398 495.566C1000.65 497.658 1002.7 499.382 1005.95 499.382C1031.1 499.344 1056.68 499.344 1082.69 499.382C1085.86 499.382 1087.66 497.686 1089.94 495.736C1093.06 493.041 1094.74 493.767 1094.96 497.912L1096.48 525.358C1096.5 525.709 1096.45 526.06 1096.33 526.39C1096.21 526.72 1096.02 527.022 1095.78 527.279C1095.55 527.535 1095.26 527.74 1094.94 527.881C1094.62 528.022 1094.27 528.096 1093.92 528.1H1093.14C1092.8 528.109 1092.46 527.998 1092.19 527.787C1091.92 527.576 1091.73 527.277 1091.65 526.941C1089.88 519.733 1087.38 508.823 1079.63 506.618C1072.02 504.498 1062.19 505.092 1053.84 505.176C1052.48 505.195 1051.81 505.883 1051.85 507.24Z" fill="black"/>
<path d="M1255.49 504.95C1247.57 505.346 1238.42 504.667 1230.95 506.476C1222.72 508.483 1220.52 518.659 1218.61 525.951C1218.2 527.553 1217.16 528.344 1215.5 528.325H1214.51C1214.33 528.322 1214.15 528.281 1213.99 528.206C1213.82 528.131 1213.67 528.023 1213.55 527.888C1213.42 527.754 1213.33 527.595 1213.27 527.423C1213.21 527.25 1213.18 527.067 1213.19 526.884L1215.08 498.279C1215.39 493.474 1217.21 492.805 1220.52 496.272C1222.38 498.194 1224.29 499.382 1227.01 499.382C1252.74 499.344 1277.81 499.344 1302.2 499.382C1305.43 499.382 1307.85 498.873 1310.24 496.583C1313.87 493.116 1315.85 493.889 1316.16 498.901L1317.82 525.527C1317.91 526.903 1317.28 527.647 1315.91 527.76L1314.76 527.873C1313.32 528.005 1312.48 527.346 1312.26 525.895C1310.97 517.302 1306.87 506.137 1296.75 505.6C1289.15 505.223 1281.92 505.035 1275.04 505.035C1273.64 505.035 1272.94 505.751 1272.94 507.183C1272.88 540.272 1272.9 572.052 1272.99 602.522C1273.05 613.716 1281.08 615.383 1290.38 615.525C1291.88 615.562 1292.66 616.335 1292.74 617.842L1292.77 618.549C1292.82 620.132 1292.07 620.923 1290.52 620.923L1240.86 620.952C1239.16 620.952 1238.41 620.094 1238.61 618.379L1238.73 617.305C1238.82 616.533 1239.25 616.08 1240.02 615.948C1249.01 614.337 1257.66 615.327 1257.8 602.805C1258.15 572.636 1258.19 540.781 1257.91 507.239C1257.91 505.619 1257.1 504.856 1255.49 504.95Z" fill="black"/>
<path d="M752.438 512.582C776.032 493.249 805.327 494.125 833.275 500.852C834.436 501.135 835.1 501.87 835.269 503.057L838.527 526.941C838.629 527.702 838.443 528.473 838.006 529.101C837.569 529.73 836.912 530.17 836.168 530.333L835.213 530.531C833.939 530.795 833.162 530.277 832.881 528.976C829.904 515.07 819.821 505.036 805.552 503.198C727.89 493.305 732.496 627.001 805.833 616.373C819.849 614.338 830.382 601.873 835.943 589.38C836.449 588.211 837.282 587.882 838.443 588.39L839.819 588.956C841.429 589.653 841.935 590.831 841.336 592.489L833.05 615.554C832.739 616.424 832.217 617.204 831.531 617.825C830.845 618.446 830.016 618.889 829.118 619.115C803.951 625.333 773.476 627.284 752.101 609.194C723.789 585.225 722.525 537.06 752.438 512.582Z" fill="black"/>
<path d="M31.0857 505.769C30.6032 505.864 30.1485 506.069 29.7568 506.367C29.365 506.665 29.0468 507.049 28.8268 507.489C28.6068 507.93 28.4909 508.414 28.4881 508.905C28.4853 509.396 28.5956 509.88 28.8106 510.32L59.0049 572.815C59.1219 573.06 59.3063 573.265 59.5361 573.407C59.7659 573.548 60.0314 573.621 60.3009 573.615C60.5704 573.609 60.8325 573.525 61.0559 573.373C61.2794 573.221 61.4546 573.008 61.5609 572.759C69.6127 554.782 77.0559 536.211 83.8906 517.047C85.7724 511.733 84.9298 505.685 78.582 505.317C76.6159 505.204 74.7059 504.931 72.8521 504.497C72.3012 504.371 71.7984 504.084 71.4046 503.673C71.0107 503.261 70.7428 502.743 70.6332 502.18C70.4646 501.219 70.7081 500.399 71.3635 499.721C71.8129 499.268 72.3559 499.052 72.9925 499.07C85.7631 499.523 97.9251 499.523 109.478 499.07C109.711 499.063 109.942 499.102 110.16 499.184C110.378 499.267 110.577 499.392 110.746 499.552C110.916 499.712 111.053 499.904 111.148 500.117C111.244 500.331 111.297 500.561 111.304 500.795L111.36 501.954C111.417 503.48 110.686 504.309 109.17 504.441C101.661 505.006 96.0806 509.51 92.4292 517.952C78.5914 550.118 66.1111 578.487 54.9883 603.059C49.5393 615.1 39.4277 626.915 25.6367 626.237C17.5474 625.869 7.46395 617.899 16.5644 610.126C20.9741 606.338 23.0807 611.058 26.5074 612.528C39.3154 618.04 46.7867 607.045 49.9606 596.728C51.6178 591.414 48.8652 587.118 46.5058 582.171C34.372 556.845 23.0339 533.79 12.4916 513.005C9.83268 507.748 4.95478 505.034 -2.14205 504.865C-2.7304 504.859 -3.29566 504.63 -3.72695 504.222C-4.15825 503.814 -4.42444 503.257 -4.47332 502.66L-4.55759 501.614C-4.58096 501.322 -4.54452 501.028 -4.45058 500.75C-4.35664 500.473 -4.20724 500.219 -4.01186 500.004C-3.81647 499.788 -3.57935 499.617 -3.31551 499.5C-3.05167 499.383 -2.76685 499.324 -2.47909 499.325L37.911 499.268C39.072 499.268 39.6618 499.843 39.6805 500.993V501.954C39.6967 502.569 39.4931 503.17 39.1066 503.647C38.72 504.124 38.1762 504.446 37.574 504.554L31.0857 505.769Z" fill="black"/>
<path d="M215.481 560.096L155.513 560.068C155.255 560.068 155 560.119 154.761 560.218C154.522 560.318 154.306 560.464 154.123 560.647C153.941 560.831 153.796 561.049 153.697 561.289C153.598 561.529 153.547 561.787 153.547 562.046C153.622 575.614 153.641 589.822 153.603 604.671C153.603 613.405 160.654 615.977 167.928 615.44C168.499 615.402 169.064 615.573 169.514 615.923C169.965 616.272 170.27 616.774 170.372 617.334L170.568 618.493C170.868 620.113 170.203 620.923 168.574 620.923H122.538C122.337 620.923 122.137 620.883 121.952 620.805C121.766 620.726 121.597 620.611 121.456 620.466C121.315 620.322 121.204 620.15 121.129 619.962C121.054 619.773 121.018 619.572 121.022 619.369V618.182C121.04 616.636 121.808 615.789 123.325 615.638C132.06 614.818 138.183 613.744 138.127 603.144C137.996 574.992 137.987 545.944 138.099 516.002C138.155 506.816 131.218 503.904 123.072 504.583C122.798 504.61 122.521 504.579 122.258 504.493C121.995 504.407 121.753 504.267 121.545 504.081C121.337 503.896 121.168 503.669 121.049 503.415C120.931 503.161 120.864 502.885 120.853 502.604L120.825 501.7C120.769 500.098 121.537 499.297 123.128 499.297L168.153 499.269C168.479 499.258 168.799 499.37 169.052 499.583C169.305 499.797 169.475 500.097 169.529 500.428L169.67 501.219C169.951 502.99 169.211 503.989 167.451 504.215C160.878 505.063 153.603 505.318 153.688 514.306C153.763 526.649 153.613 538.718 153.238 550.514C153.23 550.836 153.288 551.155 153.407 551.453C153.527 551.75 153.706 552.019 153.933 552.243C154.161 552.466 154.431 552.639 154.727 552.75C155.023 552.861 155.339 552.908 155.654 552.888C174.379 551.984 194.331 551.984 215.509 552.888C216.726 552.926 217.344 552.332 217.363 551.108C217.569 538.784 217.512 526.291 217.194 513.628C216.997 505.798 209.61 504.385 203.431 504.328C202.906 504.329 202.401 504.127 202.02 503.764C201.638 503.402 201.409 502.905 201.381 502.378L201.324 501.389C201.231 500.032 201.858 499.354 203.206 499.354L248.512 499.24C248.951 499.24 249.373 499.419 249.684 499.737C249.994 500.055 250.169 500.487 250.169 500.936V501.926C250.169 502.282 250.098 502.635 249.959 502.962C249.82 503.289 249.617 503.583 249.361 503.827C249.106 504.071 248.804 504.259 248.474 504.379C248.144 504.499 247.794 504.549 247.444 504.526C241.181 504.187 233.12 506.392 233.092 513.825C232.998 543.033 232.951 572.768 232.951 603.031C232.951 612.246 237.885 616.316 247.753 615.242C248.033 615.213 248.316 615.249 248.58 615.347C248.844 615.445 249.083 615.602 249.278 615.806C249.473 616.01 249.619 616.257 249.705 616.526C249.791 616.796 249.816 617.082 249.776 617.362C249.738 617.701 249.738 618.04 249.776 618.38C250.038 620.057 249.326 620.895 247.641 620.895L200.707 620.923C199.546 620.942 199.049 620.368 199.218 619.199L199.415 618.153C199.539 617.35 199.955 616.621 200.583 616.109C201.211 615.597 202.006 615.339 202.813 615.383C210.088 615.836 217.447 613.292 217.419 604.586C217.381 590.585 217.419 576.443 217.531 562.159C217.531 560.784 216.848 560.096 215.481 560.096Z" fill="black"/>
<path d="M359.348 521.09C360.003 513.59 358.393 513.063 354.516 519.507C336.353 549.789 317.974 580.287 299.38 611.003C297.836 613.575 297.105 616.062 297.583 619.086C297.619 619.312 297.606 619.543 297.544 619.763C297.481 619.983 297.372 620.187 297.222 620.362C297.073 620.536 296.887 620.677 296.678 620.774C296.469 620.871 296.241 620.922 296.01 620.924L266.462 620.952C265.45 620.952 264.776 620.481 264.439 619.539C264.252 618.973 264.233 618.38 264.383 617.758C264.664 616.609 265.385 615.911 266.546 615.666C269.495 615.044 272.276 615.582 275.028 614.027C278.755 611.916 280.627 608.082 280.646 602.523C280.721 572.957 280.711 544.155 280.618 516.115C280.562 505.516 274.579 505.092 266.181 504.131C265.038 503.999 264.477 503.349 264.495 502.18L264.524 501.05C264.542 499.863 265.141 499.269 266.321 499.269H310.166C311.158 499.269 311.655 499.778 311.655 500.795L311.683 502.237C311.683 503.65 310.981 504.357 309.576 504.357C303.144 504.385 295.673 506.307 295.645 514.278C295.588 538.662 295.514 565.062 295.42 593.478C295.42 594.948 295.13 596.418 294.549 597.887C294.439 598.173 294.401 598.481 294.441 598.782C294.48 599.084 294.595 599.369 294.774 599.612C295.373 600.384 296.075 600.676 296.881 600.488C297.592 600.318 298.126 599.922 298.482 599.301C316.551 569.32 335.173 538.511 354.348 506.872C355.359 505.177 356.258 502.915 356.567 500.852C356.735 499.816 357.344 499.297 358.393 499.297L387.716 499.269C388.2 499.269 388.665 499.463 389.007 499.807C389.349 500.152 389.542 500.619 389.542 501.106L389.514 502.18C389.514 502.464 389.458 502.744 389.348 503.005C389.239 503.266 389.079 503.502 388.877 503.7C388.675 503.897 388.437 504.052 388.174 504.155C387.912 504.259 387.632 504.308 387.351 504.3C380.891 504.216 373.757 506.788 373.644 514.363C373.27 540.442 373.242 570.884 373.56 605.689C373.644 613.207 380.666 615.949 387.491 615.412C387.751 615.392 388.012 615.427 388.258 615.516C388.503 615.604 388.727 615.743 388.915 615.925C389.103 616.106 389.251 616.325 389.35 616.568C389.448 616.811 389.494 617.072 389.486 617.334C389.486 617.654 389.514 617.975 389.57 618.295C389.87 620.047 389.139 620.924 387.379 620.924H343.787C342.326 620.924 341.69 620.189 341.877 618.719L342.017 617.475C342.186 616.119 342.944 615.468 344.293 615.525C351.118 615.836 358.308 613.207 358.196 605.067C357.831 577.056 357.016 548.536 359.348 521.09Z" fill="black"/>
<path d="M475.266 557.467C486.445 560.293 495.04 565.748 498.354 576.998C502.932 592.488 494 607.525 479.985 614.167C472.476 617.747 464.424 619.82 455.829 620.386C446.523 621.007 429.67 621.149 405.271 620.81C403.979 620.791 403.399 620.141 403.53 618.859L403.67 617.757C403.741 617.079 404.071 616.456 404.59 616.019C405.108 615.581 405.776 615.363 406.451 615.411C423.023 616.57 421.337 605.659 421.422 592.544C421.59 566.728 421.543 540.922 421.281 515.125C421.197 505.402 414.877 504.808 407.237 504.243C406.728 504.214 406.249 503.99 405.899 503.616C405.549 503.243 405.355 502.749 405.356 502.236V500.794C405.356 499.645 405.936 499.08 407.097 499.098C422.452 499.4 437.919 499.475 453.498 499.324C471.334 499.127 489.338 502.773 491.585 524.283C492.821 536.211 485.658 546.924 474.816 551.446C468.918 553.915 469.068 555.921 475.266 557.467ZM436.589 505.543L436.252 552.407C436.252 552.595 436.326 552.774 436.458 552.907C436.589 553.039 436.768 553.114 436.954 553.114L451.7 553.227C454.747 553.25 457.769 552.686 460.593 551.568C463.416 550.449 465.986 548.798 468.157 546.709C470.327 544.62 472.054 542.133 473.24 539.391C474.426 536.649 475.048 533.705 475.069 530.727V527.788C475.113 521.776 472.711 515.993 468.392 511.71C464.072 507.427 458.19 504.995 452.037 504.949L437.291 504.836C437.105 504.836 436.926 504.911 436.795 505.043C436.663 505.176 436.589 505.355 436.589 505.543ZM447.459 614.619C463.806 616.372 480.069 608.26 481.333 590.368C483.299 562.046 459.509 557.382 437.741 558.88C436.636 558.955 436.102 559.549 436.14 560.661C436.477 572.777 436.495 585.676 436.196 599.356C436.027 607.101 438.696 613.687 447.459 614.619Z" fill="black"/>
<path d="M546.167 563.234C545.999 576.18 546.064 589.107 546.364 602.014C546.514 608.402 549.21 612.171 554.453 613.321C563.479 615.318 572.954 615.544 582.878 613.999C594.029 612.247 599.197 602.551 602.568 592.885C603.167 591.17 604.356 590.407 606.135 590.595L607.146 590.708C607.371 590.731 607.589 590.801 607.785 590.914C607.981 591.028 608.151 591.182 608.283 591.366C608.416 591.55 608.508 591.761 608.554 591.984C608.6 592.206 608.599 592.436 608.55 592.659L602.708 618.974C602.427 620.274 601.622 620.924 600.292 620.924H513.895C512.528 620.924 511.9 620.236 512.013 618.861L512.125 617.532C512.219 616.251 512.902 615.601 514.176 615.582C521.591 615.412 530.944 614.056 530.916 604.219C530.878 575.256 530.878 545.361 530.916 514.533C530.916 505.149 522.911 505.177 516.254 504.159C515.112 503.99 514.55 503.321 514.569 502.152V501.022C514.588 499.872 515.177 499.298 516.338 499.298L596.501 499.354C597.362 499.354 597.811 499.788 597.849 500.654L599.197 523.38C599.309 525.227 598.457 526.282 596.641 526.546L595.714 526.687C595.265 526.747 594.811 526.633 594.445 526.37C594.079 526.107 593.83 525.715 593.748 525.274C591.538 513.289 586.951 506.892 579.985 506.081C571.166 505.045 561.073 504.8 549.706 505.346C547.328 505.459 546.139 506.703 546.139 509.077V552.38C546.139 553.567 546.72 554.18 547.881 554.217C556.064 554.462 564.256 554.415 572.458 554.076C579.405 553.793 583.243 549.902 583.974 542.402C584.044 541.658 584.385 540.967 584.931 540.465C585.476 539.963 586.187 539.686 586.923 539.689H588.243C588.615 539.689 588.972 539.835 589.236 540.095C589.499 540.354 589.647 540.707 589.647 541.074L589.675 574.343C589.675 575.85 588.926 576.538 587.428 576.406L586.389 576.293C585.725 576.238 585.104 575.94 584.643 575.456C584.183 574.972 583.914 574.334 583.889 573.664C583.608 565.561 579.714 561.501 572.205 561.482C564.153 561.463 556.101 561.435 548.049 561.397C546.813 561.397 546.186 562.009 546.167 563.234Z" fill="black"/>
<path d="M652.141 569.622C652.16 581.946 652.188 593.516 652.225 604.332C652.282 613.688 660.792 616.034 668.46 615.469C670.127 615.355 670.988 616.138 671.044 617.815L671.072 618.719C671.128 620.189 670.426 620.924 668.966 620.924H621.891C620.43 620.924 619.803 620.198 620.009 618.747L620.177 617.645C620.249 617.136 620.486 616.666 620.852 616.308C621.218 615.95 621.692 615.724 622.2 615.666C630.738 614.649 637.002 613.688 637.142 602.89C637.517 574.644 637.517 545.851 637.142 516.511C637.049 507.918 632.779 503.905 624.334 504.47C622.612 504.583 621.619 503.782 621.357 502.067C621.282 501.596 621.282 501.125 621.357 500.654C621.563 499.561 622.209 499.024 623.295 499.043C639.436 499.439 655.137 499.505 670.398 499.241C736.489 498.082 715.647 589.379 654.22 568.124C652.834 567.653 652.141 568.152 652.141 569.622ZM652.169 511.96L651.945 557.242C651.937 559.178 652.693 561.039 654.046 562.417C655.398 563.794 657.239 564.576 659.163 564.591L666.691 564.647C670.215 564.669 673.71 563.972 676.974 562.596C680.239 561.219 683.209 559.191 685.716 556.626C688.223 554.062 690.217 551.011 691.584 547.649C692.951 544.287 693.664 540.679 693.683 537.032V532.622C693.721 525.265 690.935 518.194 685.937 512.963C680.939 507.731 674.138 504.768 667.028 504.724L659.5 504.668C658.542 504.66 657.593 504.843 656.705 505.206C655.818 505.569 655.011 506.104 654.33 506.782C653.649 507.459 653.107 508.266 652.736 509.154C652.366 510.043 652.173 510.997 652.169 511.96Z" fill="black"/>
<path d="M948.123 518.319C948.797 517.17 949.134 516.548 949.134 516.454C949.003 513.231 947.945 512.892 945.96 515.436C945.623 515.888 945.192 516.793 944.668 518.149C926.074 549.11 907.433 580.051 888.746 610.973C887.313 613.376 886.33 616.005 886.92 618.803C886.975 619.059 886.971 619.325 886.91 619.58C886.849 619.835 886.733 620.073 886.568 620.276C886.404 620.48 886.196 620.643 885.96 620.755C885.725 620.867 885.467 620.924 885.206 620.923H855.574C854.245 620.923 853.589 620.263 853.608 618.944C853.608 618.36 853.72 617.804 853.945 617.277C854.469 616.014 855.405 615.383 856.754 615.383C865.33 615.439 869.627 611.868 869.646 604.67C869.665 572.711 869.637 542.561 869.562 514.221C869.534 505.515 862.287 504.271 855.63 504.328C855.368 504.328 855.109 504.275 854.869 504.171C854.629 504.066 854.413 503.913 854.236 503.722C854.059 503.53 853.924 503.304 853.84 503.058C853.756 502.812 853.725 502.551 853.748 502.293L853.833 501.247C853.926 499.909 854.638 499.24 855.967 499.24L899.812 499.325C900.17 499.325 900.513 499.471 900.765 499.73C901.018 499.99 901.16 500.342 901.16 500.71V501.558C901.164 501.934 901.093 502.307 900.952 502.655C900.811 503.003 900.602 503.319 900.338 503.585C900.074 503.851 899.759 504.061 899.414 504.203C899.068 504.345 898.697 504.416 898.323 504.412C892.06 504.328 885.178 506.532 885.094 513.994C884.813 538.02 884.757 562.159 884.926 586.411C884.944 588.841 884.813 591.348 884.532 593.929C883.596 602.767 885.412 603.379 889.981 595.767C906.647 567.991 924.174 539.057 942.562 508.963C944.153 506.344 945.314 503.574 946.044 500.653C946.269 499.805 946.812 499.381 947.674 499.381L977.531 499.183C978.504 499.183 978.991 499.664 978.991 500.625L979.019 501.614C979.027 501.978 978.962 502.339 978.828 502.677C978.694 503.014 978.494 503.321 978.24 503.58C977.986 503.838 977.683 504.042 977.349 504.181C977.014 504.319 976.656 504.388 976.295 504.384C970.649 504.356 963.431 506.448 963.234 513.203C962.71 530.784 962.626 561.537 962.981 605.462C963.066 614.648 970.481 614.733 977.194 615.75C978.542 615.939 979.207 616.721 979.188 618.096V618.916C979.169 620.254 978.495 620.923 977.166 620.923H932.956C931.514 620.923 930.989 620.226 931.383 618.831C931.495 618.417 931.579 618.002 931.635 617.587C931.72 616.934 932.046 616.336 932.546 615.917C933.047 615.497 933.685 615.286 934.332 615.326C943.432 615.835 947.936 611.576 947.842 602.55C947.524 574.435 947.617 546.358 948.123 518.319Z" fill="black"/>
<path d="M1142.27 554.33C1149.18 554.198 1156.65 554.198 1164.69 554.33C1173.32 554.481 1177.96 550.552 1178.62 542.544C1178.75 540.829 1179.68 539.915 1181.4 539.802L1182.3 539.745C1183.72 539.651 1184.43 540.32 1184.43 541.752V573.946C1184.43 575.341 1183.75 576.151 1182.38 576.377C1181.8 576.49 1181.23 576.443 1180.67 576.236C1179.45 575.784 1178.78 574.917 1178.65 573.636C1177.9 565.721 1174.41 561.698 1168.2 561.566C1159.92 561.378 1151.24 561.359 1142.16 561.51C1141.86 561.517 1141.57 561.642 1141.36 561.859C1141.15 562.075 1141.04 562.366 1141.04 562.669C1141.09 576.217 1141.15 589.351 1141.21 602.071C1141.24 608.967 1144.6 612.925 1151.26 613.942C1160.74 615.393 1170.23 615.205 1179.74 613.377C1189.04 611.596 1194.83 600.742 1197.35 592.262C1197.8 590.755 1198.8 590.152 1200.36 590.453L1201.68 590.736C1203.05 591.019 1203.57 591.848 1203.25 593.224L1197.33 619.426C1197.23 619.85 1196.99 620.23 1196.65 620.502C1196.31 620.774 1195.88 620.923 1195.44 620.924H1108.46C1108.04 620.924 1107.64 620.765 1107.34 620.481C1107.04 620.196 1106.87 619.807 1106.85 619.397L1106.83 618.182C1106.81 617.831 1106.87 617.481 1106.99 617.152C1107.11 616.823 1107.3 616.523 1107.54 616.27C1107.78 616.016 1108.07 615.814 1108.4 615.677C1108.72 615.539 1109.06 615.468 1109.41 615.468C1117.87 615.497 1125.84 613.377 1125.93 602.919C1126.11 573.937 1126.11 545.069 1125.93 516.313C1125.87 505.403 1119.24 505.403 1110.98 504.102C1110.49 504.026 1110.05 503.767 1109.74 503.375C1109.43 502.984 1109.27 502.487 1109.3 501.983L1109.38 500.937C1109.46 499.825 1110.05 499.269 1111.15 499.269L1191.43 499.354C1191.72 499.36 1192 499.475 1192.2 499.674C1192.41 499.873 1192.54 500.143 1192.55 500.428L1194.1 524.114C1194.19 525.584 1193.51 526.376 1192.07 526.489L1190.89 526.574C1189.49 526.687 1188.66 526.046 1188.42 524.651C1187.19 517.698 1183.25 507.014 1175.11 506.109C1165.03 504.96 1154.48 504.753 1143.45 505.487C1142.83 505.53 1142.26 505.805 1141.83 506.257C1141.41 506.708 1141.18 507.302 1141.18 507.918L1141.07 553.171C1141.07 553.326 1141.1 553.479 1141.16 553.621C1141.22 553.764 1141.31 553.893 1141.42 554.001C1141.53 554.109 1141.67 554.194 1141.81 554.25C1141.96 554.307 1142.12 554.334 1142.27 554.33Z" fill="black"/>
<path d="M1332.03 615.524C1338.4 615.92 1346.63 613.461 1346.66 606.027C1346.81 578.666 1346.82 548.432 1346.69 515.323C1346.66 504.752 1339.5 505.346 1331.75 504.13C1330.72 503.979 1330.06 503.395 1329.78 502.378C1329.48 501.341 1329.69 500.456 1330.43 499.721C1330.89 499.269 1331.46 499.052 1332.11 499.071C1347.54 499.579 1362.63 499.551 1377.39 498.986C1377.64 498.974 1377.89 499.013 1378.12 499.1C1378.36 499.186 1378.57 499.319 1378.75 499.49C1378.94 499.661 1379.08 499.867 1379.19 500.096C1379.29 500.325 1379.35 500.572 1379.35 500.823L1379.41 502.039C1379.43 502.554 1379.25 503.058 1378.92 503.45C1378.59 503.842 1378.12 504.095 1377.61 504.158L1369.61 505.204C1367.87 505.429 1366.26 506.236 1365.03 507.497C1363.8 508.759 1363.03 510.4 1362.84 512.158C1362.5 515.304 1362.32 518.583 1362.3 521.994C1362.1 548.639 1362.08 574.615 1362.25 599.922C1362.27 603.201 1362.64 606.489 1363.37 609.787C1363.6 610.785 1364.11 611.586 1364.92 612.189C1368.46 614.846 1372.32 615.892 1376.52 615.327C1378.26 615.082 1379.21 615.835 1379.38 617.588L1379.49 618.718C1379.66 620.188 1379.01 620.923 1377.53 620.923H1331.94C1330.52 620.923 1329.82 620.207 1329.84 618.775V617.56C1329.84 617.281 1329.9 617.006 1330.01 616.752C1330.12 616.497 1330.29 616.268 1330.49 616.077C1330.7 615.887 1330.94 615.74 1331.2 615.645C1331.47 615.55 1331.75 615.509 1332.03 615.524Z" fill="black"/>
<path d="M948.133 518.32L944.678 518.15C945.202 516.794 945.633 515.889 945.97 515.437C947.955 512.893 949.013 513.232 949.144 516.454C949.144 516.549 948.807 517.171 948.133 518.32Z" fill="#4E5991"/>
</g>
<defs>
<clipPath id="clip0_986_130">
<rect width="3540" height="797" fill="white"/>
</clipPath>
</defs>
</svg>
